700-italic.ufo
<glyph name="exclam" format="2">
  <advance width="333"/>
  <unicode hex="0021"/>
  <outline>
    <contour>
      <point x="168" y="700" type="line"/>
      <point x="352" y="700" type="line"/>
      <point x="240" y="232" type="line"/>
      <point x="118" y="232" type="line"/>
    </contour>
    <contour>
      <point x="57" y="62" type="curve" smooth="yes"/>
      <point x="57" y="113"/>
      <point x="96" y="148"/>
      <point x="151" y="148" type="curve" smooth="yes"/>
      <point x="206" y="148"/>
      <point x="246" y="113"/>
      <point x="246" y="62" type="curve" smooth="yes"/>
      <point x="246" y="11"/>
      <point x="206" y="-24"/>
      <point x="151" y="-24" type="curve" smooth="yes"/>
      <point x="96" y="-24"/>
      <point x="57" y="11"/>
    </contour>
  </outline>
</glyph>
<glyph name="quotedbl" format="2">
  <advance width="502"/>
  <unicode hex="0022"/>
  <outline>
    <contour>
      <point x="191" y="700" type="line"/>
      <point x="352" y="700" type="line"/>
      <point x="199" y="382" type="line"/>
      <point x="99" y="382" type="line"/>
    </contour>
    <contour>
      <point x="396" y="700" type="line"/>
      <point x="556" y="700" type="line"/>
      <point x="404" y="382" type="line"/>
      <point x="304" y="382" type="line"/>
    </contour>
  </outline>
</glyph>
<glyph name="numbersign" format="2">
  <advance width="647"/>
  <unicode hex="0023"/>
  <outline>
    <contour>
      <point x="116" y="412" type="line"/>
      <point x="136" y="533" type="line"/>
      <point x="679" y="533" type="line"/>
      <point x="658" y="412" type="line"/>
      <point x="512" y="412" type="line"/>
      <point x="484" y="418" type="line"/>
      <point x="286" y="418" type="line"/>
      <point x="259" y="412" type="line"/>
    </contour>
    <contour>
      <point x="34" y="172" type="line"/>
      <point x="56" y="293" type="line"/>
      <point x="189" y="293" type="line"/>
      <point x="219" y="287" type="line"/>
      <point x="442" y="287" type="line"/>
      <point x="472" y="293" type="line"/>
      <point x="599" y="293" type="line"/>
      <point x="578" y="172" type="line"/>
    </contour>
    <contour>
      <point x="548" y="700" type="line"/>
      <point x="682" y="700" type="line"/>
      <point x="397" y="0" type="line"/>
      <point x="265" y="0" type="line"/>
      <point x="356" y="224" type="line"/>
      <point x="373" y="250" type="line"/>
      <point x="457" y="456" type="line"/>
      <point x="463" y="487" type="line"/>
    </contour>
    <contour>
      <point x="315" y="700" type="line"/>
      <point x="448" y="700" type="line"/>
      <point x="362" y="488" type="line"/>
      <point x="342" y="456" type="line"/>
      <point x="259" y="252" type="line"/>
      <point x="256" y="226" type="line"/>
      <point x="163" y="0" type="line"/>
      <point x="31" y="0" type="line"/>
    </contour>
  </outline>
</glyph>
<glyph name="dollar" format="2">
  <advance width="602"/>
  <unicode hex="0024"/>
  <outline>
    <contour>
      <point x="362" y="818" type="line"/>
      <point x="485" y="818" type="line"/>
      <point x="450" y="637" type="line"/>
      <point x="340" y="637" type="line"/>
    </contour>
    <contour>
      <point x="252" y="62" type="line"/>
      <point x="362" y="62" type="line"/>
      <point x="340" y="-112" type="line"/>
      <point x="218" y="-112" type="line"/>
    </contour>
    <contour>
      <point x="497" y="490" type="line"/>
      <point x="475" y="541"/>
      <point x="446" y="584"/>
      <point x="393" y="584" type="curve" smooth="yes"/>
      <point x="346" y="584"/>
      <point x="311" y="558"/>
      <point x="304" y="521" type="curve" smooth="yes"/>
      <point x="292" y="459"/>
      <point x="375" y="439"/>
      <point x="439" y="414" type="curve" smooth="yes"/>
      <point x="531" y="377"/>
      <point x="597" y="305"/>
      <point x="583" y="196" type="curve" smooth="yes"/>
      <point x="565" y="62"/>
      <point x="442" y="-11"/>
      <point x="294" y="-10" type="curve" smooth="yes"/>
      <point x="172" y="-9"/>
      <point x="78" y="68"/>
      <point x="40" y="168" type="curve"/>
      <point x="166" y="251" type="line"/>
      <point x="199" y="179"/>
      <point x="237" y="126"/>
      <point x="311" y="126" type="curve" smooth="yes"/>
      <point x="363" y="126"/>
      <point x="400" y="151"/>
      <point x="408" y="195" type="curve" smooth="yes"/>
      <point x="418" y="253"/>
      <point x="350" y="276"/>
      <point x="288" y="302" type="curve" smooth="yes"/>
      <point x="210" y="336"/>
      <point x="120" y="404"/>
      <point x="134" y="522" type="curve" smooth="yes"/>
      <point x="150" y="632"/>
      <point x="270" y="710"/>
      <point x="400" y="710" type="curve" smooth="yes"/>
      <point x="524" y="710"/>
      <point x="591" y="645"/>
      <point x="630" y="561" type="curve"/>
    </contour>
  </outline>
</glyph>
<glyph name="percent" format="2">
  <advance width="891"/>
  <unicode hex="0025"/>
  <outline>
    <contour>
      <point x="84" y="534" type="curve" smooth="yes"/>
      <point x="98" y="634"/>
      <point x="190" y="718"/>
      <point x="296" y="718" type="curve" smooth="yes"/>
      <point x="401" y="718"/>
      <point x="468" y="631"/>
      <point x="454" y="534" type="curve" smooth="yes"/>
      <point x="440" y="434"/>
      <point x="349" y="350"/>
      <point x="243" y="350" type="curve" smooth="yes"/>
      <point x="138" y="350"/>
      <point x="70" y="437"/>
    </contour>
    <contour>
      <point x="206" y="533" type="curve" smooth="yes"/>
      <point x="202" y="502"/>
      <point x="221" y="468"/>
      <point x="259" y="468" type="curve" smooth="yes"/>
      <point x="295" y="468"/>
      <point x="327" y="501"/>
      <point x="332" y="535" type="curve" smooth="yes"/>
      <point x="336" y="566"/>
      <point x="319" y="600"/>
      <point x="281" y="600" type="curve" smooth="yes"/>
      <point x="245" y="600"/>
      <point x="211" y="567"/>
    </contour>
    <contour>
      <point x="504" y="166" type="curve" smooth="yes"/>
      <point x="518" y="266"/>
      <point x="609" y="350"/>
      <point x="715" y="350" type="curve" smooth="yes"/>
      <point x="820" y="350"/>
      <point x="887" y="263"/>
      <point x="873" y="166" type="curve" smooth="yes"/>
      <point x="859" y="66"/>
      <point x="768" y="-18"/>
      <point x="662" y="-18" type="curve" smooth="yes"/>
      <point x="557" y="-18"/>
      <point x="490" y="69"/>
    </contour>
    <contour>
      <point x="626" y="165" type="curve" smooth="yes"/>
      <point x="622" y="134"/>
      <point x="641" y="100"/>
      <point x="676" y="100" type="curve" smooth="yes"/>
      <point x="712" y="100"/>
      <point x="745" y="131"/>
      <point x="751" y="167" type="curve" smooth="yes"/>
      <point x="755" y="198"/>
      <point x="736" y="232"/>
      <point x="701" y="232" type="curve" smooth="yes"/>
      <point x="665" y="232"/>
      <point x="632" y="201"/>
    </contour>
    <contour>
      <point x="720" y="700" type="line"/>
      <point x="880" y="700" type="line"/>
      <point x="238" y="0" type="line"/>
      <point x="79" y="0" type="line"/>
    </contour>
  </outline>
</glyph>
<glyph name="ampersand" format="2">
  <advance width="729"/>
  <unicode hex="0026"/>
  <outline>
    <contour>
      <point x="258" y="372" type="line" smooth="yes"/>
      <point x="219" y="424"/>
      <point x="180" y="476"/>
      <point x="188" y="544" type="curve" smooth="yes"/>
      <point x="202" y="640"/>
      <point x="302" y="716"/>
      <point x="421" y="716" type="curve" smooth="yes"/>
      <point x="534" y="716"/>
      <point x="608" y="640"/>
      <point x="596" y="548" type="curve" smooth="yes"/>
      <point x="583" y="452"/>
      <point x="498" y="403"/>
      <point x="400" y="344" type="curve" smooth="yes"/>
      <point x="330" y="304"/>
      <point x="221" y="282"/>
      <point x="208" y="200" type="curve" smooth="yes"/>
      <point x="200" y="151"/>
      <point x="234" y="118"/>
      <point x="292" y="116" type="curve" smooth="yes"/>
      <point x="418" y="110"/>
      <point x="538" y="234"/>
      <point x="622" y="340" type="curve"/>
      <point x="712" y="262" type="line"/>
      <point x="607" y="133"/>
      <point x="455" y="-15"/>
      <point x="261" y="-13" type="curve" smooth="yes"/>
      <point x="137" y="-13"/>
      <point x="34" y="64"/>
      <point x="50" y="188" type="curve" smooth="yes"/>
      <point x="69" y="338"/>
      <point x="232" y="378"/>
      <point x="326" y="420" type="curve" smooth="yes"/>
      <point x="388" y="449"/>
      <point x="452" y="486"/>
      <point x="459" y="534" type="curve" smooth="yes"/>
      <point x="463" y="564"/>
      <point x="444" y="596"/>
      <point x="404" y="596" type="curve" smooth="yes"/>
      <point x="364" y="596"/>
      <point x="336" y="568"/>
      <point x="330" y="534" type="curve" smooth="yes"/>
      <point x="322" y="490"/>
      <point x="360" y="448"/>
      <point x="398" y="400" type="curve" smooth="yes"/>
      <point x="695" y="0" type="line"/>
      <point x="531" y="0" type="line"/>
    </contour>
  </outline>
</glyph>
<glyph name="quotesingle" format="2">
  <advance width="297"/>
  <unicode hex="0027"/>
  <outline>
    <contour>
      <point x="191" y="700" type="line"/>
      <point x="352" y="700" type="line"/>
      <point x="199" y="382" type="line"/>
      <point x="99" y="382" type="line"/>
    </contour>
  </outline>
</glyph>
<glyph name="parenleft" format="2">
  <advance width="330"/>
  <unicode hex="0028"/>
  <outline>
    <contour>
      <point x="283" y="780" type="curve"/>
      <point x="420" y="779" type="line"/>
      <point x="333" y="628"/>
      <point x="268" y="463"/>
      <point x="240" y="290" type="curve" smooth="yes"/>
      <point x="215" y="126"/>
      <point x="224" y="-42"/>
      <point x="271" y="-200" type="curve"/>
      <point x="138" y="-200" type="line"/>
      <point x="82" y="-43"/>
      <point x="68" y="125"/>
      <point x="92" y="290" type="curve" smooth="yes"/>
      <point x="118" y="464"/>
      <point x="185" y="632"/>
    </contour>
  </outline>
</glyph>
<glyph name="asterisk" format="2">
  <advance width="574"/>
  <unicode hex="002A"/>
  <outline>
    <contour>
      <point x="558" y="603" type="line"/>
      <point x="578" y="470" type="line"/>
      <point x="344" y="428" type="line"/>
      <point x="332" y="501" type="line"/>
    </contour>
    <contour>
      <point x="504" y="313" type="line"/>
      <point x="380" y="232" type="line"/>
      <point x="307" y="446" type="line"/>
      <point x="368" y="486" type="line"/>
    </contour>
    <contour>
      <point x="224" y="234" type="line"/>
      <point x="124" y="318" type="line"/>
      <point x="311" y="486" type="line"/>
      <point x="366" y="440" type="line"/>
    </contour>
    <contour>
      <point x="102" y="472" type="line"/>
      <point x="164" y="602" type="line"/>
      <point x="358" y="498" type="line"/>
      <point x="325" y="429" type="line"/>
    </contour>
    <contour>
      <point x="310" y="700" type="line"/>
      <point x="450" y="700" type="line"/>
      <point x="377" y="464" type="line"/>
      <point x="304" y="464" type="line"/>
    </contour>
  </outline>
</glyph>
<glyph name="comma" format="2">
  <advance width="313"/>
  <unicode hex="002C"/>
  <outline>
    <contour>
      <point x="106" y="109" type="line"/>
      <point x="253" y="76" type="line"/>
      <point x="88" y="-171" type="line"/>
      <point x="-24" y="-148" type="line"/>
    </contour>
  </outline>
</glyph>
<glyph name="period" format="2">
  <advance width="312"/>
  <unicode hex="002E"/>
  <outline>
    <contour>
      <point x="50" y="68" type="curve" smooth="yes"/>
      <point x="50" y="119"/>
      <point x="89" y="160"/>
      <point x="144" y="160" type="curve" smooth="yes"/>
      <point x="199" y="160"/>
      <point x="238" y="119"/>
      <point x="238" y="68" type="curve" smooth="yes"/>
      <point x="238" y="17"/>
      <point x="199" y="-24"/>
      <point x="144" y="-24" type="curve" smooth="yes"/>
      <point x="89" y="-24"/>
      <point x="50" y="17"/>
    </contour>
  </outline>
</glyph>
<glyph name="zero" format="2">
  <advance width="642"/>
  <unicode hex="0030"/>
  <outline>
    <contour>
      <point x="230" y="350" type="curve" smooth="yes"/>
      <point x="220" y="256"/>
      <point x="222" y="135"/>
      <point x="312" y="133" type="curve" smooth="yes"/>
      <point x="402" y="131"/>
      <point x="462" y="244"/>
      <point x="477" y="350" type="curve" smooth="yes"/>
      <point x="487" y="444"/>
      <point x="486" y="565"/>
      <point x="396" y="567" type="curve" smooth="yes"/>
      <point x="306" y="569"/>
      <point x="245" y="456"/>
    </contour>
    <contour>
      <point x="70" y="350" type="curve" smooth="yes"/>
      <point x="98" y="549"/>
      <point x="225" y="713"/>
      <point x="411" y="713" type="curve" smooth="yes"/>
      <point x="601" y="713"/>
      <point x="662" y="538"/>
      <point x="638" y="350" type="curve" smooth="yes"/>
      <point x="610" y="150"/>
      <point x="486" y="-13"/>
      <point x="297" y="-13" type="curve" smooth="yes"/>
      <point x="111" y="-13"/>
      <point x="46" y="162"/>
    </contour>
  </outline>
</glyph>
<glyph name="one" format="2">
  <advance width="493"/>
  <unicode hex="0031"/>
  <outline>
    <contour>
      <point x="121" y="496" type="line"/>
      <point x="148" y="646" type="line"/>
      <point x="489" y="714" type="line"/>
      <point x="366" y="0" type="line"/>
      <point x="205" y="0" type="line"/>
      <point x="298" y="538" type="line"/>
    </contour>
  </outline>
</glyph>
<glyph name="two" format="2">
  <advance width="636"/>
  <unicode hex="0032"/>
  <outline>
    <contour>
      <point x="-1" y="0" type="line"/>
      <point x="351" y="323" type="line" smooth="yes"/>
      <point x="404" y="374"/>
      <point x="457" y="419"/>
      <point x="466" y="480" type="curve" smooth="yes"/>
      <point x="472" y="524"/>
      <point x="447" y="567"/>
      <point x="391" y="568" type="curve" smooth="yes"/>
      <point x="323" y="570"/>
      <point x="280" y="508"/>
      <point x="267" y="442" type="curve"/>
      <point x="103" y="442" type="line"/>
      <point x="128" y="590"/>
      <point x="237" y="714"/>
      <point x="410" y="714" type="curve" smooth="yes"/>
      <point x="558" y="714"/>
      <point x="657" y="610"/>
      <point x="639" y="492" type="curve" smooth="yes"/>
      <point x="629" y="414"/>
      <point x="576" y="351"/>
      <point x="514" y="301" type="curve" smooth="yes"/>
      <point x="335" y="156" type="line"/>
      <point x="604" y="155" type="line"/>
      <point x="580" y="0" type="line"/>
    </contour>
  </outline>
</glyph>
<glyph name="three" format="2">
  <advance width="602"/>
  <unicode hex="0033"/>
  <outline>
    <contour>
      <point x="302" y="340" type="curve"/>
      <point x="312" y="414" type="line"/>
      <point x="378" y="418"/>
      <point x="446" y="451"/>
      <point x="454" y="508" type="curve" smooth="yes"/>
      <point x="458" y="546"/>
      <point x="437" y="578"/>
      <point x="391" y="578" type="curve" smooth="yes"/>
      <point x="339" y="580"/>
      <point x="301" y="539"/>
      <point x="289" y="495" type="curve"/>
      <point x="134" y="496" type="line"/>
      <point x="157" y="620"/>
      <point x="261" y="713"/>
      <point x="404" y="713" type="curve" smooth="yes"/>
      <point x="538" y="713"/>
      <point x="635" y="633"/>
      <point x="619" y="518" type="curve" smooth="yes"/>
      <point x="599" y="385"/>
      <point x="448" y="342"/>
    </contour>
    <contour>
      <point x="292" y="-16" type="curve" smooth="yes"/>
      <point x="136" y="-16"/>
      <point x="52" y="92"/>
      <point x="62" y="222" type="curve"/>
      <point x="224" y="222" type="line"/>
      <point x="221" y="162"/>
      <point x="252" y="122"/>
      <point x="312" y="120" type="curve" smooth="yes"/>
      <point x="368" y="119"/>
      <point x="418" y="152"/>
      <point x="426" y="208" type="curve" smooth="yes"/>
      <point x="439" y="275"/>
      <point x="377" y="303"/>
      <point x="297" y="306" type="curve"/>
      <point x="309" y="392" type="line"/>
      <point x="461" y="390"/>
      <point x="608" y="339"/>
      <point x="588" y="190" type="curve" smooth="yes"/>
      <point x="570" y="62"/>
      <point x="444" y="-16"/>
    </contour>
  </outline>
</glyph>
<glyph name="four" format="2">
  <advance width="677"/>
  <unicode hex="0034"/>
  <outline>
    <contour>
      <point x="5" y="125" type="line"/>
      <point x="496" y="700" type="line"/>
      <point x="624" y="700" type="line"/>
      <point x="504" y="0" type="line"/>
      <point x="330" y="0" type="line"/>
      <point x="360" y="176" type="line"/>
      <point x="380" y="186" type="line"/>
      <point x="425" y="447" type="line"/>
      <point x="250" y="246" type="line"/>
      <point x="492" y="246" type="line"/>
      <point x="512" y="268" type="line"/>
      <point x="657" y="268" type="line"/>
      <point x="632" y="124" type="line"/>
    </contour>
  </outline>
</glyph>
<glyph name="five" format="2">
  <advance width="625"/>
  <unicode hex="0035"/>
  <outline>
    <contour>
      <point x="606" y="224" type="curve" smooth="yes"/>
      <point x="586" y="70"/>
      <point x="439" y="-13"/>
      <point x="299" y="-13" type="curve" smooth="yes"/>
      <point x="185" y="-13"/>
      <point x="102" y="27"/>
      <point x="36" y="79" type="curve"/>
      <point x="118" y="216" type="line"/>
      <point x="164" y="172"/>
      <point x="222" y="142"/>
      <point x="278" y="142" type="curve" smooth="yes"/>
      <point x="352" y="142"/>
      <point x="418" y="174"/>
      <point x="428" y="242" type="curve" smooth="yes"/>
      <point x="438" y="307"/>
      <point x="378" y="339"/>
      <point x="316" y="340" type="curve" smooth="yes"/>
      <point x="254" y="342"/>
      <point x="182" y="326"/>
      <point x="114" y="297" type="curve"/>
      <point x="269" y="700" type="line"/>
      <point x="666" y="700" type="line"/>
      <point x="642" y="553" type="line"/>
      <point x="372" y="554" type="line"/>
      <point x="309" y="428" type="line"/>
      <point x="346" y="444"/>
      <point x="387" y="452"/>
      <point x="429" y="452" type="curve" smooth="yes"/>
      <point x="547" y="450"/>
      <point x="621" y="350"/>
    </contour>
  </outline>
</glyph>
<glyph name="six" format="2">
  <advance width="649"/>
  <unicode hex="0036"/>
  <outline>
    <contour>
      <point x="232" y="246" type="curve" smooth="yes"/>
      <point x="222" y="183"/>
      <point x="258" y="129"/>
      <point x="324" y="128" type="curve" smooth="yes"/>
      <point x="391" y="127"/>
      <point x="450" y="180"/>
      <point x="460" y="246" type="curve" smooth="yes"/>
      <point x="470" y="308"/>
      <point x="434" y="363"/>
      <point x="368" y="364" type="curve" smooth="yes"/>
      <point x="301" y="365"/>
      <point x="242" y="312"/>
    </contour>
    <contour>
      <point x="410" y="696" type="line"/>
      <point x="626" y="696" type="line"/>
      <point x="366" y="445" type="line"/>
      <point x="327" y="430" type="line"/>
      <point x="363" y="459"/>
      <point x="397" y="472"/>
      <point x="443" y="472" type="curve" smooth="yes"/>
      <point x="557" y="472"/>
      <point x="638" y="370"/>
      <point x="624" y="246" type="curve" smooth="yes"/>
      <point x="604" y="84"/>
      <point x="466" y="-16"/>
      <point x="310" y="-16" type="curve" smooth="yes"/>
      <point x="156" y="-16"/>
      <point x="48" y="88"/>
      <point x="68" y="246" type="curve" smooth="yes"/>
      <point x="78" y="322"/>
      <point x="124" y="386"/>
      <point x="175" y="441" type="curve" smooth="yes"/>
    </contour>
  </outline>
</glyph>
<glyph name="seven" format="2">
  <advance width="584"/>
  <unicode hex="0037"/>
  <outline>
    <contour>
      <point x="94" y="542" type="line"/>
      <point x="118" y="700" type="line"/>
      <point x="678" y="700" type="line"/>
      <point x="240" y="0" type="line"/>
      <point x="57" y="0" type="line"/>
      <point x="406" y="542" type="line"/>
    </contour>
  </outline>
</glyph>
<glyph name="eight" format="2">
  <advance width="608"/>
  <unicode hex="0038"/>
  <outline>
    <contour>
      <point x="137" y="532" type="curve" smooth="yes"/>
      <point x="155" y="649"/>
      <point x="272" y="716"/>
      <point x="394" y="716" type="curve" smooth="yes"/>
      <point x="512" y="716"/>
      <point x="615" y="647"/>
      <point x="598" y="530" type="curve" smooth="yes"/>
      <point x="581" y="408"/>
      <point x="457" y="342"/>
      <point x="341" y="342" type="curve" smooth="yes"/>
      <point x="229" y="342"/>
      <point x="120" y="410"/>
    </contour>
    <contour>
      <point x="290" y="514" type="curve" smooth="yes"/>
      <point x="284" y="474"/>
      <point x="306" y="436"/>
      <point x="348" y="436" type="curve" smooth="yes"/>
      <point x="394" y="436"/>
      <point x="433" y="474"/>
      <point x="440" y="516" type="curve" smooth="yes"/>
      <point x="446" y="556"/>
      <point x="426" y="594"/>
      <point x="382" y="594" type="curve" smooth="yes"/>
      <point x="334" y="594"/>
      <point x="297" y="557"/>
    </contour>
    <contour>
      <point x="54" y="190" type="curve" smooth="yes"/>
      <point x="73" y="328"/>
      <point x="218" y="396"/>
      <point x="340" y="396" type="curve" smooth="yes"/>
      <point x="456" y="396"/>
      <point x="584" y="328"/>
      <point x="565" y="190" type="curve" smooth="yes"/>
      <point x="546" y="62"/>
      <point x="412" y="-16"/>
      <point x="280" y="-16" type="curve" smooth="yes"/>
      <point x="153" y="-16"/>
      <point x="36" y="63"/>
    </contour>
    <contour>
      <point x="224" y="215" type="curve" smooth="yes"/>
      <point x="216" y="163"/>
      <point x="244" y="122"/>
      <point x="294" y="122" type="curve" smooth="yes"/>
      <point x="348" y="122"/>
      <point x="396" y="162"/>
      <point x="404" y="216" type="curve" smooth="yes"/>
      <point x="411" y="262"/>
      <point x="383" y="306"/>
      <point x="333" y="306" type="curve" smooth="yes"/>
      <point x="279" y="306"/>
      <point x="233" y="263"/>
    </contour>
  </outline>
</glyph>
<glyph name="nine" format="2">
  <advance width="649"/>
  <unicode hex="0039"/>
  <outline>
    <contour>
      <point x="492" y="454" type="curve" smooth="yes"/>
      <point x="502" y="517"/>
      <point x="466" y="571"/>
      <point x="400" y="572" type="curve" smooth="yes"/>
      <point x="333" y="573"/>
      <point x="274" y="520"/>
      <point x="264" y="454" type="curve" smooth="yes"/>
      <point x="254" y="392"/>
      <point x="290" y="337"/>
      <point x="356" y="336" type="curve" smooth="yes"/>
      <point x="423" y="335"/>
      <point x="482" y="388"/>
    </contour>
    <contour>
      <point x="314" y="4" type="line"/>
      <point x="98" y="4" type="line"/>
      <point x="358" y="255" type="line"/>
      <point x="396" y="270" type="line"/>
      <point x="360" y="241"/>
      <point x="326" y="228"/>
      <point x="280" y="228" type="curve" smooth="yes"/>
      <point x="166" y="228"/>
      <point x="86" y="330"/>
      <point x="100" y="454" type="curve" smooth="yes"/>
      <point x="120" y="616"/>
      <point x="258" y="716"/>
      <point x="414" y="716" type="curve" smooth="yes"/>
      <point x="568" y="716"/>
      <point x="676" y="612"/>
      <point x="656" y="454" type="curve" smooth="yes"/>
      <point x="646" y="378"/>
      <point x="599" y="314"/>
      <point x="548" y="259" type="curve" smooth="yes"/>
    </contour>
  </outline>
</glyph>
<glyph name="colon" format="2">
  <advance width="312"/>
  <unicode hex="003A"/>
  <outline>
    <contour>
      <point x="47" y="68" type="curve" smooth="yes"/>
      <point x="47" y="119"/>
      <point x="86" y="160"/>
      <point x="141" y="160" type="curve" smooth="yes"/>
      <point x="196" y="160"/>
      <point x="236" y="119"/>
      <point x="236" y="68" type="curve" smooth="yes"/>
      <point x="236" y="17"/>
      <point x="196" y="-24"/>
      <point x="141" y="-24" type="curve" smooth="yes"/>
      <point x="86" y="-24"/>
      <point x="47" y="17"/>
    </contour>
    <contour>
      <point x="110" y="442" type="curve" smooth="yes"/>
      <point x="110" y="493"/>
      <point x="149" y="534"/>
      <point x="204" y="534" type="curve" smooth="yes"/>
      <point x="259" y="534"/>
      <point x="299" y="493"/>
      <point x="299" y="442" type="curve" smooth="yes"/>
      <point x="299" y="391"/>
      <point x="259" y="349"/>
      <point x="204" y="349" type="curve" smooth="yes"/>
      <point x="149" y="349"/>
      <point x="110" y="391"/>
    </contour>
  </outline>
</glyph>
<glyph name="semicolon" format="2">
  <advance width="381"/>
  <unicode hex="003B"/>
  <outline>
    <contour>
      <point x="160" y="436" type="curve" smooth="yes"/>
      <point x="160" y="487"/>
      <point x="199" y="528"/>
      <point x="254" y="528" type="curve" smooth="yes"/>
      <point x="309" y="528"/>
      <point x="348" y="487"/>
      <point x="348" y="436" type="curve" smooth="yes"/>
      <point x="348" y="385"/>
      <point x="309" y="343"/>
      <point x="254" y="343" type="curve" smooth="yes"/>
      <point x="199" y="343"/>
      <point x="160" y="385"/>
    </contour>
    <contour>
      <point x="127" y="109" type="line"/>
      <point x="274" y="76" type="line"/>
      <point x="110" y="-171" type="line"/>
      <point x="-2" y="-148" type="line"/>
    </contour>
  </outline>
</glyph>
<glyph name="less" format="2">
  <advance width="621"/>
  <unicode hex="003C"/>
  <outline>
    <contour>
      <point x="291" y="264" type="line"/>
      <point x="558" y="144" type="line"/>
      <point x="532" y="0" type="line"/>
      <point x="72" y="215" type="line"/>
      <point x="89" y="316" type="line"/>
      <point x="624" y="530" type="line"/>
      <point x="596" y="376" type="line"/>
    </contour>
  </outline>
</glyph>
<glyph name="equal" format="2">
  <advance width="607"/>
  <unicode hex="003D"/>
  <outline>
    <contour>
      <point x="40" y="84" type="line"/>
      <point x="63" y="215" type="line"/>
      <point x="566" y="215" type="line"/>
      <point x="542" y="84" type="line"/>
    </contour>
    <contour>
      <point x="75" y="290" type="line"/>
      <point x="98" y="421" type="line"/>
      <point x="600" y="421" type="line"/>
      <point x="578" y="290" type="line"/>
    </contour>
  </outline>
</glyph>
<glyph name="greater" format="2">
  <advance width="621"/>
  <unicode hex="003E"/>
  <outline>
    <contour>
      <point x="366" y="264" type="line"/>
      <point x="100" y="384" type="line"/>
      <point x="124" y="527" type="line"/>
      <point x="586" y="312" type="line"/>
      <point x="568" y="212" type="line"/>
      <point x="33" y="-3" type="line"/>
      <point x="60" y="152" type="line"/>
    </contour>
  </outline>
</glyph>
<glyph name="question" format="2">
  <advance width="608"/>
  <unicode hex="003F"/>
  <outline>
    <contour>
      <point x="466" y="500" type="curve" smooth="yes"/>
      <point x="475" y="556"/>
      <point x="438" y="589"/>
      <point x="376" y="590" type="curve" smooth="yes"/>
      <point x="312" y="592"/>
      <point x="251" y="553"/>
      <point x="208" y="504" type="curve"/>
      <point x="118" y="591" type="line"/>
      <point x="195" y="667"/>
      <point x="285" y="719"/>
      <point x="400" y="719" type="curve" smooth="yes"/>
      <point x="527" y="719"/>
      <point x="635" y="632"/>
      <point x="616" y="500" type="curve" smooth="yes"/>
      <point x="598" y="378"/>
      <point x="485" y="308"/>
      <point x="374" y="285" type="curve"/>
      <point x="354" y="202" type="line"/>
      <point x="231" y="202" type="line"/>
      <point x="241" y="379" type="line"/>
      <point x="271" y="379" type="line"/>
      <point x="369" y="381"/>
      <point x="452" y="434"/>
    </contour>
    <contour>
      <point x="172" y="60" type="curve" smooth="yes"/>
      <point x="172" y="105"/>
      <point x="213" y="142"/>
      <point x="265" y="142" type="curve" smooth="yes"/>
      <point x="317" y="142"/>
      <point x="358" y="105"/>
      <point x="358" y="60" type="curve" smooth="yes"/>
      <point x="358" y="14"/>
      <point x="317" y="-24"/>
      <point x="265" y="-24" type="curve" smooth="yes"/>
      <point x="213" y="-24"/>
      <point x="172" y="14"/>
    </contour>
  </outline>
</glyph>
<glyph name="at" format="2">
  <advance width="747"/>
  <unicode hex="0040"/>
  <outline>
    <contour>
      <point x="334" y="320" type="curve" smooth="yes"/>
      <point x="330" y="288"/>
      <point x="336" y="255"/>
      <point x="364" y="252" type="curve" smooth="yes"/>
      <point x="404" y="246"/>
      <point x="451" y="312"/>
      <point x="457" y="364" type="curve" smooth="yes"/>
      <point x="461" y="398"/>
      <point x="454" y="429"/>
      <point x="426" y="432" type="curve" smooth="yes"/>
      <point x="384" y="438"/>
      <point x="340" y="368"/>
    </contour>
    <contour>
      <point x="216" y="314" type="curve" smooth="yes"/>
      <point x="229" y="429"/>
      <point x="314" y="532"/>
      <point x="408" y="530" type="curve" smooth="yes"/>
      <point x="486" y="528"/>
      <point x="514" y="444"/>
      <point x="505" y="370" type="curve" smooth="yes"/>
      <point x="492" y="255"/>
      <point x="416" y="154"/>
      <point x="322" y="154" type="curve" smooth="yes"/>
      <point x="237" y="154"/>
      <point x="206" y="230"/>
    </contour>
    <contour>
      <point x="44" y="320" type="curve" smooth="yes"/>
      <point x="78" y="538"/>
      <point x="264" y="722"/>
      <point x="494" y="722" type="curve" smooth="yes"/>
      <point x="696" y="722"/>
      <point x="796" y="554"/>
      <point x="770" y="390" type="curve" smooth="yes"/>
      <point x="753" y="246"/>
      <point x="656" y="141"/>
      <point x="544" y="144" type="curve" smooth="yes"/>
      <point x="472" y="146"/>
      <point x="444" y="200"/>
      <point x="452" y="264" type="curve"/>
      <point x="444" y="296" type="line"/>
      <point x="504" y="520" type="line"/>
      <point x="618" y="520" type="line"/>
      <point x="556" y="308" type="line" smooth="yes"/>
      <point x="554" y="300"/>
      <point x="552" y="290"/>
      <point x="550" y="281" type="curve" smooth="yes"/>
      <point x="548" y="263"/>
      <point x="548" y="245"/>
      <point x="566" y="242" type="curve" smooth="yes"/>
      <point x="604" y="232"/>
      <point x="654" y="314"/>
      <point x="660" y="390" type="curve" smooth="yes"/>
      <point x="680" y="508"/>
      <point x="630" y="622"/>
      <point x="486" y="622" type="curve" smooth="yes"/>
      <point x="311" y="622"/>
      <point x="182" y="485"/>
      <point x="154" y="320" type="curve" smooth="yes"/>
      <point x="132" y="183"/>
      <point x="193" y="76"/>
      <point x="348" y="74" type="curve" smooth="yes"/>
      <point x="416" y="74"/>
      <point x="476" y="92"/>
      <point x="536" y="118" type="curve"/>
      <point x="560" y="27" type="line"/>
      <point x="494" y="-6"/>
      <point x="419" y="-26"/>
      <point x="328" y="-26" type="curve" smooth="yes"/>
      <point x="116" y="-24"/>
      <point x="16" y="132"/>
    </contour>
  </outline>
</glyph>
<glyph name="A" format="2">
  <advance width="712"/>
  <unicode hex="0041"/>
  <outline>
    <contour>
      <point x="174" y="135" type="line"/>
      <point x="207" y="264" type="line"/>
      <point x="546" y="264" type="line"/>
      <point x="535" y="135" type="line"/>
    </contour>
    <contour>
      <point x="406" y="442" type="line"/>
      <point x="274" y="216" type="line"/>
      <point x="275" y="178" type="line"/>
      <point x="161" y="0" type="line"/>
      <point x="-32" y="0" type="line"/>
      <point x="456" y="746" type="line"/>
      <point x="686" y="0" type="line"/>
      <point x="502" y="0" type="line"/>
      <point x="452" y="172" type="line"/>
      <point x="462" y="216" type="line"/>
    </contour>
  </outline>
</glyph>
<glyph name="B" format="2">
  <advance width="644"/>
  <unicode hex="0042"/>
  <outline>
    <contour>
      <point x="225" y="348" type="line"/>
      <point x="238" y="422" type="line"/>
      <point x="344" y="422" type="line" smooth="yes"/>
      <point x="396" y="422"/>
      <point x="442" y="450"/>
      <point x="450" y="498" type="curve" smooth="yes"/>
      <point x="458" y="544"/>
      <point x="428" y="568"/>
      <point x="378" y="568" type="curve" smooth="yes"/>
      <point x="308" y="569" type="line"/>
      <point x="232" y="131" type="line"/>
      <point x="310" y="131" type="line" smooth="yes"/>
      <point x="372" y="132"/>
      <point x="432" y="157"/>
      <point x="442" y="221" type="curve" smooth="yes"/>
      <point x="452" y="279"/>
      <point x="406" y="303"/>
      <point x="348" y="304" type="curve" smooth="yes"/>
      <point x="217" y="304" type="line"/>
      <point x="234" y="396" type="line"/>
      <point x="374" y="396" type="line" smooth="yes"/>
      <point x="500" y="396"/>
      <point x="630" y="334"/>
      <point x="610" y="196" type="curve" smooth="yes"/>
      <point x="590" y="56"/>
      <point x="466" y="0"/>
      <point x="316" y="0" type="curve" smooth="yes"/>
      <point x="43" y="0" type="line"/>
      <point x="163" y="700" type="line"/>
      <point x="410" y="700" type="line" smooth="yes"/>
      <point x="534" y="700"/>
      <point x="644" y="644"/>
      <point x="626" y="522" type="curve" smooth="yes"/>
      <point x="608" y="405"/>
      <point x="489" y="348"/>
      <point x="359" y="348" type="curve" smooth="yes"/>
    </contour>
  </outline>
</glyph>
<glyph name="D" format="2">
  <advance width="711"/>
  <unicode hex="0044"/>
  <outline>
    <contour>
      <point x="162" y="700" type="line"/>
      <point x="336" y="700" type="line"/>
      <point x="216" y="0" type="line"/>
      <point x="44" y="0" type="line"/>
    </contour>
    <contour>
      <point x="292" y="0" type="curve" smooth="yes"/>
      <point x="152" y="0" type="line"/>
      <point x="178" y="151" type="line"/>
      <point x="302" y="151" type="line" smooth="yes"/>
      <point x="418" y="151"/>
      <point x="518" y="218"/>
      <point x="540" y="350" type="curve" smooth="yes"/>
      <point x="560" y="478"/>
      <point x="493" y="550"/>
      <point x="380" y="550" type="curve" smooth="yes"/>
      <point x="246" y="550" type="line"/>
      <point x="272" y="700" type="line"/>
      <point x="402" y="700" type="line" smooth="yes"/>
      <point x="618" y="700"/>
      <point x="742" y="554"/>
      <point x="712" y="350" type="curve" smooth="yes"/>
      <point x="680" y="140"/>
      <point x="513" y="0"/>
    </contour>
  </outline>
</glyph>
<glyph name="E" format="2">
  <advance width="585"/>
  <unicode hex="0045"/>
  <outline>
    <contour>
      <point x="152" y="0" type="line"/>
      <point x="176" y="139" type="line"/>
      <point x="522" y="139" type="line"/>
      <point x="498" y="0" type="line"/>
    </contour>
    <contour>
      <point x="248" y="561" type="line"/>
      <point x="272" y="700" type="line"/>
      <point x="618" y="700" type="line"/>
      <point x="594" y="561" type="line"/>
    </contour>
    <contour>
      <point x="204" y="300" type="line"/>
      <point x="227" y="436" type="line"/>
      <point x="553" y="436" type="line"/>
      <point x="529" y="300" type="line"/>
    </contour>
    <contour>
      <point x="162" y="700" type="line"/>
      <point x="324" y="700" type="line"/>
      <point x="204" y="0" type="line"/>
      <point x="44" y="0" type="line"/>
    </contour>
  </outline>
</glyph>
<glyph name="F" format="2">
  <advance width="536"/>
  <unicode hex="0046"/>
  <outline>
    <contour>
      <point x="247" y="554" type="line"/>
      <point x="272" y="700" type="line"/>
      <point x="578" y="700" type="line"/>
      <point x="554" y="554" type="line"/>
    </contour>
    <contour>
      <point x="200" y="281" type="line"/>
      <point x="224" y="417" type="line"/>
      <point x="521" y="417" type="line"/>
      <point x="497" y="281" type="line"/>
    </contour>
    <contour>
      <point x="162" y="700" type="line"/>
      <point x="324" y="700" type="line"/>
      <point x="204" y="0" type="line"/>
      <point x="44" y="0" type="line"/>
    </contour>
  </outline>
</glyph>
<glyph name="G" format="2">
  <advance width="789"/>
  <unicode hex="0047"/>
  <outline>
    <contour>
      <point x="422" y="253" type="line"/>
      <point x="446" y="382" type="line"/>
      <point x="790" y="382" type="line"/>
      <point x="766" y="167"/>
      <point x="624" y="-22"/>
      <point x="382" y="-22" type="curve" smooth="yes"/>
      <point x="166" y="-22"/>
      <point x="34" y="145"/>
      <point x="64" y="350" type="curve" smooth="yes"/>
      <point x="96" y="563"/>
      <point x="280" y="716"/>
      <point x="500" y="716" type="curve" smooth="yes"/>
      <point x="634" y="716"/>
      <point x="728" y="651"/>
      <point x="786" y="549" type="curve"/>
      <point x="628" y="472" type="line"/>
      <point x="602" y="528"/>
      <point x="560" y="568"/>
      <point x="486" y="568" type="curve" smooth="yes"/>
      <point x="364" y="568"/>
      <point x="259" y="475"/>
      <point x="238" y="350" type="curve" smooth="yes"/>
      <point x="220" y="231"/>
      <point x="276" y="126"/>
      <point x="400" y="126" type="curve" smooth="yes"/>
      <point x="500" y="126"/>
      <point x="560" y="179"/>
      <point x="598" y="253" type="curve"/>
    </contour>
  </outline>
</glyph>
<glyph name="H" format="2">
  <advance width="762"/>
  <unicode hex="0048"/>
  <outline>
    <contour>
      <point x="139" y="294" type="line"/>
      <point x="165" y="445" type="line"/>
      <point x="682" y="445" type="line"/>
      <point x="656" y="294" type="line"/>
    </contour>
    <contour>
      <point x="618" y="700" type="line"/>
      <point x="786" y="700" type="line"/>
      <point x="666" y="0" type="line"/>
      <point x="500" y="0" type="line"/>
    </contour>
    <contour>
      <point x="162" y="700" type="line"/>
      <point x="330" y="700" type="line"/>
      <point x="210" y="0" type="line"/>
      <point x="44" y="0" type="line"/>
    </contour>
  </outline>
</glyph>
<glyph name="I" format="2">
  <advance width="310"/>
  <unicode hex="0049"/>
  <outline>
    <contour>
      <point x="162" y="700" type="line"/>
      <point x="333" y="700" type="line"/>
      <point x="212" y="0" type="line"/>
      <point x="44" y="0" type="line"/>
    </contour>
  </outline>
</glyph>
<glyph name="J" format="2">
  <advance width="320"/>
  <unicode hex="004A"/>
  <outline>
    <contour>
      <point x="-112" y="-64" type="line"/>
      <point x="-93" y="-82"/>
      <point x="-68" y="-96"/>
      <point x="-40" y="-96" type="curve" smooth="yes"/>
      <point x="-3" y="-95"/>
      <point x="34" y="-65"/>
      <point x="40" y="-16" type="curve" smooth="yes"/>
      <point x="163" y="700" type="line"/>
      <point x="344" y="700" type="line"/>
      <point x="215" y="-54" type="line" smooth="yes"/>
      <point x="195" y="-180"/>
      <point x="86" y="-238"/>
      <point x="-38" y="-238" type="curve" smooth="yes"/>
      <point x="-109" y="-238"/>
      <point x="-172" y="-210"/>
      <point x="-218" y="-180" type="curve"/>
    </contour>
  </outline>
</glyph>
<glyph name="L" format="2">
  <advance width="512"/>
  <unicode hex="004C"/>
  <outline>
    <contour>
      <point x="163" y="700" type="line"/>
      <point x="330" y="700" type="line"/>
      <point x="235" y="146" type="line"/>
      <point x="508" y="146" type="line"/>
      <point x="482" y="0" type="line"/>
      <point x="43" y="0" type="line"/>
    </contour>
  </outline>
</glyph>
<glyph name="M" format="2">
  <advance width="864"/>
  <unicode hex="004D"/>
  <outline>
    <contour>
      <point x="283" y="356" type="line"/>
      <point x="180" y="0" type="line"/>
      <point x="3" y="0" type="line"/>
      <point x="240" y="735" type="line"/>
      <point x="456" y="310" type="line"/>
      <point x="823" y="740" type="line"/>
      <point x="806" y="0" type="line"/>
      <point x="630" y="0" type="line"/>
      <point x="650" y="350" type="line"/>
      <point x="418" y="64" type="line"/>
    </contour>
  </outline>
</glyph>
<glyph name="N" format="2">
  <advance width="769"/>
  <unicode hex="004E"/>
  <outline>
    <contour>
      <point x="632" y="700" type="line"/>
      <point x="792" y="700" type="line"/>
      <point x="668" y="-34" type="line"/>
      <point x="272" y="394" type="line"/>
      <point x="204" y="0" type="line"/>
      <point x="43" y="0" type="line"/>
      <point x="168" y="734" type="line"/>
      <point x="564" y="306" type="line"/>
    </contour>
  </outline>
</glyph>
<glyph name="P" format="2">
  <advance width="604"/>
  <unicode hex="0050"/>
  <outline>
    <contour>
      <point x="162" y="700" type="line"/>
      <point x="330" y="700" type="line"/>
      <point x="210" y="0" type="line"/>
      <point x="44" y="0" type="line"/>
    </contour>
    <contour>
      <point x="242" y="561" type="line"/>
      <point x="266" y="700" type="line"/>
      <point x="395" y="700" type="line"/>
      <point x="553" y="699"/>
      <point x="642" y="613"/>
      <point x="626" y="471" type="curve" smooth="yes"/>
      <point x="610" y="326"/>
      <point x="489" y="243"/>
      <point x="327" y="242" type="curve"/>
      <point x="187" y="242" type="line"/>
      <point x="212" y="382" type="line"/>
      <point x="341" y="382" type="line"/>
      <point x="403" y="383"/>
      <point x="456" y="414"/>
      <point x="466" y="472" type="curve" smooth="yes"/>
      <point x="476" y="528"/>
      <point x="440" y="561"/>
      <point x="380" y="561" type="curve" smooth="yes"/>
    </contour>
  </outline>
</glyph>
<glyph name="Q" format="2">
  <advance width="837"/>
  <unicode hex="0051"/>
  <outline>
    <contour>
      <point x="240" y="350" type="curve" smooth="yes"/>
      <point x="222" y="233"/>
      <point x="282" y="129"/>
      <point x="404" y="128" type="curve" smooth="yes"/>
      <point x="524" y="127"/>
      <point x="617" y="216"/>
      <point x="637" y="331" type="curve" smooth="yes"/>
      <point x="655" y="442"/>
      <point x="605" y="558"/>
      <point x="475" y="560" type="curve" smooth="yes"/>
      <point x="355" y="561"/>
      <point x="260" y="466"/>
    </contour>
    <contour>
      <point x="64" y="350" type="curve" smooth="yes"/>
      <point x="96" y="558"/>
      <point x="279" y="716"/>
      <point x="492" y="716" type="curve" smooth="yes"/>
      <point x="703" y="716"/>
      <point x="827" y="550"/>
      <point x="798" y="350" type="curve" smooth="yes"/>
      <point x="766" y="142"/>
      <point x="594" y="-22"/>
      <point x="376" y="-22" type="curve" smooth="yes"/>
      <point x="162" y="-22"/>
      <point x="35" y="150"/>
    </contour>
    <contour>
      <point x="372" y="300" type="line"/>
      <point x="538" y="300" type="line"/>
      <point x="812" y="-12" type="line"/>
      <point x="641" y="-12" type="line"/>
    </contour>
  </outline>
</glyph>
<glyph name="R" format="2">
  <advance width="627"/>
  <unicode hex="0052"/>
  <outline>
    <contour>
      <point x="270" y="317" type="line"/>
      <point x="438" y="317" type="line"/>
      <point x="596" y="0" type="line"/>
      <point x="406" y="0" type="line"/>
    </contour>
    <contour>
      <point x="162" y="700" type="line"/>
      <point x="330" y="700" type="line"/>
      <point x="210" y="0" type="line"/>
      <point x="44" y="0" type="line"/>
    </contour>
    <contour>
      <point x="242" y="556" type="line"/>
      <point x="266" y="700" type="line"/>
      <point x="407" y="700" type="line" smooth="yes"/>
      <point x="563" y="700"/>
      <point x="657" y="609"/>
      <point x="639" y="471" type="curve" smooth="yes"/>
      <point x="621" y="331"/>
      <point x="500" y="242"/>
      <point x="338" y="242" type="curve" smooth="yes"/>
      <point x="187" y="242" type="line"/>
      <point x="210" y="374" type="line"/>
      <point x="340" y="374" type="line" smooth="yes"/>
      <point x="403" y="374"/>
      <point x="455" y="408"/>
      <point x="465" y="466" type="curve" smooth="yes"/>
      <point x="475" y="522"/>
      <point x="440" y="556"/>
      <point x="380" y="556" type="curve" smooth="yes"/>
    </contour>
  </outline>
</glyph>
<glyph name="S" format="2">
  <advance width="606"/>
  <unicode hex="0053"/>
  <outline>
    <contour>
      <point x="156" y="246" type="line"/>
      <point x="189" y="175"/>
      <point x="234" y="124"/>
      <point x="306" y="124" type="curve" smooth="yes"/>
      <point x="360" y="124"/>
      <point x="401" y="157"/>
      <point x="405" y="200" type="curve" smooth="yes"/>
      <point x="411" y="252"/>
      <point x="359" y="272"/>
      <point x="288" y="302" type="curve" smooth="yes"/>
      <point x="216" y="334"/>
      <point x="124" y="397"/>
      <point x="134" y="513" type="curve" smooth="yes"/>
      <point x="146" y="638"/>
      <point x="264" y="716"/>
      <point x="400" y="716" type="curve" smooth="yes"/>
      <point x="526" y="716"/>
      <point x="600" y="645"/>
      <point x="634" y="562" type="curve"/>
      <point x="500" y="492" type="line"/>
      <point x="476" y="538"/>
      <point x="444" y="574"/>
      <point x="386" y="574" type="curve" smooth="yes"/>
      <point x="340" y="574"/>
      <point x="306" y="550"/>
      <point x="302" y="515" type="curve" smooth="yes"/>
      <point x="295" y="465"/>
      <point x="368" y="439"/>
      <point x="434" y="413" type="curve" smooth="yes"/>
      <point x="524" y="377"/>
      <point x="589" y="311"/>
      <point x="580" y="205" type="curve" smooth="yes"/>
      <point x="566" y="65"/>
      <point x="434" y="-22"/>
      <point x="296" y="-22" type="curve" smooth="yes"/>
      <point x="168" y="-22"/>
      <point x="69" y="56"/>
      <point x="32" y="162" type="curve"/>
    </contour>
  </outline>
</glyph>
<glyph name="T" format="2">
  <advance width="544"/>
  <unicode hex="0054"/>
  <outline>
    <contour>
      <point x="68" y="548" type="line"/>
      <point x="95" y="700" type="line"/>
      <point x="636" y="700" type="line"/>
      <point x="609" y="548" type="line"/>
      <point x="423" y="548" type="line"/>
      <point x="329" y="0" type="line"/>
      <point x="162" y="0" type="line"/>
      <point x="256" y="548" type="line"/>
    </contour>
  </outline>
</glyph>
<glyph name="U" format="2">
  <advance width="680"/>
  <unicode hex="0055"/>
  <outline>
    <contour>
      <point x="158" y="700" type="line"/>
      <point x="325" y="700" type="line"/>
      <point x="245" y="242" type="line" smooth="yes"/>
      <point x="237" y="180"/>
      <point x="258" y="125"/>
      <point x="330" y="124" type="curve" smooth="yes"/>
      <point x="406" y="123"/>
      <point x="450" y="176"/>
      <point x="462" y="242" type="curve"/>
      <point x="541" y="700" type="line"/>
      <point x="708" y="700" type="line"/>
      <point x="628" y="230" type="line" smooth="yes"/>
      <point x="602" y="68"/>
      <point x="479" y="-28"/>
      <point x="313" y="-28" type="curve" smooth="yes"/>
      <point x="157" y="-28"/>
      <point x="56" y="70"/>
      <point x="78" y="230" type="curve"/>
    </contour>
  </outline>
</glyph>
<glyph name="V" format="2">
  <advance width="712"/>
  <unicode hex="0056"/>
  <outline>
    <contour>
      <point x="382" y="286" type="line"/>
      <point x="610" y="700" type="line"/>
      <point x="808" y="700" type="line"/>
      <point x="334" y="-46" type="line"/>
      <point x="90" y="700" type="line"/>
      <point x="281" y="700" type="line"/>
    </contour>
  </outline>
</glyph>
<glyph name="W" format="2">
  <advance width="1033"/>
  <unicode hex="0057"/>
  <outline>
    <contour>
      <point x="730" y="296" type="line"/>
      <point x="923" y="700" type="line"/>
      <point x="1124" y="700" type="line"/>
      <point x="714" y="-43" type="line"/>
      <point x="560" y="378" type="line"/>
      <point x="274" y="-44" type="line"/>
      <point x="95" y="700" type="line"/>
      <point x="290" y="700" type="line"/>
      <point x="355" y="298" type="line"/>
      <point x="612" y="738" type="line"/>
    </contour>
  </outline>
</glyph>
<glyph name="X" format="2">
  <advance width="665"/>
  <unicode hex="0058"/>
  <outline>
    <contour>
      <point x="532" y="700" type="line"/>
      <point x="742" y="700" type="line"/>
      <point x="472" y="356" type="line"/>
      <point x="644" y="0" type="line"/>
      <point x="443" y="0" type="line"/>
      <point x="356" y="230" type="line"/>
      <point x="192" y="0" type="line"/>
      <point x="-17" y="0" type="line"/>
      <point x="276" y="362" type="line"/>
      <point x="120" y="700" type="line"/>
      <point x="321" y="700" type="line"/>
      <point x="394" y="500" type="line"/>
    </contour>
  </outline>
</glyph>
<glyph name="Y" format="2">
  <advance width="640"/>
  <unicode hex="0059"/>
  <outline>
    <contour>
      <point x="542" y="700" type="line"/>
      <point x="738" y="700" type="line"/>
      <point x="426" y="281" type="line"/>
      <point x="378" y="0" type="line"/>
      <point x="208" y="0" type="line"/>
      <point x="259" y="288" type="line"/>
      <point x="92" y="700" type="line"/>
      <point x="280" y="700" type="line"/>
      <point x="366" y="440" type="line"/>
    </contour>
  </outline>
</glyph>
<glyph name="Z" format="2">
  <advance width="601"/>
  <unicode hex="005A"/>
  <outline>
    <contour>
      <point x="120" y="548" type="line"/>
      <point x="146" y="700" type="line"/>
      <point x="684" y="700" type="line"/>
      <point x="269" y="146" type="line"/>
      <point x="554" y="146" type="line"/>
      <point x="528" y="0" type="line"/>
      <point x="-22" y="0" type="line"/>
      <point x="388" y="548" type="line"/>
    </contour>
  </outline>
</glyph>
<glyph name="bracketleft" format="2">
  <advance width="351"/>
  <unicode hex="005B"/>
  <outline>
    <contour>
      <point x="319" y="649" type="line"/>
      <point x="205" y="-89" type="line"/>
      <point x="303" y="-89" type="line"/>
      <point x="282" y="-220" type="line"/>
      <point x="36" y="-220" type="line"/>
      <point x="190" y="780" type="line"/>
      <point x="436" y="780" type="line"/>
      <point x="416" y="649" type="line"/>
    </contour>
  </outline>
</glyph>
<glyph name="backslash" format="2">
  <advance width="529"/>
  <unicode hex="005C"/>
  <outline>
    <contour>
      <point x="108" y="700" type="line"/>
      <point x="249" y="700" type="line"/>
      <point x="487" y="0" type="line"/>
      <point x="346" y="0" type="line"/>
    </contour>
  </outline>
</glyph>
<glyph name="bracketright" format="2">
  <advance width="351"/>
  <unicode hex="005D"/>
  <outline>
    <contour>
      <point x="86" y="-89" type="line"/>
      <point x="199" y="649" type="line"/>
      <point x="100" y="649" type="line"/>
      <point x="122" y="780" type="line"/>
      <point x="368" y="780" type="line"/>
      <point x="214" y="-220" type="line"/>
      <point x="-34" y="-220" type="line"/>
      <point x="-13" y="-89" type="line"/>
    </contour>
  </outline>
</glyph>
<glyph name="asciicircum" format="2">
  <advance width="494"/>
  <unicode hex="005E"/>
  <outline>
    <contour>
      <point x="322" y="578" type="line"/>
      <point x="223" y="448" type="line"/>
      <point x="84" y="448" type="line"/>
      <point x="294" y="710" type="line"/>
      <point x="384" y="710" type="line"/>
      <point x="504" y="448" type="line"/>
      <point x="374" y="448" type="line"/>
    </contour>
  </outline>
</glyph>
<glyph name="underscore" format="2">
  <advance width="515"/>
  <unicode hex="005F"/>
  <outline>
    <contour>
      <point x="-54" y="-154" type="line"/>
      <point x="-38" y="-58" type="line"/>
      <point x="480" y="-58" type="line"/>
      <point x="464" y="-154" type="line"/>
    </contour>
  </outline>
</glyph>
<glyph name="grave" format="2">
  <advance width="363"/>
  <unicode hex="0060"/>
  <outline>
    <contour>
      <point x="135" y="656" type="line"/>
      <point x="252" y="706" type="line"/>
      <point x="376" y="544" type="line"/>
      <point x="290" y="504" type="line"/>
    </contour>
  </outline>
</glyph>
<glyph name="a" format="2">
  <advance width="597"/>
  <unicode hex="0061"/>
  <outline>
    <contour>
      <point x="447" y="460" type="line"/>
      <point x="596" y="460" type="line"/>
      <point x="516" y="0" type="line"/>
      <point x="368" y="0" type="line"/>
    </contour>
    <contour>
      <point x="42" y="230" type="curve" smooth="yes"/>
      <point x="60" y="367"/>
      <point x="169" y="470"/>
      <point x="291" y="470" type="curve" smooth="yes"/>
      <point x="415" y="470"/>
      <point x="465" y="355"/>
      <point x="449" y="230" type="curve" smooth="yes"/>
      <point x="431" y="98"/>
      <point x="341" y="-10"/>
      <point x="219" y="-10" type="curve" smooth="yes"/>
      <point x="97" y="-10"/>
      <point x="25" y="98"/>
    </contour>
    <contour>
      <point x="198" y="230" type="curve" smooth="yes"/>
      <point x="189" y="170"/>
      <point x="218" y="113"/>
      <point x="280" y="112" type="curve" smooth="yes"/>
      <point x="338" y="111"/>
      <point x="396" y="165"/>
      <point x="406" y="230" type="curve" smooth="yes"/>
      <point x="414" y="291"/>
      <point x="384" y="346"/>
      <point x="328" y="348" type="curve" smooth="yes"/>
      <point x="266" y="350"/>
      <point x="208" y="294"/>
    </contour>
  </outline>
</glyph>
<glyph name="c" format="2">
  <advance width="473"/>
  <unicode hex="0063"/>
  <outline>
    <contour>
      <point x="195" y="230" type="curve" smooth="yes"/>
      <point x="185" y="164"/>
      <point x="226" y="114"/>
      <point x="292" y="112" type="curve" smooth="yes"/>
      <point x="348" y="110"/>
      <point x="401" y="140"/>
      <point x="436" y="178" type="curve"/>
      <point x="416" y="32" type="line"/>
      <point x="377" y="6"/>
      <point x="329" y="-10"/>
      <point x="268" y="-10" type="curve" smooth="yes"/>
      <point x="123" y="-10"/>
      <point x="24" y="91"/>
      <point x="42" y="230" type="curve" smooth="yes"/>
      <point x="61" y="372"/>
      <point x="186" y="470"/>
      <point x="334" y="470" type="curve" smooth="yes"/>
      <point x="394" y="470"/>
      <point x="439" y="454"/>
      <point x="475" y="430" type="curve"/>
      <point x="455" y="282" type="line"/>
      <point x="431" y="324"/>
      <point x="385" y="349"/>
      <point x="336" y="349" type="curve" smooth="yes"/>
      <point x="265" y="349"/>
      <point x="206" y="296"/>
    </contour>
  </outline>
</glyph>
<glyph name="e" format="2">
  <advance width="556"/>
  <unicode hex="0065"/>
  <outline>
    <contour>
      <point x="276" y="-10" type="curve" smooth="yes"/>
      <point x="136" y="-10"/>
      <point x="44" y="70"/>
      <point x="44" y="200" type="curve" smooth="yes"/>
      <point x="44" y="352"/>
      <point x="163" y="470"/>
      <point x="334" y="470" type="curve" smooth="yes"/>
      <point x="473" y="470"/>
      <point x="548" y="393"/>
      <point x="548" y="266" type="curve" smooth="yes"/>
      <point x="548" y="244"/>
      <point x="544" y="218"/>
      <point x="538" y="198" type="curve"/>
      <point x="121" y="198" type="line"/>
      <point x="121" y="282" type="line"/>
      <point x="418" y="282" type="line"/>
      <point x="382" y="236" type="line"/>
      <point x="389" y="250"/>
      <point x="396" y="264"/>
      <point x="396" y="278" type="curve" smooth="yes"/>
      <point x="396" y="334"/>
      <point x="372" y="369"/>
      <point x="320" y="369" type="curve" smooth="yes"/>
      <point x="248" y="369"/>
      <point x="208" y="312"/>
      <point x="196" y="220" type="curve" smooth="yes"/>
      <point x="186" y="148"/>
      <point x="216" y="99"/>
      <point x="282" y="99" type="curve" smooth="yes"/>
      <point x="332" y="99"/>
      <point x="370" y="122"/>
      <point x="396" y="159" type="curve"/>
      <point x="527" y="126" type="line"/>
      <point x="478" y="38"/>
      <point x="393" y="-10"/>
    </contour>
  </outline>
</glyph>
<glyph name="f" format="2">
  <advance width="333"/>
  <unicode hex="0066"/>
  <outline>
    <contour>
      <point x="68" y="460" type="line"/>
      <point x="376" y="460" type="line"/>
      <point x="354" y="335" type="line"/>
      <point x="46" y="335" type="line"/>
    </contour>
    <contour>
      <point x="392" y="636" type="line"/>
      <point x="382" y="650"/>
      <point x="369" y="660"/>
      <point x="351" y="660" type="curve" smooth="yes"/>
      <point x="319" y="660"/>
      <point x="296" y="630"/>
      <point x="291" y="592" type="curve" smooth="yes"/>
      <point x="188" y="0" type="line"/>
      <point x="45" y="0" type="line"/>
      <point x="152" y="630" type="line" smooth="yes"/>
      <point x="169" y="728"/>
      <point x="237" y="797"/>
      <point x="346" y="796" type="curve" smooth="yes"/>
      <point x="404" y="796"/>
      <point x="439" y="770"/>
      <point x="466" y="744" type="curve"/>
    </contour>
  </outline>
</glyph>
<glyph name="g" format="2">
  <advance width="592"/>
  <unicode hex="0067"/>
  <outline>
    <contour>
      <point x="6" y="-32" type="curve"/>
      <point x="148" y="-34" type="line"/>
      <point x="150" y="-86"/>
      <point x="176" y="-117"/>
      <point x="232" y="-117" type="curve" smooth="yes"/>
      <point x="301" y="-118"/>
      <point x="357" y="-64"/>
      <point x="368" y="10" type="curve" smooth="yes"/>
      <point x="446" y="460" type="line"/>
      <point x="590" y="460" type="line"/>
      <point x="513" y="10" type="line" smooth="yes"/>
      <point x="489" y="-148"/>
      <point x="378" y="-238"/>
      <point x="230" y="-238" type="curve" smooth="yes"/>
      <point x="78" y="-238"/>
      <point x="4" y="-158"/>
    </contour>
    <contour>
      <point x="43" y="236" type="curve" smooth="yes"/>
      <point x="61" y="373"/>
      <point x="169" y="470"/>
      <point x="291" y="470" type="curve" smooth="yes"/>
      <point x="414" y="470"/>
      <point x="466" y="362"/>
      <point x="450" y="236" type="curve" smooth="yes"/>
      <point x="432" y="104"/>
      <point x="343" y="2"/>
      <point x="221" y="2" type="curve" smooth="yes"/>
      <point x="99" y="2"/>
      <point x="26" y="104"/>
    </contour>
    <contour>
      <point x="198" y="236" type="curve" smooth="yes"/>
      <point x="189" y="175"/>
      <point x="222" y="125"/>
      <point x="282" y="124" type="curve" smooth="yes"/>
      <point x="338" y="123"/>
      <point x="398" y="172"/>
      <point x="408" y="237" type="curve" smooth="yes"/>
      <point x="416" y="299"/>
      <point x="383" y="347"/>
      <point x="328" y="348" type="curve" smooth="yes"/>
      <point x="263" y="349"/>
      <point x="208" y="300"/>
    </contour>
  </outline>
</glyph>
<glyph name="h" format="2">
  <advance width="551"/>
  <unicode hex="0068"/>
  <outline>
    <contour>
      <point x="313" y="780" type="line"/>
      <point x="178" y="0" type="line"/>
      <point x="28" y="0" type="line"/>
      <point x="162" y="780" type="line"/>
    </contour>
    <contour>
      <point x="368" y="280" type="line" smooth="yes"/>
      <point x="374" y="323"/>
      <point x="368" y="361"/>
      <point x="321" y="364" type="curve" smooth="yes"/>
      <point x="273" y="367"/>
      <point x="237" y="324"/>
      <point x="226" y="280" type="curve"/>
      <point x="200" y="281" type="line"/>
      <point x="218" y="383"/>
      <point x="276" y="476"/>
      <point x="390" y="476" type="curve" smooth="yes"/>
      <point x="501" y="476"/>
      <point x="534" y="402"/>
      <point x="520" y="302" type="curve"/>
      <point x="468" y="0" type="line"/>
      <point x="319" y="0" type="line"/>
    </contour>
  </outline>
</glyph>
<glyph name="i" format="2">
  <advance width="267"/>
  <unicode hex="0069"/>
  <outline>
    <contour>
      <point x="127" y="632" type="curve" smooth="yes"/>
      <point x="127" y="680"/>
      <point x="166" y="714"/>
      <point x="215" y="714" type="curve" smooth="yes"/>
      <point x="264" y="714"/>
      <point x="303" y="680"/>
      <point x="303" y="632" type="curve" smooth="yes"/>
      <point x="303" y="584"/>
      <point x="264" y="550"/>
      <point x="215" y="550" type="curve" smooth="yes"/>
      <point x="166" y="550"/>
      <point x="127" y="584"/>
    </contour>
    <contour>
      <point x="112" y="460" type="line"/>
      <point x="258" y="460" type="line"/>
      <point x="180" y="0" type="line"/>
      <point x="34" y="0" type="line"/>
    </contour>
  </outline>
</glyph>
<glyph name="j" format="2">
  <advance width="263"/>
  <unicode hex="006A"/>
  <outline>
    <contour>
      <point x="122" y="632" type="curve" smooth="yes"/>
      <point x="122" y="680"/>
      <point x="161" y="714"/>
      <point x="210" y="714" type="curve" smooth="yes"/>
      <point x="259" y="714"/>
      <point x="298" y="680"/>
      <point x="298" y="632" type="curve" smooth="yes"/>
      <point x="298" y="584"/>
      <point x="259" y="550"/>
      <point x="210" y="550" type="curve" smooth="yes"/>
      <point x="161" y="550"/>
      <point x="122" y="584"/>
    </contour>
    <contour>
      <point x="-76" y="-78" type="line"/>
      <point x="-66" y="-92"/>
      <point x="-51" y="-103"/>
      <point x="-33" y="-103" type="curve" smooth="yes"/>
      <point x="0" y="-104"/>
      <point x="20" y="-70"/>
      <point x="24" y="-34" type="curve" smooth="yes"/>
      <point x="110" y="460" type="line"/>
      <point x="254" y="460" type="line"/>
      <point x="164" y="-73" type="line" smooth="yes"/>
      <point x="147" y="-169"/>
      <point x="80" y="-239"/>
      <point x="-29" y="-238" type="curve" smooth="yes"/>
      <point x="-86" y="-238"/>
      <point x="-123" y="-214"/>
      <point x="-151" y="-186" type="curve"/>
    </contour>
  </outline>
</glyph>
<glyph name="k" format="2">
  <advance width="559"/>
  <unicode hex="006B"/>
  <outline>
    <contour>
      <point x="160" y="780" type="line"/>
      <point x="305" y="780" type="line"/>
      <point x="171" y="0" type="line"/>
      <point x="28" y="0" type="line"/>
    </contour>
    <contour>
      <point x="407" y="460" type="line"/>
      <point x="591" y="460" type="line"/>
      <point x="361" y="265" type="line"/>
      <point x="525" y="0" type="line"/>
      <point x="356" y="0" type="line"/>
      <point x="188" y="274" type="line"/>
    </contour>
  </outline>
</glyph>
<glyph name="l" format="2">
  <advance width="262"/>
  <unicode hex="006C"/>
  <outline>
    <contour>
      <point x="162" y="780" type="line"/>
      <point x="313" y="780" type="line"/>
      <point x="178" y="0" type="line"/>
      <point x="30" y="0" type="line"/>
    </contour>
  </outline>
</glyph>
<glyph name="m" format="2">
  <advance width="795"/>
  <unicode hex="006D"/>
  <outline>
    <contour>
      <point x="763" y="296" type="curve" smooth="yes"/>
      <point x="712" y="0" type="line"/>
      <point x="562" y="0" type="line"/>
      <point x="612" y="280" type="line" smooth="yes"/>
      <point x="616" y="321"/>
      <point x="615" y="363"/>
      <point x="573" y="363" type="curve" smooth="yes"/>
      <point x="531" y="363"/>
      <point x="498" y="331"/>
      <point x="490" y="281" type="curve" smooth="yes"/>
      <point x="442" y="0" type="line"/>
      <point x="292" y="0" type="line"/>
      <point x="342" y="280" type="line" smooth="yes"/>
      <point x="346" y="322"/>
      <point x="346" y="363"/>
      <point x="304" y="363" type="curve" smooth="yes"/>
      <point x="263" y="363"/>
      <point x="229" y="333"/>
      <point x="222" y="284" type="curve" smooth="yes"/>
      <point x="173" y="0" type="line"/>
      <point x="28" y="0" type="line"/>
      <point x="108" y="460" type="line"/>
      <point x="252" y="460" type="line"/>
      <point x="242" y="397" type="line"/>
      <point x="272" y="442"/>
      <point x="317" y="470"/>
      <point x="377" y="470" type="curve" smooth="yes"/>
      <point x="447" y="470"/>
      <point x="481" y="440"/>
      <point x="492" y="392" type="curve"/>
      <point x="529" y="440"/>
      <point x="583" y="470"/>
      <point x="647" y="470" type="curve" smooth="yes"/>
      <point x="753" y="470"/>
      <point x="775" y="392"/>
    </contour>
  </outline>
</glyph>
<glyph name="n" format="2">
  <advance width="557"/>
  <unicode hex="006E"/>
  <outline>
    <contour>
      <point x="368" y="280" type="line" smooth="yes"/>
      <point x="374" y="322"/>
      <point x="368" y="364"/>
      <point x="318" y="364" type="curve" smooth="yes"/>
      <point x="270" y="364"/>
      <point x="236" y="331"/>
      <point x="228" y="282" type="curve" smooth="yes"/>
      <point x="178" y="0" type="line"/>
      <point x="28" y="0" type="line"/>
      <point x="108" y="460" type="line"/>
      <point x="258" y="460" type="line"/>
      <point x="248" y="396" type="line"/>
      <point x="280" y="442"/>
      <point x="326" y="470"/>
      <point x="390" y="470" type="curve" smooth="yes"/>
      <point x="500" y="470"/>
      <point x="539" y="395"/>
      <point x="524" y="296" type="curve" smooth="yes"/>
      <point x="474" y="0" type="line"/>
      <point x="319" y="0" type="line"/>
    </contour>
  </outline>
</glyph>
<glyph name="o" format="2">
  <advance width="571"/>
  <unicode hex="006F"/>
  <outline>
    <contour>
      <point x="48" y="230" type="curve" smooth="yes"/>
      <point x="66" y="371"/>
      <point x="191" y="470"/>
      <point x="337" y="470" type="curve" smooth="yes"/>
      <point x="481" y="470"/>
      <point x="579" y="368"/>
      <point x="561" y="230" type="curve" smooth="yes"/>
      <point x="543" y="89"/>
      <point x="418" y="-10"/>
      <point x="272" y="-10" type="curve" smooth="yes"/>
      <point x="129" y="-10"/>
      <point x="30" y="92"/>
    </contour>
    <contour>
      <point x="201" y="230" type="curve" smooth="yes"/>
      <point x="193" y="170"/>
      <point x="223" y="117"/>
      <point x="283" y="116" type="curve" smooth="yes"/>
      <point x="344" y="115"/>
      <point x="398" y="166"/>
      <point x="408" y="230" type="curve" smooth="yes"/>
      <point x="416" y="290"/>
      <point x="386" y="345"/>
      <point x="326" y="346" type="curve" smooth="yes"/>
      <point x="265" y="347"/>
      <point x="211" y="294"/>
    </contour>
  </outline>
</glyph>
<glyph name="p" format="2">
  <advance width="597"/>
  <unicode hex="0070"/>
  <outline>
    <contour>
      <point x="140" y="-220" type="line"/>
      <point x="-10" y="-220" type="line"/>
      <point x="106" y="460" type="line"/>
      <point x="256" y="460" type="line"/>
    </contour>
    <contour>
      <point x="581" y="230" type="curve" smooth="yes"/>
      <point x="563" y="89"/>
      <point x="454" y="-16"/>
      <point x="330" y="-16" type="curve" smooth="yes"/>
      <point x="202" y="-16"/>
      <point x="164" y="106"/>
      <point x="180" y="230" type="curve" smooth="yes"/>
      <point x="198" y="362"/>
      <point x="278" y="476"/>
      <point x="404" y="476" type="curve" smooth="yes"/>
      <point x="528" y="476"/>
      <point x="598" y="365"/>
    </contour>
    <contour>
      <point x="426" y="230" type="curve" smooth="yes"/>
      <point x="435" y="291"/>
      <point x="402" y="341"/>
      <point x="342" y="342" type="curve" smooth="yes"/>
      <point x="286" y="343"/>
      <point x="226" y="295"/>
      <point x="216" y="230" type="curve" smooth="yes"/>
      <point x="208" y="168"/>
      <point x="241" y="120"/>
      <point x="296" y="118" type="curve" smooth="yes"/>
      <point x="358" y="116"/>
      <point x="416" y="166"/>
    </contour>
  </outline>
</glyph>
<glyph name="q" format="2">
  <advance width="597"/>
  <unicode hex="0071"/>
  <outline>
    <contour>
      <point x="329" y="-220" type="line"/>
      <point x="446" y="460" type="line"/>
      <point x="596" y="460" type="line"/>
      <point x="479" y="-220" type="line"/>
    </contour>
    <contour>
      <point x="42" y="230" type="curve" smooth="yes"/>
      <point x="60" y="371"/>
      <point x="168" y="476"/>
      <point x="292" y="476" type="curve" smooth="yes"/>
      <point x="420" y="476"/>
      <point x="459" y="354"/>
      <point x="443" y="230" type="curve" smooth="yes"/>
      <point x="425" y="98"/>
      <point x="344" y="-16"/>
      <point x="218" y="-16" type="curve" smooth="yes"/>
      <point x="94" y="-16"/>
      <point x="25" y="95"/>
    </contour>
    <contour>
      <point x="198" y="230" type="curve" smooth="yes"/>
      <point x="189" y="169"/>
      <point x="222" y="119"/>
      <point x="282" y="118" type="curve" smooth="yes"/>
      <point x="338" y="117"/>
      <point x="396" y="165"/>
      <point x="406" y="230" type="curve" smooth="yes"/>
      <point x="414" y="292"/>
      <point x="382" y="340"/>
      <point x="327" y="342" type="curve" smooth="yes"/>
      <point x="265" y="344"/>
      <point x="208" y="294"/>
    </contour>
  </outline>
</glyph>
<glyph name="r" format="2">
  <advance width="402"/>
  <unicode hex="0072"/>
  <outline>
    <contour>
      <point x="255" y="460" type="line"/>
      <point x="176" y="0" type="line"/>
      <point x="28" y="0" type="line"/>
      <point x="108" y="460" type="line"/>
    </contour>
    <contour>
      <point x="362" y="304" type="line"/>
      <point x="348" y="318"/>
      <point x="333" y="329"/>
      <point x="310" y="329" type="curve" smooth="yes"/>
      <point x="260" y="330"/>
      <point x="222" y="281"/>
      <point x="214" y="227" type="curve"/>
      <point x="192" y="281" type="line"/>
      <point x="209" y="375"/>
      <point x="287" y="471"/>
      <point x="367" y="471" type="curve" smooth="yes"/>
      <point x="400" y="471"/>
      <point x="428" y="454"/>
      <point x="446" y="431" type="curve"/>
    </contour>
  </outline>
</glyph>
<glyph name="s" format="2">
  <advance width="442"/>
  <unicode hex="0073"/>
  <outline>
    <contour>
      <point x="88" y="166" type="line"/>
      <point x="140" y="118"/>
      <point x="186" y="90"/>
      <point x="230" y="92" type="curve" smooth="yes"/>
      <point x="257" y="92"/>
      <point x="278" y="109"/>
      <point x="279" y="131" type="curve" smooth="yes"/>
      <point x="281" y="163"/>
      <point x="245" y="179"/>
      <point x="196" y="196" type="curve" smooth="yes"/>
      <point x="136" y="218"/>
      <point x="80" y="258"/>
      <point x="86" y="337" type="curve" smooth="yes"/>
      <point x="94" y="425"/>
      <point x="174" y="470"/>
      <point x="265" y="470" type="curve" smooth="yes"/>
      <point x="341" y="470"/>
      <point x="402" y="439"/>
      <point x="453" y="401" type="curve"/>
      <point x="391" y="304" type="line"/>
      <point x="357" y="338"/>
      <point x="312" y="367"/>
      <point x="270" y="367" type="curve" smooth="yes"/>
      <point x="243" y="367"/>
      <point x="224" y="353"/>
      <point x="222" y="335" type="curve" smooth="yes"/>
      <point x="218" y="302"/>
      <point x="264" y="291"/>
      <point x="312" y="272" type="curve" smooth="yes"/>
      <point x="378" y="246"/>
      <point x="431" y="211"/>
      <point x="426" y="132" type="curve" smooth="yes"/>
      <point x="418" y="37"/>
      <point x="346" y="-19"/>
      <point x="243" y="-19" type="curve" smooth="yes"/>
      <point x="148" y="-19"/>
      <point x="73" y="20"/>
      <point x="14" y="68" type="curve"/>
    </contour>
  </outline>
</glyph>
<glyph name="t" format="2">
  <advance width="308"/>
  <unicode hex="0074"/>
  <outline>
    <contour>
      <point x="56" y="460" type="line"/>
      <point x="358" y="460" type="line"/>
      <point x="336" y="335" type="line"/>
      <point x="34" y="335" type="line"/>
    </contour>
    <contour>
      <point x="161" y="620" type="line"/>
      <point x="306" y="620" type="line"/>
      <point x="198" y="0" type="line"/>
      <point x="55" y="0" type="line"/>
    </contour>
  </outline>
</glyph>
<glyph name="u" format="2">
  <advance width="557"/>
  <unicode hex="0075"/>
  <outline>
    <contour>
      <point x="214" y="180" type="line" smooth="yes"/>
      <point x="208" y="138"/>
      <point x="214" y="96"/>
      <point x="261" y="96" type="curve" smooth="yes"/>
      <point x="309" y="96"/>
      <point x="346" y="125"/>
      <point x="354" y="177" type="curve" smooth="yes"/>
      <point x="404" y="460" type="line"/>
      <point x="554" y="460" type="line"/>
      <point x="474" y="0" type="line"/>
      <point x="324" y="0" type="line"/>
      <point x="334" y="64" type="line"/>
      <point x="302" y="18"/>
      <point x="256" y="-10"/>
      <point x="192" y="-10" type="curve" smooth="yes"/>
      <point x="82" y="-10"/>
      <point x="44" y="65"/>
      <point x="58" y="164" type="curve"/>
      <point x="108" y="460" type="line"/>
      <point x="264" y="460" type="line"/>
    </contour>
  </outline>
</glyph>
<glyph name="v" format="2">
  <advance width="511"/>
  <unicode hex="0076"/>
  <outline>
    <contour>
      <point x="52" y="460" type="line"/>
      <point x="209" y="460" type="line"/>
      <point x="270" y="208" type="line"/>
      <point x="410" y="460" type="line"/>
      <point x="572" y="460" type="line"/>
      <point x="232" y="-56" type="line"/>
    </contour>
  </outline>
</glyph>
<glyph name="w" format="2">
  <advance width="738"/>
  <unicode hex="0077"/>
  <outline>
    <contour>
      <point x="45" y="460" type="line"/>
      <point x="198" y="460" type="line"/>
      <point x="250" y="228" type="line"/>
      <point x="424" y="498" type="line"/>
      <point x="508" y="226" type="line"/>
      <point x="641" y="460" type="line"/>
      <point x="802" y="460" type="line"/>
      <point x="484" y="-31" type="line"/>
      <point x="385" y="242" type="line"/>
      <point x="192" y="-31" type="line"/>
    </contour>
  </outline>
</glyph>
<glyph name="x" format="2">
  <advance width="516"/>
  <unicode hex="0078"/>
  <outline>
    <contour>
      <point x="394" y="460" type="line"/>
      <point x="564" y="460" type="line"/>
      <point x="355" y="232" type="line"/>
      <point x="498" y="0" type="line"/>
      <point x="338" y="0" type="line"/>
      <point x="264" y="136" type="line"/>
      <point x="155" y="0" type="line"/>
      <point x="-21" y="0" type="line"/>
      <point x="200" y="244" type="line"/>
      <point x="65" y="460" type="line"/>
      <point x="230" y="460" type="line"/>
      <point x="294" y="340" type="line"/>
    </contour>
  </outline>
</glyph>
<glyph name="y" format="2">
  <advance width="505"/>
  <unicode hex="0079"/>
  <outline>
    <contour>
      <point x="570" y="460" type="line"/>
      <point x="162" y="-220" type="line"/>
      <point x="8" y="-220" type="line"/>
      <point x="164" y="42" type="line"/>
      <point x="44" y="460" type="line"/>
      <point x="202" y="460" type="line"/>
      <point x="284" y="91" type="line"/>
      <point x="207" y="92" type="line"/>
      <point x="413" y="460" type="line"/>
    </contour>
  </outline>
</glyph>
<glyph name="z" format="2">
  <advance width="506"/>
  <unicode hex="007A"/>
  <outline>
    <contour>
      <point x="272" y="322" type="line"/>
      <point x="82" y="322" type="line"/>
      <point x="106" y="460" type="line"/>
      <point x="548" y="460" type="line"/>
      <point x="270" y="138" type="line"/>
      <point x="459" y="138" type="line"/>
      <point x="435" y="0" type="line"/>
      <point x="-16" y="0" type="line"/>
    </contour>
  </outline>
</glyph>
<glyph name="braceleft" format="2">
  <advance width="386"/>
  <unicode hex="007B"/>
  <outline>
    <contour>
      <point x="336" y="610" type="curve" smooth="yes"/>
      <point x="318" y="490" type="line" smooth="yes"/>
      <point x="300" y="390"/>
      <point x="274" y="290"/>
      <point x="144" y="280" type="curve"/>
      <point x="146" y="300" type="line"/>
      <point x="272" y="288"/>
      <point x="269" y="182"/>
      <point x="255" y="90" type="curve" smooth="yes"/>
      <point x="236" y="-30" type="line" smooth="yes"/>
      <point x="232" y="-57"/>
      <point x="244" y="-80"/>
      <point x="274" y="-80" type="curve" smooth="yes"/>
      <point x="309" y="-80" type="line"/>
      <point x="291" y="-200" type="line"/>
      <point x="206" y="-200" type="line" smooth="yes"/>
      <point x="125" y="-199"/>
      <point x="56" y="-150"/>
      <point x="68" y="-60" type="curve" smooth="yes"/>
      <point x="97" y="125" type="line" smooth="yes"/>
      <point x="104" y="187"/>
      <point x="97" y="215"/>
      <point x="55" y="235" type="curve"/>
      <point x="70" y="344" type="line"/>
      <point x="116" y="361"/>
      <point x="137" y="392"/>
      <point x="146" y="456" type="curve" smooth="yes"/>
      <point x="174" y="640" type="line" smooth="yes"/>
      <point x="188" y="732"/>
      <point x="264" y="779"/>
      <point x="348" y="780" type="curve"/>
      <point x="442" y="780" type="line"/>
      <point x="424" y="660" type="line"/>
      <point x="392" y="660" type="line" smooth="yes"/>
      <point x="362" y="660"/>
      <point x="340" y="638"/>
    </contour>
  </outline>
</glyph>
<glyph name="bar" format="2">
  <advance width="341"/>
  <unicode hex="007C"/>
  <outline>
    <contour>
      <point x="200" y="785" type="line"/>
      <point x="350" y="785" type="line"/>
      <point x="196" y="-215" type="line"/>
      <point x="46" y="-215" type="line"/>
    </contour>
  </outline>
</glyph>
<glyph name="braceright" format="2">
  <advance width="386"/>
  <unicode hex="007D"/>
  <outline>
    <contour>
      <point x="108" y="-30" type="curve" smooth="yes"/>
      <point x="127" y="90" type="line" smooth="yes"/>
      <point x="145" y="190"/>
      <point x="172" y="290"/>
      <point x="302" y="300" type="curve"/>
      <point x="300" y="280" type="line"/>
      <point x="174" y="292"/>
      <point x="176" y="398"/>
      <point x="190" y="490" type="curve" smooth="yes"/>
      <point x="209" y="610" type="line" smooth="yes"/>
      <point x="213" y="636"/>
      <point x="201" y="660"/>
      <point x="172" y="660" type="curve" smooth="yes"/>
      <point x="136" y="660" type="line"/>
      <point x="154" y="780" type="line"/>
      <point x="240" y="780" type="line" smooth="yes"/>
      <point x="321" y="779"/>
      <point x="388" y="730"/>
      <point x="376" y="640" type="curve" smooth="yes"/>
      <point x="348" y="455" type="line" smooth="yes"/>
      <point x="341" y="393"/>
      <point x="348" y="365"/>
      <point x="390" y="345" type="curve"/>
      <point x="374" y="236" type="line"/>
      <point x="328" y="219"/>
      <point x="308" y="188"/>
      <point x="299" y="124" type="curve" smooth="yes"/>
      <point x="271" y="-60" type="line" smooth="yes"/>
      <point x="258" y="-152"/>
      <point x="180" y="-199"/>
      <point x="96" y="-200" type="curve"/>
      <point x="2" y="-200" type="line"/>
      <point x="20" y="-80" type="line"/>
      <point x="53" y="-80" type="line" smooth="yes"/>
      <point x="83" y="-80"/>
      <point x="104" y="-58"/>
    </contour>
  </outline>
</glyph>
<glyph name="asciitilde" format="2">
  <advance width="558"/>
  <unicode hex="007E"/>
  <outline>
    <contour>
      <point x="162" y="163" type="curve"/>
      <point x="45" y="168" type="line"/>
      <point x="44" y="176"/>
      <point x="44" y="185"/>
      <point x="45" y="193" type="curve" smooth="yes"/>
      <point x="49" y="227"/>
      <point x="64" y="260"/>
      <point x="88" y="288" type="curve" smooth="yes"/>
      <point x="119" y="322"/>
      <point x="161" y="346"/>
      <point x="220" y="346" type="curve" smooth="yes"/>
      <point x="263" y="346"/>
      <point x="296" y="325"/>
      <point x="335" y="296" type="curve" smooth="yes"/>
      <point x="357" y="280"/>
      <point x="378" y="263"/>
      <point x="398" y="263" type="curve" smooth="yes"/>
      <point x="419" y="263"/>
      <point x="434" y="283"/>
      <point x="438" y="302" type="curve" smooth="yes"/>
      <point x="440" y="312"/>
      <point x="438" y="326"/>
      <point x="436" y="336" type="curve"/>
      <point x="554" y="330" type="line"/>
      <point x="555" y="321"/>
      <point x="556" y="312"/>
      <point x="555" y="302" type="curve" smooth="yes"/>
      <point x="551" y="268"/>
      <point x="538" y="234"/>
      <point x="514" y="206" type="curve" smooth="yes"/>
      <point x="486" y="174"/>
      <point x="449" y="154"/>
      <point x="399" y="154" type="curve" smooth="yes"/>
      <point x="359" y="154"/>
      <point x="325" y="176"/>
      <point x="285" y="204" type="curve" smooth="yes"/>
      <point x="261" y="222"/>
      <point x="237" y="238"/>
      <point x="212" y="237" type="curve" smooth="yes"/>
      <point x="184" y="236"/>
      <point x="165" y="214"/>
      <point x="160" y="192" type="curve" smooth="yes"/>
      <point x="158" y="181"/>
      <point x="160" y="172"/>
    </contour>
  </outline>
</glyph>
<glyph name="exclamdown" format="2">
  <advance width="333"/>
  <unicode hex="00A1"/>
  <outline>
    <contour>
      <point x="192" y="-229" type="line"/>
      <point x="8" y="-229" type="line"/>
      <point x="120" y="239" type="line"/>
      <point x="241" y="239" type="line"/>
    </contour>
    <contour>
      <point x="302" y="408" type="curve" smooth="yes"/>
      <point x="296" y="360"/>
      <point x="249" y="323"/>
      <point x="198" y="323" type="curve" smooth="yes"/>
      <point x="146" y="323"/>
      <point x="112" y="360"/>
      <point x="118" y="410" type="curve" smooth="yes"/>
      <point x="124" y="458"/>
      <point x="170" y="494"/>
      <point x="221" y="494" type="curve" smooth="yes"/>
      <point x="273" y="494"/>
      <point x="308" y="458"/>
    </contour>
  </outline>
</glyph>
<glyph name="cent" format="2">
  <advance width="562"/>
  <unicode hex="00A2"/>
  <outline>
    <contour>
      <point x="207" y="38" type="line"/>
      <point x="318" y="38" type="line"/>
      <point x="300" y="-112" type="line"/>
      <point x="172" y="-112" type="line"/>
    </contour>
    <contour>
      <point x="212" y="230" type="curve" smooth="yes"/>
      <point x="202" y="163"/>
      <point x="240" y="114"/>
      <point x="306" y="112" type="curve" smooth="yes"/>
      <point x="366" y="110"/>
      <point x="416" y="143"/>
      <point x="452" y="179" type="curve"/>
      <point x="430" y="30" type="line"/>
      <point x="391" y="5"/>
      <point x="340" y="-10"/>
      <point x="282" y="-10" type="curve" smooth="yes"/>
      <point x="137" y="-10"/>
      <point x="39" y="92"/>
      <point x="59" y="230" type="curve" smooth="yes"/>
      <point x="80" y="372"/>
      <point x="206" y="470"/>
      <point x="355" y="470" type="curve" smooth="yes"/>
      <point x="411" y="470"/>
      <point x="460" y="456"/>
      <point x="496" y="430" type="curve"/>
      <point x="472" y="280" type="line"/>
      <point x="448" y="320"/>
      <point x="412" y="349"/>
      <point x="356" y="349" type="curve" smooth="yes"/>
      <point x="289" y="349"/>
      <point x="224" y="297"/>
    </contour>
    <contour>
      <point x="291" y="578" type="line"/>
      <point x="419" y="578" type="line"/>
      <point x="384" y="428" type="line"/>
      <point x="274" y="428" type="line"/>
    </contour>
  </outline>
</glyph>
<glyph name="sterling" format="2">
  <advance width="592"/>
  <unicode hex="00A3"/>
  <outline>
    <contour>
      <point x="100" y="370" type="line"/>
      <point x="470" y="370" type="line"/>
      <point x="452" y="270" type="line"/>
      <point x="82" y="270" type="line"/>
    </contour>
    <contour>
      <point x="476" y="467" type="line"/>
      <point x="478" y="518"/>
      <point x="468" y="575"/>
      <point x="400" y="576" type="curve" smooth="yes"/>
      <point x="351" y="577"/>
      <point x="305" y="545"/>
      <point x="295" y="494" type="curve" smooth="yes"/>
      <point x="279" y="414"/>
      <point x="357" y="364"/>
      <point x="346" y="270" type="curve" smooth="yes"/>
      <point x="330" y="160"/>
      <point x="207" y="78"/>
      <point x="117" y="52" type="curve"/>
      <point x="180" y="139" type="line"/>
      <point x="522" y="139" type="line"/>
      <point x="497" y="0" type="line"/>
      <point x="23" y="0" type="line"/>
      <point x="114" y="94"/>
      <point x="186" y="176"/>
      <point x="204" y="286" type="curve" smooth="yes"/>
      <point x="216" y="374"/>
      <point x="131" y="422"/>
      <point x="143" y="522" type="curve" smooth="yes"/>
      <point x="159" y="640"/>
      <point x="282" y="710"/>
      <point x="406" y="710" type="curve" smooth="yes"/>
      <point x="540" y="710"/>
      <point x="620" y="616"/>
      <point x="617" y="517" type="curve"/>
    </contour>
  </outline>
</glyph>
<glyph name="currency" format="2">
  <advance width="559"/>
  <unicode hex="00A4"/>
  <outline>
    <contour>
      <point x="80" y="505" type="line"/>
      <point x="150" y="566" type="line"/>
      <point x="232" y="461" type="line"/>
      <point x="166" y="404" type="line"/>
    </contour>
    <contour>
      <point x="66" y="34" type="line"/>
      <point x="12" y="101" type="line"/>
      <point x="124" y="196" type="line"/>
      <point x="176" y="132" type="line"/>
    </contour>
    <contour>
      <point x="486" y="404" type="line"/>
      <point x="432" y="470" type="line"/>
      <point x="544" y="566" type="line"/>
      <point x="596" y="500" type="line"/>
    </contour>
    <contour>
      <point x="375" y="136" type="line"/>
      <point x="444" y="196" type="line"/>
      <point x="526" y="93" type="line"/>
      <point x="460" y="35" type="line"/>
    </contour>
    <contour>
      <point x="72" y="300" type="curve" smooth="yes"/>
      <point x="91" y="432"/>
      <point x="204" y="540"/>
      <point x="340" y="540" type="curve" smooth="yes"/>
      <point x="474" y="540"/>
      <point x="554" y="428"/>
      <point x="536" y="300" type="curve" smooth="yes"/>
      <point x="517" y="168"/>
      <point x="404" y="60"/>
      <point x="268" y="60" type="curve" smooth="yes"/>
      <point x="134" y="60"/>
      <point x="54" y="172"/>
    </contour>
    <contour>
      <point x="206" y="300" type="curve" smooth="yes"/>
      <point x="198" y="246"/>
      <point x="227" y="199"/>
      <point x="284" y="198" type="curve" smooth="yes"/>
      <point x="342" y="197"/>
      <point x="392" y="243"/>
      <point x="402" y="300" type="curve" smooth="yes"/>
      <point x="410" y="354"/>
      <point x="383" y="401"/>
      <point x="326" y="402" type="curve" smooth="yes"/>
      <point x="268" y="403"/>
      <point x="216" y="357"/>
    </contour>
  </outline>
</glyph>
<glyph name="yen" format="2">
  <advance width="649"/>
  <unicode hex="00A5"/>
  <outline>
    <contour>
      <point x="60" y="265" type="line"/>
      <point x="78" y="365" type="line"/>
      <point x="640" y="365" type="line"/>
      <point x="622" y="265" type="line"/>
    </contour>
    <contour>
      <point x="35" y="115" type="line"/>
      <point x="52" y="215" type="line"/>
      <point x="614" y="215" type="line"/>
      <point x="596" y="115" type="line"/>
    </contour>
    <contour>
      <point x="546" y="700" type="line"/>
      <point x="742" y="700" type="line"/>
      <point x="432" y="283" type="line"/>
      <point x="384" y="0" type="line"/>
      <point x="212" y="0" type="line"/>
      <point x="263" y="289" type="line"/>
      <point x="96" y="700" type="line"/>
      <point x="284" y="700" type="line"/>
      <point x="370" y="440" type="line"/>
    </contour>
  </outline>
</glyph>
<glyph name="brokenbar" format="2">
  <advance width="341"/>
  <unicode hex="00A6"/>
  <outline>
    <contour>
      <point x="188" y="695" type="line"/>
      <point x="338" y="695" type="line"/>
      <point x="292" y="430" type="line"/>
      <point x="142" y="430" type="line"/>
    </contour>
    <contour>
      <point x="266" y="270" type="line"/>
      <point x="220" y="5" type="line"/>
      <point x="69" y="5" type="line"/>
      <point x="115" y="270" type="line"/>
    </contour>
  </outline>
</glyph>
<glyph name="section" format="2">
  <advance width="559"/>
  <unicode hex="00A7"/>
  <outline>
    <contour>
      <point x="460" y="550" type="line"/>
      <point x="435" y="578"/>
      <point x="399" y="598"/>
      <point x="365" y="598" type="curve" smooth="yes"/>
      <point x="339" y="598"/>
      <point x="308" y="588"/>
      <point x="306" y="568" type="curve" smooth="yes"/>
      <point x="302" y="540"/>
      <point x="356" y="532"/>
      <point x="392" y="520" type="curve" smooth="yes"/>
      <point x="461" y="498"/>
      <point x="514" y="447"/>
      <point x="504" y="377" type="curve" smooth="yes"/>
      <point x="488" y="271"/>
      <point x="376" y="233"/>
      <point x="272" y="230" type="curve"/>
      <point x="279" y="271" type="line"/>
      <point x="317" y="281"/>
      <point x="359" y="302"/>
      <point x="365" y="344" type="curve" smooth="yes"/>
      <point x="374" y="398"/>
      <point x="310" y="416"/>
      <point x="266" y="436" type="curve" smooth="yes"/>
      <point x="208" y="462"/>
      <point x="156" y="504"/>
      <point x="166" y="578" type="curve" smooth="yes"/>
      <point x="179" y="672"/>
      <point x="278" y="724"/>
      <point x="368" y="724" type="curve" smooth="yes"/>
      <point x="442" y="724"/>
      <point x="509" y="693"/>
      <point x="542" y="646" type="curve"/>
    </contour>
    <contour>
      <point x="123" y="173" type="line"/>
      <point x="161" y="129"/>
      <point x="210" y="101"/>
      <point x="256" y="102" type="curve" smooth="yes"/>
      <point x="286" y="102"/>
      <point x="316" y="116"/>
      <point x="320" y="138" type="curve" smooth="yes"/>
      <point x="325" y="170"/>
      <point x="276" y="182"/>
      <point x="238" y="194" type="curve" smooth="yes"/>
      <point x="169" y="216"/>
      <point x="102" y="259"/>
      <point x="112" y="335" type="curve" smooth="yes"/>
      <point x="127" y="437"/>
      <point x="244" y="476"/>
      <point x="350" y="479" type="curve"/>
      <point x="344" y="442" type="line"/>
      <point x="306" y="428"/>
      <point x="263" y="409"/>
      <point x="256" y="368" type="curve" smooth="yes"/>
      <point x="246" y="310"/>
      <point x="320" y="298"/>
      <point x="364" y="278" type="curve" smooth="yes"/>
      <point x="426" y="250"/>
      <point x="477" y="203"/>
      <point x="467" y="130" type="curve" smooth="yes"/>
      <point x="453" y="28"/>
      <point x="348" y="-22"/>
      <point x="251" y="-22" type="curve" smooth="yes"/>
      <point x="153" y="-22"/>
      <point x="83" y="18"/>
      <point x="39" y="77" type="curve"/>
    </contour>
  </outline>
</glyph>
<glyph name="dieresis" format="2">
  <advance width="495"/>
  <unicode hex="00A8"/>
  <outline>
    <contour>
      <point x="360" y="633" type="curve" smooth="yes"/>
      <point x="365" y="678"/>
      <point x="410" y="714"/>
      <point x="456" y="714" type="curve" smooth="yes"/>
      <point x="502" y="714"/>
      <point x="539" y="677"/>
      <point x="533" y="631" type="curve" smooth="yes"/>
      <point x="528" y="586"/>
      <point x="483" y="550"/>
      <point x="437" y="550" type="curve" smooth="yes"/>
      <point x="391" y="550"/>
      <point x="354" y="587"/>
    </contour>
    <contour>
      <point x="124" y="633" type="curve" smooth="yes"/>
      <point x="129" y="678"/>
      <point x="174" y="714"/>
      <point x="220" y="714" type="curve" smooth="yes"/>
      <point x="266" y="714"/>
      <point x="302" y="677"/>
      <point x="296" y="631" type="curve" smooth="yes"/>
      <point x="291" y="586"/>
      <point x="246" y="550"/>
      <point x="200" y="550" type="curve" smooth="yes"/>
      <point x="154" y="550"/>
      <point x="118" y="587"/>
    </contour>
  </outline>
</glyph>
<glyph name="copyright" format="2">
  <advance width="776"/>
  <unicode hex="00A9"/>
  <outline>
    <contour>
      <point x="318" y="350" type="curve" smooth="yes"/>
      <point x="308" y="282"/>
      <point x="348" y="230"/>
      <point x="417" y="228" type="curve" smooth="yes"/>
      <point x="473" y="227"/>
      <point x="516" y="254"/>
      <point x="550" y="282" type="curve"/>
      <point x="535" y="172" type="line"/>
      <point x="497" y="147"/>
      <point x="458" y="130"/>
      <point x="404" y="130" type="curve" smooth="yes"/>
      <point x="275" y="130"/>
      <point x="192" y="226"/>
      <point x="208" y="350" type="curve" smooth="yes"/>
      <point x="224" y="476"/>
      <point x="332" y="570"/>
      <point x="464" y="570" type="curve" smooth="yes"/>
      <point x="518" y="570"/>
      <point x="553" y="553"/>
      <point x="588" y="527" type="curve"/>
      <point x="574" y="417" type="line"/>
      <point x="548" y="449"/>
      <point x="514" y="473"/>
      <point x="462" y="473" type="curve" smooth="yes"/>
      <point x="392" y="473"/>
      <point x="330" y="422"/>
    </contour>
    <contour>
      <point x="130" y="350" type="curve" smooth="yes"/>
      <point x="106" y="189"/>
      <point x="201" y="41"/>
      <point x="373" y="40" type="curve" smooth="yes"/>
      <point x="547" y="39"/>
      <point x="694" y="181"/>
      <point x="720" y="350" type="curve" smooth="yes"/>
      <point x="744" y="511"/>
      <point x="649" y="659"/>
      <point x="477" y="660" type="curve" smooth="yes"/>
      <point x="303" y="661"/>
      <point x="156" y="519"/>
    </contour>
    <contour>
      <point x="74" y="350" type="curve" smooth="yes"/>
      <point x="101" y="550"/>
      <point x="272" y="710"/>
      <point x="476" y="710" type="curve" smooth="yes"/>
      <point x="677" y="710"/>
      <point x="801" y="543"/>
      <point x="776" y="350" type="curve" smooth="yes"/>
      <point x="749" y="150"/>
      <point x="578" y="-10"/>
      <point x="374" y="-10" type="curve" smooth="yes"/>
      <point x="173" y="-10"/>
      <point x="49" y="157"/>
    </contour>
  </outline>
</glyph>
<glyph name="ordfeminine" format="2">
  <advance width="261"/>
  <unicode hex="00AA"/>
  <outline>
    <contour>
      <point x="154" y="529" type="curve" smooth="yes"/>
      <point x="152" y="515"/>
      <point x="164" y="505"/>
      <point x="180" y="505" type="curve" smooth="yes"/>
      <point x="208" y="505"/>
      <point x="231" y="523"/>
      <point x="240" y="552" type="curve"/>
      <point x="243" y="524" type="line"/>
      <point x="231" y="484"/>
      <point x="200" y="456"/>
      <point x="152" y="456" type="curve" smooth="yes"/>
      <point x="108" y="456"/>
      <point x="74" y="485"/>
      <point x="80" y="529" type="curve" smooth="yes"/>
      <point x="87" y="575"/>
      <point x="136" y="603"/>
      <point x="186" y="603" type="curve" smooth="yes"/>
      <point x="218" y="603"/>
      <point x="245" y="590"/>
      <point x="261" y="578" type="curve"/>
      <point x="256" y="543" type="line"/>
      <point x="240" y="555"/>
      <point x="224" y="562"/>
      <point x="202" y="562" type="curve" smooth="yes"/>
      <point x="181" y="562"/>
      <point x="156" y="547"/>
    </contour>
    <contour>
      <point x="143" y="624" type="curve"/>
      <point x="126" y="680" type="line"/>
      <point x="155" y="692"/>
      <point x="191" y="705"/>
      <point x="229" y="705" type="curve" smooth="yes"/>
      <point x="283" y="705"/>
      <point x="328" y="680"/>
      <point x="324" y="630" type="curve"/>
      <point x="295" y="460" type="line"/>
      <point x="222" y="460" type="line"/>
      <point x="250" y="611" type="line"/>
      <point x="248" y="629"/>
      <point x="242" y="642"/>
      <point x="220" y="644" type="curve" smooth="yes"/>
      <point x="191" y="646"/>
      <point x="160" y="632"/>
    </contour>
  </outline>
</glyph>
<glyph name="guillemotleft" format="2">
  <advance width="524"/>
  <unicode hex="00AB"/>
  <outline>
    <contour>
      <point x="358" y="256" type="line"/>
      <point x="471" y="62" type="line"/>
      <point x="372" y="0" type="line"/>
      <point x="240" y="260" type="line"/>
      <point x="454" y="508" type="line"/>
      <point x="537" y="442" type="line"/>
    </contour>
    <contour>
      <point x="161" y="256" type="line"/>
      <point x="274" y="62" type="line"/>
      <point x="174" y="0" type="line"/>
      <point x="44" y="260" type="line"/>
      <point x="256" y="508" type="line"/>
      <point x="340" y="442" type="line"/>
    </contour>
  </outline>
</glyph>
<glyph name="logicalnot" format="2">
  <advance width="630"/>
  <unicode hex="00AC"/>
  <outline>
    <contour>
      <point x="82" y="272" type="line"/>
      <point x="104" y="403" type="line"/>
      <point x="612" y="403" type="line"/>
      <point x="572" y="175" type="line"/>
      <point x="466" y="175" type="line"/>
      <point x="486" y="272" type="line"/>
    </contour>
  </outline>
</glyph>
<glyph name="registered" format="2">
  <advance width="776"/>
  <unicode hex="00AE"/>
  <outline>
    <contour>
      <point x="399" y="328" type="line"/>
      <point x="488" y="328" type="line"/>
      <point x="577" y="150" type="line"/>
      <point x="463" y="150" type="line"/>
    </contour>
    <contour>
      <point x="316" y="570" type="line"/>
      <point x="416" y="570" type="line"/>
      <point x="352" y="150" type="line"/>
      <point x="250" y="150" type="line"/>
    </contour>
    <contour>
      <point x="364" y="484" type="line"/>
      <point x="378" y="570" type="line"/>
      <point x="462" y="570" type="line"/>
      <point x="554" y="568"/>
      <point x="615" y="518"/>
      <point x="605" y="438" type="curve" smooth="yes"/>
      <point x="594" y="354"/>
      <point x="523" y="304"/>
      <point x="428" y="302" type="curve"/>
      <point x="336" y="302" type="line"/>
      <point x="348" y="380" type="line"/>
      <point x="426" y="380" type="line"/>
      <point x="462" y="382"/>
      <point x="495" y="400"/>
      <point x="500" y="434" type="curve" smooth="yes"/>
      <point x="504" y="466"/>
      <point x="481" y="482"/>
      <point x="447" y="484" type="curve"/>
    </contour>
    <contour>
      <point x="130" y="350" type="curve" smooth="yes"/>
      <point x="106" y="189"/>
      <point x="201" y="41"/>
      <point x="373" y="40" type="curve" smooth="yes"/>
      <point x="547" y="39"/>
      <point x="694" y="181"/>
      <point x="720" y="350" type="curve" smooth="yes"/>
      <point x="744" y="511"/>
      <point x="649" y="659"/>
      <point x="477" y="660" type="curve" smooth="yes"/>
      <point x="303" y="661"/>
      <point x="156" y="519"/>
    </contour>
    <contour>
      <point x="74" y="350" type="curve" smooth="yes"/>
      <point x="101" y="550"/>
      <point x="272" y="710"/>
      <point x="476" y="710" type="curve" smooth="yes"/>
      <point x="677" y="710"/>
      <point x="801" y="543"/>
      <point x="776" y="350" type="curve" smooth="yes"/>
      <point x="749" y="150"/>
      <point x="578" y="-10"/>
      <point x="374" y="-10" type="curve" smooth="yes"/>
      <point x="173" y="-10"/>
      <point x="49" y="157"/>
    </contour>
  </outline>
</glyph>
<glyph name="degree" format="2">
  <advance width="287"/>
  <unicode hex="00B0"/>
  <outline>
    <contour>
      <point x="90" y="598" type="curve" smooth="yes"/>
      <point x="100" y="667"/>
      <point x="163" y="720"/>
      <point x="235" y="720" type="curve" smooth="yes"/>
      <point x="307" y="720"/>
      <point x="358" y="665"/>
      <point x="348" y="596" type="curve" smooth="yes"/>
      <point x="338" y="526"/>
      <point x="274" y="474"/>
      <point x="201" y="474" type="curve" smooth="yes"/>
      <point x="129" y="474"/>
      <point x="80" y="529"/>
    </contour>
    <contour>
      <point x="163" y="596" type="curve" smooth="yes"/>
      <point x="159" y="567"/>
      <point x="176" y="541"/>
      <point x="206" y="540" type="curve" smooth="yes"/>
      <point x="238" y="539"/>
      <point x="269" y="566"/>
      <point x="274" y="598" type="curve" smooth="yes"/>
      <point x="278" y="627"/>
      <point x="261" y="655"/>
      <point x="231" y="656" type="curve" smooth="yes"/>
      <point x="199" y="657"/>
      <point x="168" y="628"/>
    </contour>
  </outline>
</glyph>
<glyph name="plusminus" format="2">
  <advance width="614"/>
  <unicode hex="00B1"/>
  <outline>
    <contour>
      <point x="46" y="6" type="line"/>
      <point x="66" y="136" type="line"/>
      <point x="558" y="136" type="line"/>
      <point x="537" y="6" type="line"/>
    </contour>
    <contour>
      <point x="96" y="332" type="line"/>
      <point x="118" y="469" type="line"/>
      <point x="609" y="469" type="line"/>
      <point x="588" y="332" type="line"/>
    </contour>
    <contour>
      <point x="310" y="620" type="line"/>
      <point x="462" y="620" type="line"/>
      <point x="394" y="181" type="line"/>
      <point x="242" y="182" type="line"/>
    </contour>
  </outline>
</glyph>
<glyph name="uni00B2" format="2">
  <advance width="395"/>
  <unicode hex="00B2"/>
  <outline>
    <contour>
      <point x="42" y="282" type="line"/>
      <point x="256" y="476" type="line" smooth="yes"/>
      <point x="288" y="506"/>
      <point x="322" y="534"/>
      <point x="328" y="570" type="curve" smooth="yes"/>
      <point x="332" y="595"/>
      <point x="319" y="621"/>
      <point x="287" y="623" type="curve" smooth="yes"/>
      <point x="246" y="625"/>
      <point x="219" y="586"/>
      <point x="210" y="548" type="curve"/>
      <point x="110" y="548" type="line"/>
      <point x="128" y="636"/>
      <point x="192" y="710"/>
      <point x="297" y="710" type="curve" smooth="yes"/>
      <point x="387" y="710"/>
      <point x="443" y="646"/>
      <point x="432" y="574" type="curve" smooth="yes"/>
      <point x="425" y="528"/>
      <point x="394" y="492"/>
      <point x="357" y="462" type="curve" smooth="yes"/>
      <point x="248" y="376" type="line"/>
      <point x="408" y="374" type="line"/>
      <point x="392" y="282" type="line"/>
    </contour>
  </outline>
</glyph>
<glyph name="uni00B3" format="2">
  <advance width="354"/>
  <unicode hex="00B3"/>
  <outline>
    <contour>
      <point x="205" y="484" type="curve"/>
      <point x="212" y="528" type="line"/>
      <point x="252" y="532"/>
      <point x="293" y="551"/>
      <point x="299" y="586" type="curve" smooth="yes"/>
      <point x="302" y="608"/>
      <point x="288" y="626"/>
      <point x="262" y="626" type="curve" smooth="yes"/>
      <point x="230" y="626"/>
      <point x="208" y="604"/>
      <point x="200" y="578" type="curve"/>
      <point x="106" y="578" type="line"/>
      <point x="123" y="650"/>
      <point x="182" y="708"/>
      <point x="268" y="708" type="curve" smooth="yes"/>
      <point x="348" y="708"/>
      <point x="408" y="660"/>
      <point x="397" y="591" type="curve" smooth="yes"/>
      <point x="384" y="512"/>
      <point x="293" y="486"/>
    </contour>
    <contour>
      <point x="198" y="270" type="curve" smooth="yes"/>
      <point x="103" y="270"/>
      <point x="55" y="336"/>
      <point x="59" y="414" type="curve"/>
      <point x="156" y="414" type="line"/>
      <point x="156" y="378"/>
      <point x="171" y="354"/>
      <point x="207" y="352" type="curve" smooth="yes"/>
      <point x="239" y="350"/>
      <point x="274" y="374"/>
      <point x="278" y="406" type="curve" smooth="yes"/>
      <point x="286" y="446"/>
      <point x="247" y="461"/>
      <point x="200" y="464" type="curve"/>
      <point x="208" y="514" type="line"/>
      <point x="300" y="512"/>
      <point x="389" y="484"/>
      <point x="376" y="394" type="curve" smooth="yes"/>
      <point x="365" y="318"/>
      <point x="288" y="270"/>
    </contour>
  </outline>
</glyph>
<glyph name="mu" format="2">
  <advance width="569"/>
  <unicode hex="00B5"/>
  <outline>
    <contour>
      <point x="264" y="460" type="line"/>
      <point x="216" y="200" type="line" smooth="yes"/>
      <point x="209" y="154"/>
      <point x="223" y="121"/>
      <point x="271" y="121" type="curve" smooth="yes"/>
      <point x="319" y="121"/>
      <point x="352" y="154"/>
      <point x="360" y="204" type="curve" smooth="yes"/>
      <point x="407" y="460" type="line"/>
      <point x="552" y="460" type="line"/>
      <point x="476" y="0" type="line"/>
      <point x="324" y="0" type="line"/>
      <point x="333" y="52" type="line"/>
      <point x="309" y="18"/>
      <point x="274" y="-4"/>
      <point x="237" y="-4" type="curve" smooth="yes"/>
      <point x="215" y="-4"/>
      <point x="196" y="0"/>
      <point x="176" y="16" type="curve"/>
      <point x="120" y="-320" type="line"/>
      <point x="-26" y="-320" type="line"/>
      <point x="108" y="460" type="line"/>
    </contour>
  </outline>
</glyph>
<glyph name="paragraph" format="2">
  <advance width="651"/>
  <unicode hex="00B6"/>
  <outline>
    <contour>
      <point x="298" y="271" type="line"/>
      <point x="178" y="279"/>
      <point x="94" y="358"/>
      <point x="112" y="486" type="curve" smooth="yes"/>
      <point x="132" y="621"/>
      <point x="242" y="700"/>
      <point x="370" y="700" type="curve" smooth="yes"/>
      <point x="688" y="700" type="line"/>
      <point x="530" y="-220" type="line"/>
      <point x="399" y="-220" type="line"/>
      <point x="540" y="607" type="line"/>
      <point x="486" y="607" type="line"/>
      <point x="344" y="-220" type="line"/>
      <point x="214" y="-220" type="line"/>
    </contour>
  </outline>
</glyph>
<glyph name="periodcentered" format="2">
  <advance width="312"/>
  <unicode hex="00B7"/>
  <outline>
    <contour>
      <point x="82" y="269" type="curve" smooth="yes"/>
      <point x="88" y="317"/>
      <point x="136" y="360"/>
      <point x="188" y="360" type="curve" smooth="yes"/>
      <point x="240" y="360"/>
      <point x="274" y="316"/>
      <point x="268" y="267" type="curve" smooth="yes"/>
      <point x="262" y="219"/>
      <point x="214" y="176"/>
      <point x="162" y="176" type="curve" smooth="yes"/>
      <point x="110" y="176"/>
      <point x="76" y="220"/>
    </contour>
  </outline>
</glyph>
<glyph name="cedilla" format="2">
  <advance width="381"/>
  <unicode hex="00B8"/>
  <outline>
    <contour>
      <point x="160" y="70" type="line"/>
      <point x="273" y="67" type="line"/>
      <point x="164" y="-54" type="line"/>
      <point x="174" y="-52"/>
      <point x="185" y="-51"/>
      <point x="197" y="-51" type="curve" smooth="yes"/>
      <point x="243" y="-53"/>
      <point x="280" y="-92"/>
      <point x="274" y="-149" type="curve" smooth="yes"/>
      <point x="265" y="-217"/>
      <point x="195" y="-256"/>
      <point x="132" y="-257" type="curve" smooth="yes"/>
      <point x="79" y="-258"/>
      <point x="38" y="-244"/>
      <point x="-6" y="-216" type="curve"/>
      <point x="46" y="-150" type="line"/>
      <point x="68" y="-165"/>
      <point x="96" y="-175"/>
      <point x="118" y="-175" type="curve" smooth="yes"/>
      <point x="144" y="-175"/>
      <point x="178" y="-162"/>
      <point x="180" y="-138" type="curve" smooth="yes"/>
      <point x="182" y="-114"/>
      <point x="152" y="-108"/>
      <point x="130" y="-108" type="curve" smooth="yes"/>
      <point x="110" y="-107"/>
      <point x="77" y="-112"/>
      <point x="45" y="-122" type="curve"/>
    </contour>
  </outline>
</glyph>
<glyph name="uni00B9" format="2">
  <advance width="467"/>
  <unicode hex="00B9"/>
  <outline>
    <contour>
      <point x="198" y="572" type="line"/>
      <point x="214" y="662" type="line"/>
      <point x="420" y="703" type="line"/>
      <point x="346" y="274" type="line"/>
      <point x="249" y="274" type="line"/>
      <point x="304" y="596" type="line"/>
    </contour>
  </outline>
</glyph>
<glyph name="ordmasculine" format="2">
  <advance width="269"/>
  <unicode hex="00BA"/>
  <outline>
    <contour>
      <point x="89" y="581" type="curve" smooth="yes"/>
      <point x="99" y="650"/>
      <point x="162" y="700"/>
      <point x="234" y="700" type="curve" smooth="yes"/>
      <point x="306" y="700"/>
      <point x="356" y="648"/>
      <point x="346" y="579" type="curve" smooth="yes"/>
      <point x="336" y="509"/>
      <point x="273" y="460"/>
      <point x="201" y="460" type="curve" smooth="yes"/>
      <point x="129" y="460"/>
      <point x="79" y="512"/>
    </contour>
    <contour>
      <point x="165" y="580" type="curve" smooth="yes"/>
      <point x="161" y="552"/>
      <point x="177" y="525"/>
      <point x="205" y="524" type="curve" smooth="yes"/>
      <point x="234" y="523"/>
      <point x="266" y="549"/>
      <point x="270" y="580" type="curve" smooth="yes"/>
      <point x="274" y="608"/>
      <point x="258" y="637"/>
      <point x="230" y="638" type="curve" smooth="yes"/>
      <point x="201" y="639"/>
      <point x="169" y="611"/>
    </contour>
  </outline>
</glyph>
<glyph name="guillemotright" format="2">
  <advance width="524"/>
  <unicode hex="00BB"/>
  <outline>
    <contour>
      <point x="200" y="254" type="line"/>
      <point x="86" y="448" type="line"/>
      <point x="186" y="510" type="line"/>
      <point x="317" y="250" type="line"/>
      <point x="105" y="2" type="line"/>
      <point x="21" y="68" type="line"/>
    </contour>
    <contour>
      <point x="398" y="254" type="line"/>
      <point x="284" y="448" type="line"/>
      <point x="384" y="510" type="line"/>
      <point x="515" y="250" type="line"/>
      <point x="302" y="2" type="line"/>
      <point x="218" y="68" type="line"/>
    </contour>
  </outline>
</glyph>
<glyph name="onequarter" format="2">
  <advance width="797"/>
  <unicode hex="00BC"/>
  <outline>
    <contour>
      <point x="700" y="700" type="line"/>
      <point x="802" y="699" type="line"/>
      <point x="177" y="0" type="line"/>
      <point x="76" y="0" type="line"/>
    </contour>
    <contour>
      <point x="92" y="572" type="line"/>
      <point x="108" y="662" type="line"/>
      <point x="314" y="703" type="line"/>
      <point x="240" y="274" type="line"/>
      <point x="142" y="274" type="line"/>
      <point x="198" y="596" type="line"/>
    </contour>
    <contour>
      <point x="376" y="76" type="line"/>
      <point x="470" y="147" type="line"/>
      <point x="649" y="148" type="line"/>
      <point x="662" y="161" type="line"/>
      <point x="770" y="160" type="line"/>
      <point x="755" y="75" type="line"/>
    </contour>
    <contour>
      <point x="488" y="105" type="line"/>
      <point x="374" y="72" type="line"/>
      <point x="673" y="420" type="line"/>
      <point x="751" y="420" type="line"/>
      <point x="678" y="0" type="line"/>
      <point x="574" y="0" type="line"/>
      <point x="590" y="96" type="line"/>
      <point x="602" y="102" type="line"/>
      <point x="630" y="265" type="line"/>
    </contour>
  </outline>
</glyph>
<glyph name="onehalf" format="2">
  <advance width="867"/>
  <unicode hex="00BD"/>
  <outline>
    <contour>
      <point x="700" y="700" type="line"/>
      <point x="802" y="699" type="line"/>
      <point x="177" y="0" type="line"/>
      <point x="76" y="0" type="line"/>
    </contour>
    <contour>
      <point x="92" y="572" type="line"/>
      <point x="108" y="662" type="line"/>
      <point x="314" y="703" type="line"/>
      <point x="240" y="274" type="line"/>
      <point x="142" y="274" type="line"/>
      <point x="198" y="596" type="line"/>
    </contour>
    <contour>
      <point x="460" y="2" type="line"/>
      <point x="676" y="196" type="line" smooth="yes"/>
      <point x="708" y="226"/>
      <point x="742" y="254"/>
      <point x="748" y="290" type="curve" smooth="yes"/>
      <point x="752" y="315"/>
      <point x="738" y="341"/>
      <point x="706" y="343" type="curve" smooth="yes"/>
      <point x="665" y="345"/>
      <point x="637" y="306"/>
      <point x="628" y="268" type="curve"/>
      <point x="528" y="268" type="line"/>
      <point x="546" y="356"/>
      <point x="611" y="430"/>
      <point x="716" y="430" type="curve" smooth="yes"/>
      <point x="806" y="430"/>
      <point x="861" y="366"/>
      <point x="850" y="294" type="curve" smooth="yes"/>
      <point x="843" y="248"/>
      <point x="813" y="212"/>
      <point x="776" y="182" type="curve" smooth="yes"/>
      <point x="667" y="96" type="line"/>
      <point x="827" y="94" type="line"/>
      <point x="810" y="2" type="line"/>
    </contour>
  </outline>
</glyph>
<glyph name="threequarters" format="2">
  <advance width="852"/>
  <unicode hex="00BE"/>
  <outline>
    <contour>
      <point x="762" y="700" type="line"/>
      <point x="863" y="699" type="line"/>
      <point x="239" y="0" type="line"/>
      <point x="138" y="0" type="line"/>
    </contour>
    <contour>
      <point x="213" y="484" type="curve"/>
      <point x="220" y="528" type="line"/>
      <point x="260" y="532"/>
      <point x="300" y="551"/>
      <point x="306" y="586" type="curve" smooth="yes"/>
      <point x="309" y="608"/>
      <point x="296" y="626"/>
      <point x="270" y="626" type="curve" smooth="yes"/>
      <point x="238" y="626"/>
      <point x="216" y="604"/>
      <point x="208" y="578" type="curve"/>
      <point x="114" y="578" type="line"/>
      <point x="131" y="650"/>
      <point x="190" y="708"/>
      <point x="276" y="708" type="curve" smooth="yes"/>
      <point x="356" y="708"/>
      <point x="416" y="660"/>
      <point x="405" y="591" type="curve" smooth="yes"/>
      <point x="392" y="512"/>
      <point x="301" y="486"/>
    </contour>
    <contour>
      <point x="206" y="270" type="curve" smooth="yes"/>
      <point x="111" y="270"/>
      <point x="63" y="336"/>
      <point x="67" y="414" type="curve"/>
      <point x="164" y="414" type="line"/>
      <point x="164" y="378"/>
      <point x="179" y="354"/>
      <point x="215" y="352" type="curve" smooth="yes"/>
      <point x="247" y="350"/>
      <point x="281" y="374"/>
      <point x="285" y="406" type="curve" smooth="yes"/>
      <point x="293" y="446"/>
      <point x="255" y="461"/>
      <point x="208" y="464" type="curve"/>
      <point x="216" y="514" type="line"/>
      <point x="308" y="512"/>
      <point x="397" y="484"/>
      <point x="384" y="394" type="curve" smooth="yes"/>
      <point x="373" y="318"/>
      <point x="296" y="270"/>
    </contour>
    <contour>
      <point x="432" y="76" type="line"/>
      <point x="526" y="147" type="line"/>
      <point x="705" y="148" type="line"/>
      <point x="718" y="161" type="line"/>
      <point x="826" y="160" type="line"/>
      <point x="812" y="75" type="line"/>
    </contour>
    <contour>
      <point x="544" y="105" type="line"/>
      <point x="429" y="72" type="line"/>
      <point x="729" y="420" type="line"/>
      <point x="807" y="420" type="line"/>
      <point x="734" y="0" type="line"/>
      <point x="630" y="0" type="line"/>
      <point x="646" y="96" type="line"/>
      <point x="658" y="102" type="line"/>
      <point x="686" y="265" type="line"/>
    </contour>
  </outline>
</glyph>
<glyph name="questiondown" format="2">
  <advance width="608"/>
  <unicode hex="00BF"/>
  <outline>
    <contour>
      <point x="208" y="200" type="curve" smooth="yes"/>
      <point x="199" y="144"/>
      <point x="235" y="111"/>
      <point x="297" y="110" type="curve" smooth="yes"/>
      <point x="361" y="108"/>
      <point x="423" y="147"/>
      <point x="466" y="196" type="curve"/>
      <point x="556" y="109" type="line"/>
      <point x="479" y="33"/>
      <point x="389" y="-19"/>
      <point x="274" y="-19" type="curve" smooth="yes"/>
      <point x="147" y="-19"/>
      <point x="39" y="68"/>
      <point x="58" y="200" type="curve" smooth="yes"/>
      <point x="76" y="322"/>
      <point x="189" y="392"/>
      <point x="300" y="415" type="curve"/>
      <point x="320" y="498" type="line"/>
      <point x="442" y="499" type="line"/>
      <point x="433" y="321" type="line"/>
      <point x="403" y="321" type="line"/>
      <point x="305" y="319"/>
      <point x="222" y="266"/>
    </contour>
    <contour>
      <point x="498" y="640" type="curve" smooth="yes"/>
      <point x="492" y="596"/>
      <point x="444" y="558"/>
      <point x="394" y="558" type="curve" smooth="yes"/>
      <point x="344" y="558"/>
      <point x="308" y="597"/>
      <point x="314" y="642" type="curve" smooth="yes"/>
      <point x="320" y="686"/>
      <point x="366" y="724"/>
      <point x="416" y="724" type="curve" smooth="yes"/>
      <point x="466" y="724"/>
      <point x="504" y="685"/>
    </contour>
  </outline>
</glyph>
<glyph name="Agrave" format="2">
  <advance width="712"/>
  <unicode hex="00C0"/>
  <outline>
    <contour>
      <point x="174" y="136" type="line"/>
      <point x="207" y="264" type="line"/>
      <point x="546" y="264" type="line"/>
      <point x="535" y="135" type="line"/>
    </contour>
    <contour>
      <point x="408" y="442" type="line"/>
      <point x="274" y="216" type="line"/>
      <point x="275" y="178" type="line"/>
      <point x="161" y="0" type="line"/>
      <point x="-32" y="0" type="line"/>
      <point x="456" y="746" type="line"/>
      <point x="686" y="0" type="line"/>
      <point x="502" y="0" type="line"/>
      <point x="448" y="172" type="line"/>
      <point x="462" y="216" type="line"/>
    </contour>
    <contour>
      <point x="336" y="956" type="line"/>
      <point x="454" y="1008" type="line"/>
      <point x="575" y="844" type="line"/>
      <point x="488" y="804" type="line"/>
    </contour>
  </outline>
</glyph>
<glyph name="Aacute" format="2">
  <advance width="712"/>
  <unicode hex="00C1"/>
  <outline>
    <contour>
      <point x="174" y="136" type="line"/>
      <point x="207" y="264" type="line"/>
      <point x="546" y="264" type="line"/>
      <point x="535" y="135" type="line"/>
    </contour>
    <contour>
      <point x="408" y="442" type="line"/>
      <point x="274" y="216" type="line"/>
      <point x="275" y="178" type="line"/>
      <point x="161" y="0" type="line"/>
      <point x="-32" y="0" type="line"/>
      <point x="456" y="746" type="line"/>
      <point x="686" y="0" type="line"/>
      <point x="502" y="0" type="line"/>
      <point x="448" y="172" type="line"/>
      <point x="462" y="216" type="line"/>
    </contour>
    <contour>
      <point x="648" y="951" type="line"/>
      <point x="450" y="805" type="line"/>
      <point x="368" y="850" type="line"/>
      <point x="539" y="1006" type="line"/>
    </contour>
  </outline>
</glyph>
<glyph name="Acircumflex" format="2">
  <advance width="712"/>
  <unicode hex="00C2"/>
  <outline>
    <contour>
      <point x="174" y="136" type="line"/>
      <point x="207" y="264" type="line"/>
      <point x="546" y="264" type="line"/>
      <point x="535" y="135" type="line"/>
    </contour>
    <contour>
      <point x="408" y="442" type="line"/>
      <point x="274" y="216" type="line"/>
      <point x="275" y="178" type="line"/>
      <point x="161" y="0" type="line"/>
      <point x="-32" y="0" type="line"/>
      <point x="456" y="746" type="line"/>
      <point x="686" y="0" type="line"/>
      <point x="502" y="0" type="line"/>
      <point x="448" y="172" type="line"/>
      <point x="462" y="216" type="line"/>
    </contour>
    <contour>
      <point x="483" y="874" type="line"/>
      <point x="379" y="790" type="line"/>
      <point x="284" y="864" type="line"/>
      <point x="497" y="1001" type="line"/>
      <point x="668" y="858" type="line"/>
      <point x="556" y="788" type="line"/>
    </contour>
  </outline>
</glyph>
<glyph name="Atilde" format="2">
  <advance width="712"/>
  <unicode hex="00C3"/>
  <outline>
    <contour>
      <point x="174" y="136" type="line"/>
      <point x="207" y="264" type="line"/>
      <point x="546" y="264" type="line"/>
      <point x="535" y="135" type="line"/>
    </contour>
    <contour>
      <point x="408" y="442" type="line"/>
      <point x="274" y="216" type="line"/>
      <point x="275" y="178" type="line"/>
      <point x="161" y="0" type="line"/>
      <point x="-32" y="0" type="line"/>
      <point x="456" y="746" type="line"/>
      <point x="686" y="0" type="line"/>
      <point x="502" y="0" type="line"/>
      <point x="448" y="172" type="line"/>
      <point x="462" y="216" type="line"/>
    </contour>
    <contour>
      <point x="285" y="864" type="line"/>
      <point x="306" y="910"/>
      <point x="352" y="958"/>
      <point x="414" y="956" type="curve" smooth="yes"/>
      <point x="468" y="955"/>
      <point x="488" y="904"/>
      <point x="538" y="906" type="curve" smooth="yes"/>
      <point x="566" y="907"/>
      <point x="590" y="932"/>
      <point x="612" y="958" type="curve"/>
      <point x="672" y="882" type="line"/>
      <point x="646" y="844"/>
      <point x="591" y="796"/>
      <point x="531" y="798" type="curve" smooth="yes"/>
      <point x="483" y="800"/>
      <point x="450" y="854"/>
      <point x="404" y="851" type="curve" smooth="yes"/>
      <point x="370" y="849"/>
      <point x="356" y="819"/>
      <point x="348" y="801" type="curve"/>
    </contour>
  </outline>
</glyph>
<glyph name="Adieresis" format="2">
  <advance width="712"/>
  <unicode hex="00C4"/>
  <outline>
    <contour>
      <point x="174" y="136" type="line"/>
      <point x="207" y="264" type="line"/>
      <point x="546" y="264" type="line"/>
      <point x="535" y="135" type="line"/>
    </contour>
    <contour>
      <point x="408" y="442" type="line"/>
      <point x="274" y="216" type="line"/>
      <point x="275" y="178" type="line"/>
      <point x="161" y="0" type="line"/>
      <point x="-32" y="0" type="line"/>
      <point x="456" y="746" type="line"/>
      <point x="686" y="0" type="line"/>
      <point x="502" y="0" type="line"/>
      <point x="448" y="172" type="line"/>
      <point x="462" y="216" type="line"/>
    </contour>
    <contour>
      <point x="521" y="832" type="curve" smooth="yes"/>
      <point x="527" y="877"/>
      <point x="572" y="912"/>
      <point x="618" y="912" type="curve" smooth="yes"/>
      <point x="664" y="912"/>
      <point x="700" y="874"/>
      <point x="694" y="828" type="curve" smooth="yes"/>
      <point x="688" y="783"/>
      <point x="642" y="748"/>
      <point x="596" y="748" type="curve" smooth="yes"/>
      <point x="550" y="748"/>
      <point x="515" y="786"/>
    </contour>
    <contour>
      <point x="243" y="838" type="curve" smooth="yes"/>
      <point x="249" y="883"/>
      <point x="295" y="918"/>
      <point x="341" y="918" type="curve" smooth="yes"/>
      <point x="387" y="918"/>
      <point x="422" y="881"/>
      <point x="416" y="835" type="curve" smooth="yes"/>
      <point x="410" y="790"/>
      <point x="365" y="754"/>
      <point x="319" y="754" type="curve" smooth="yes"/>
      <point x="273" y="754"/>
      <point x="237" y="792"/>
    </contour>
  </outline>
</glyph>
<glyph name="Aring" format="2">
  <advance width="712"/>
  <unicode hex="00C5"/>
  <outline>
    <contour>
      <point x="174" y="136" type="line"/>
      <point x="207" y="264" type="line"/>
      <point x="546" y="264" type="line"/>
      <point x="535" y="135" type="line"/>
    </contour>
    <contour>
      <point x="408" y="442" type="line"/>
      <point x="274" y="216" type="line"/>
      <point x="275" y="178" type="line"/>
      <point x="161" y="0" type="line"/>
      <point x="-32" y="0" type="line"/>
      <point x="456" y="746" type="line"/>
      <point x="686" y="0" type="line"/>
      <point x="502" y="0" type="line"/>
      <point x="448" y="172" type="line"/>
      <point x="462" y="216" type="line"/>
    </contour>
    <contour>
      <point x="344" y="801" type="curve" smooth="yes"/>
      <point x="353" y="867"/>
      <point x="414" y="916"/>
      <point x="482" y="916" type="curve" smooth="yes"/>
      <point x="550" y="916"/>
      <point x="598" y="865"/>
      <point x="589" y="799" type="curve" smooth="yes"/>
      <point x="580" y="733"/>
      <point x="518" y="686"/>
      <point x="450" y="686" type="curve" smooth="yes"/>
      <point x="382" y="686"/>
      <point x="335" y="735"/>
    </contour>
    <contour>
      <point x="421" y="800" type="curve" smooth="yes"/>
      <point x="419" y="776"/>
      <point x="433" y="755"/>
      <point x="455" y="754" type="curve" smooth="yes"/>
      <point x="479" y="752"/>
      <point x="507" y="776"/>
      <point x="511" y="801" type="curve" smooth="yes"/>
      <point x="513" y="825"/>
      <point x="498" y="847"/>
      <point x="476" y="848" type="curve" smooth="yes"/>
      <point x="452" y="850"/>
      <point x="425" y="825"/>
    </contour>
  </outline>
</glyph>
<glyph name="AE" format="2">
  <advance width="1052"/>
  <unicode hex="00C6"/>
  <outline>
    <contour>
      <point x="259" y="151" type="line"/>
      <point x="292" y="306" type="line"/>
      <point x="586" y="306" type="line"/>
      <point x="559" y="151" type="line"/>
    </contour>
    <contour>
      <point x="521" y="700" type="line"/>
      <point x="671" y="658" type="line"/>
      <point x="198" y="0" type="line"/>
      <point x="-16" y="0" type="line"/>
    </contour>
    <contour>
      <point x="584" y="0" type="line"/>
      <point x="608" y="139" type="line"/>
      <point x="984" y="139" type="line"/>
      <point x="960" y="0" type="line"/>
    </contour>
    <contour>
      <point x="692" y="561" type="line"/>
      <point x="521" y="700" type="line"/>
      <point x="1079" y="700" type="line"/>
      <point x="1055" y="561" type="line"/>
    </contour>
    <contour>
      <point x="635" y="300" type="line"/>
      <point x="658" y="436" type="line"/>
      <point x="1015" y="436" type="line"/>
      <point x="991" y="299" type="line"/>
    </contour>
    <contour>
      <point x="624" y="700" type="line"/>
      <point x="804" y="700" type="line"/>
      <point x="684" y="0" type="line"/>
      <point x="504" y="0" type="line"/>
    </contour>
  </outline>
</glyph>
<glyph name="Ccedilla" format="2">
  <advance width="679"/>
  <unicode hex="00C7"/>
  <outline>
    <contour>
      <point x="246" y="350" type="curve" smooth="yes"/>
      <point x="228" y="236"/>
      <point x="294" y="148"/>
      <point x="408" y="146" type="curve" smooth="yes"/>
      <point x="500" y="145"/>
      <point x="572" y="189"/>
      <point x="630" y="237" type="curve"/>
      <point x="603" y="54" type="line"/>
      <point x="541" y="12"/>
      <point x="473" y="-16"/>
      <point x="381" y="-16" type="curve" smooth="yes"/>
      <point x="165" y="-16"/>
      <point x="34" y="146"/>
      <point x="64" y="350" type="curve" smooth="yes"/>
      <point x="96" y="560"/>
      <point x="276" y="716"/>
      <point x="496" y="716" type="curve" smooth="yes"/>
      <point x="584" y="716"/>
      <point x="645" y="690"/>
      <point x="701" y="645" type="curve"/>
      <point x="673" y="462" type="line"/>
      <point x="631" y="516"/>
      <point x="574" y="554"/>
      <point x="488" y="554" type="curve" smooth="yes"/>
      <point x="372" y="554"/>
      <point x="266" y="470"/>
    </contour>
    <contour>
      <point x="325" y="47" type="line"/>
      <point x="438" y="44" type="line"/>
      <point x="330" y="-78" type="line"/>
      <point x="340" y="-76"/>
      <point x="350" y="-74"/>
      <point x="362" y="-74" type="curve" smooth="yes"/>
      <point x="408" y="-76"/>
      <point x="447" y="-115"/>
      <point x="440" y="-172" type="curve" smooth="yes"/>
      <point x="431" y="-240"/>
      <point x="360" y="-279"/>
      <point x="297" y="-280" type="curve" smooth="yes"/>
      <point x="244" y="-281"/>
      <point x="202" y="-268"/>
      <point x="158" y="-240" type="curve"/>
      <point x="212" y="-173" type="line"/>
      <point x="234" y="-188"/>
      <point x="262" y="-198"/>
      <point x="284" y="-198" type="curve" smooth="yes"/>
      <point x="310" y="-198"/>
      <point x="344" y="-186"/>
      <point x="346" y="-162" type="curve" smooth="yes"/>
      <point x="348" y="-138"/>
      <point x="318" y="-130"/>
      <point x="296" y="-130" type="curve" smooth="yes"/>
      <point x="276" y="-129"/>
      <point x="242" y="-136"/>
      <point x="210" y="-146" type="curve"/>
    </contour>
  </outline>
</glyph>
<glyph name="Egrave" format="2">
  <advance width="585"/>
  <unicode hex="00C8"/>
  <outline>
    <contour>
      <point x="152" y="0" type="line"/>
      <point x="176" y="139" type="line"/>
      <point x="522" y="139" type="line"/>
      <point x="498" y="0" type="line"/>
    </contour>
    <contour>
      <point x="248" y="561" type="line"/>
      <point x="272" y="700" type="line"/>
      <point x="618" y="700" type="line"/>
      <point x="594" y="561" type="line"/>
    </contour>
    <contour>
      <point x="204" y="300" type="line"/>
      <point x="227" y="436" type="line"/>
      <point x="553" y="436" type="line"/>
      <point x="529" y="299" type="line"/>
    </contour>
    <contour>
      <point x="162" y="700" type="line"/>
      <point x="324" y="700" type="line"/>
      <point x="204" y="0" type="line"/>
      <point x="44" y="0" type="line"/>
    </contour>
    <contour>
      <point x="273" y="934" type="line"/>
      <point x="391" y="986" type="line"/>
      <point x="512" y="822" type="line"/>
      <point x="426" y="782" type="line"/>
    </contour>
  </outline>
</glyph>
<glyph name="Ecircumflex" format="2">
  <advance width="585"/>
  <unicode hex="00CA"/>
  <outline>
    <contour>
      <point x="152" y="0" type="line"/>
      <point x="176" y="139" type="line"/>
      <point x="522" y="139" type="line"/>
      <point x="498" y="0" type="line"/>
    </contour>
    <contour>
      <point x="248" y="561" type="line"/>
      <point x="272" y="700" type="line"/>
      <point x="618" y="700" type="line"/>
      <point x="594" y="561" type="line"/>
    </contour>
    <contour>
      <point x="204" y="300" type="line"/>
      <point x="227" y="436" type="line"/>
      <point x="553" y="436" type="line"/>
      <point x="529" y="299" type="line"/>
    </contour>
    <contour>
      <point x="162" y="700" type="line"/>
      <point x="324" y="700" type="line"/>
      <point x="204" y="0" type="line"/>
      <point x="44" y="0" type="line"/>
    </contour>
    <contour>
      <point x="411" y="861" type="line"/>
      <point x="307" y="776" type="line"/>
      <point x="213" y="850" type="line"/>
      <point x="425" y="988" type="line"/>
      <point x="597" y="845" type="line"/>
      <point x="485" y="776" type="line"/>
    </contour>
  </outline>
</glyph>
<glyph name="Edieresis" format="2">
  <advance width="585"/>
  <unicode hex="00CB"/>
  <outline>
    <contour>
      <point x="152" y="0" type="line"/>
      <point x="176" y="139" type="line"/>
      <point x="522" y="139" type="line"/>
      <point x="498" y="0" type="line"/>
    </contour>
    <contour>
      <point x="248" y="561" type="line"/>
      <point x="272" y="700" type="line"/>
      <point x="618" y="700" type="line"/>
      <point x="594" y="561" type="line"/>
    </contour>
    <contour>
      <point x="204" y="300" type="line"/>
      <point x="227" y="436" type="line"/>
      <point x="553" y="436" type="line"/>
      <point x="529" y="299" type="line"/>
    </contour>
    <contour>
      <point x="162" y="700" type="line"/>
      <point x="324" y="700" type="line"/>
      <point x="204" y="0" type="line"/>
      <point x="44" y="0" type="line"/>
    </contour>
    <contour>
      <point x="454" y="867" type="curve" smooth="yes"/>
      <point x="460" y="912"/>
      <point x="505" y="947"/>
      <point x="551" y="947" type="curve" smooth="yes"/>
      <point x="597" y="947"/>
      <point x="633" y="910"/>
      <point x="627" y="864" type="curve" smooth="yes"/>
      <point x="621" y="819"/>
      <point x="575" y="784"/>
      <point x="529" y="784" type="curve" smooth="yes"/>
      <point x="483" y="784"/>
      <point x="448" y="821"/>
    </contour>
    <contour>
      <point x="218" y="867" type="curve" smooth="yes"/>
      <point x="224" y="912"/>
      <point x="268" y="947"/>
      <point x="314" y="947" type="curve" smooth="yes"/>
      <point x="360" y="947"/>
      <point x="396" y="910"/>
      <point x="390" y="864" type="curve" smooth="yes"/>
      <point x="384" y="819"/>
      <point x="339" y="784"/>
      <point x="293" y="784" type="curve" smooth="yes"/>
      <point x="247" y="784"/>
      <point x="212" y="821"/>
    </contour>
  </outline>
</glyph>
<glyph name="Igrave" format="2">
  <advance width="310"/>
  <unicode hex="00CC"/>
  <outline>
    <contour>
      <point x="162" y="700" type="line"/>
      <point x="333" y="700" type="line"/>
      <point x="212" y="0" type="line"/>
      <point x="44" y="0" type="line"/>
    </contour>
    <contour>
      <point x="124" y="934" type="line"/>
      <point x="243" y="986" type="line"/>
      <point x="364" y="822" type="line"/>
      <point x="277" y="782" type="line"/>
    </contour>
  </outline>
</glyph>
<glyph name="Iacute" format="2">
  <advance width="310"/>
  <unicode hex="00CD"/>
  <outline>
    <contour>
      <point x="162" y="700" type="line"/>
      <point x="333" y="700" type="line"/>
      <point x="212" y="0" type="line"/>
      <point x="44" y="0" type="line"/>
    </contour>
    <contour>
      <point x="436" y="929" type="line"/>
      <point x="238" y="783" type="line"/>
      <point x="158" y="828" type="line"/>
      <point x="328" y="984" type="line"/>
    </contour>
  </outline>
</glyph>
<glyph name="Icircumflex" format="2">
  <advance width="310"/>
  <unicode hex="00CE"/>
  <outline>
    <contour>
      <point x="162" y="700" type="line"/>
      <point x="333" y="700" type="line"/>
      <point x="212" y="0" type="line"/>
      <point x="44" y="0" type="line"/>
    </contour>
    <contour>
      <point x="280" y="872" type="line"/>
      <point x="166" y="782" type="line"/>
      <point x="92" y="841" type="line"/>
      <point x="287" y="978" type="line"/>
      <point x="441" y="836" type="line"/>
      <point x="361" y="782" type="line"/>
    </contour>
  </outline>
</glyph>
<glyph name="Idieresis" format="2">
  <advance width="310"/>
  <unicode hex="00CF"/>
  <outline>
    <contour>
      <point x="162" y="700" type="line"/>
      <point x="333" y="700" type="line"/>
      <point x="212" y="0" type="line"/>
      <point x="44" y="0" type="line"/>
    </contour>
    <contour>
      <point x="307" y="860" type="curve" smooth="yes"/>
      <point x="313" y="905"/>
      <point x="358" y="940"/>
      <point x="404" y="940" type="curve" smooth="yes"/>
      <point x="450" y="940"/>
      <point x="486" y="903"/>
      <point x="480" y="857" type="curve" smooth="yes"/>
      <point x="474" y="812"/>
      <point x="428" y="776"/>
      <point x="382" y="776" type="curve" smooth="yes"/>
      <point x="335" y="776"/>
      <point x="301" y="814"/>
    </contour>
    <contour>
      <point x="70" y="860" type="curve" smooth="yes"/>
      <point x="76" y="905"/>
      <point x="121" y="940"/>
      <point x="167" y="940" type="curve" smooth="yes"/>
      <point x="213" y="940"/>
      <point x="250" y="903"/>
      <point x="244" y="857" type="curve" smooth="yes"/>
      <point x="238" y="812"/>
      <point x="192" y="776"/>
      <point x="146" y="776" type="curve" smooth="yes"/>
      <point x="99" y="776"/>
      <point x="64" y="814"/>
    </contour>
  </outline>
</glyph>
<glyph name="Eth" format="2">
  <advance width="711"/>
  <unicode hex="00D0"/>
  <outline>
    <contour>
      <point x="29" y="302" type="line"/>
      <point x="46" y="402" type="line"/>
      <point x="388" y="402" type="line"/>
      <point x="371" y="302" type="line"/>
    </contour>
    <contour>
      <point x="162" y="700" type="line"/>
      <point x="336" y="700" type="line"/>
      <point x="216" y="0" type="line"/>
      <point x="44" y="0" type="line"/>
    </contour>
    <contour>
      <point x="292" y="0" type="curve"/>
      <point x="152" y="0" type="line"/>
      <point x="178" y="151" type="line"/>
      <point x="302" y="151" type="line"/>
      <point x="418" y="153"/>
      <point x="518" y="218"/>
      <point x="540" y="350" type="curve" smooth="yes"/>
      <point x="560" y="478"/>
      <point x="493" y="546"/>
      <point x="380" y="549" type="curve"/>
      <point x="246" y="550" type="line"/>
      <point x="272" y="700" type="line"/>
      <point x="402" y="700" type="line"/>
      <point x="618" y="697"/>
      <point x="742" y="554"/>
      <point x="712" y="350" type="curve" smooth="yes"/>
      <point x="680" y="140"/>
      <point x="513" y="2"/>
    </contour>
  </outline>
</glyph>
<glyph name="Ntilde" format="2">
  <advance width="769"/>
  <unicode hex="00D1"/>
  <outline>
    <contour>
      <point x="632" y="700" type="line"/>
      <point x="792" y="700" type="line"/>
      <point x="668" y="-34" type="line"/>
      <point x="272" y="394" type="line"/>
      <point x="204" y="0" type="line"/>
      <point x="43" y="0" type="line"/>
      <point x="168" y="734" type="line"/>
      <point x="564" y="306" type="line"/>
    </contour>
    <contour>
      <point x="280" y="835" type="line"/>
      <point x="301" y="881"/>
      <point x="347" y="930"/>
      <point x="409" y="928" type="curve" smooth="yes"/>
      <point x="463" y="927"/>
      <point x="482" y="874"/>
      <point x="532" y="876" type="curve" smooth="yes"/>
      <point x="560" y="877"/>
      <point x="584" y="902"/>
      <point x="606" y="928" type="curve"/>
      <point x="667" y="852" type="line"/>
      <point x="641" y="814"/>
      <point x="586" y="768"/>
      <point x="526" y="770" type="curve" smooth="yes"/>
      <point x="478" y="772"/>
      <point x="445" y="825"/>
      <point x="399" y="822" type="curve" smooth="yes"/>
      <point x="365" y="820"/>
      <point x="352" y="790"/>
      <point x="344" y="772" type="curve"/>
    </contour>
  </outline>
</glyph>
<glyph name="Ograve" format="2">
  <advance width="796"/>
  <unicode hex="00D2"/>
  <outline>
    <contour>
      <point x="240" y="350" type="curve" smooth="yes"/>
      <point x="223" y="242"/>
      <point x="272" y="142"/>
      <point x="390" y="140" type="curve" smooth="yes"/>
      <point x="510" y="138"/>
      <point x="602" y="235"/>
      <point x="622" y="350" type="curve" smooth="yes"/>
      <point x="640" y="458"/>
      <point x="592" y="559"/>
      <point x="472" y="560" type="curve" smooth="yes"/>
      <point x="352" y="561"/>
      <point x="260" y="465"/>
    </contour>
    <contour>
      <point x="64" y="350" type="curve" smooth="yes"/>
      <point x="96" y="558"/>
      <point x="275" y="716"/>
      <point x="488" y="716" type="curve" smooth="yes"/>
      <point x="699" y="716"/>
      <point x="827" y="550"/>
      <point x="798" y="350" type="curve" smooth="yes"/>
      <point x="766" y="142"/>
      <point x="590" y="-22"/>
      <point x="372" y="-22" type="curve" smooth="yes"/>
      <point x="158" y="-22"/>
      <point x="35" y="150"/>
    </contour>
    <contour>
      <point x="387" y="934" type="line"/>
      <point x="505" y="986" type="line"/>
      <point x="626" y="822" type="line"/>
      <point x="540" y="782" type="line"/>
    </contour>
  </outline>
</glyph>
<glyph name="Ocircumflex" format="2">
  <advance width="796"/>
  <unicode hex="00D4"/>
  <outline>
    <contour>
      <point x="240" y="350" type="curve" smooth="yes"/>
      <point x="223" y="242"/>
      <point x="272" y="142"/>
      <point x="390" y="140" type="curve" smooth="yes"/>
      <point x="510" y="138"/>
      <point x="602" y="235"/>
      <point x="622" y="350" type="curve" smooth="yes"/>
      <point x="640" y="458"/>
      <point x="592" y="559"/>
      <point x="472" y="560" type="curve" smooth="yes"/>
      <point x="352" y="561"/>
      <point x="260" y="465"/>
    </contour>
    <contour>
      <point x="64" y="350" type="curve" smooth="yes"/>
      <point x="96" y="558"/>
      <point x="275" y="716"/>
      <point x="488" y="716" type="curve" smooth="yes"/>
      <point x="699" y="716"/>
      <point x="827" y="550"/>
      <point x="798" y="350" type="curve" smooth="yes"/>
      <point x="766" y="142"/>
      <point x="590" y="-22"/>
      <point x="372" y="-22" type="curve" smooth="yes"/>
      <point x="158" y="-22"/>
      <point x="35" y="150"/>
    </contour>
    <contour>
      <point x="525" y="861" type="line"/>
      <point x="421" y="776" type="line"/>
      <point x="327" y="850" type="line"/>
      <point x="539" y="988" type="line"/>
      <point x="711" y="845" type="line"/>
      <point x="599" y="776" type="line"/>
    </contour>
  </outline>
</glyph>
<glyph name="Otilde" format="2">
  <advance width="796"/>
  <unicode hex="00D5"/>
  <outline>
    <contour>
      <point x="240" y="350" type="curve" smooth="yes"/>
      <point x="223" y="242"/>
      <point x="272" y="142"/>
      <point x="390" y="140" type="curve" smooth="yes"/>
      <point x="510" y="138"/>
      <point x="602" y="235"/>
      <point x="622" y="350" type="curve" smooth="yes"/>
      <point x="640" y="458"/>
      <point x="592" y="559"/>
      <point x="472" y="560" type="curve" smooth="yes"/>
      <point x="352" y="561"/>
      <point x="260" y="465"/>
    </contour>
    <contour>
      <point x="64" y="350" type="curve" smooth="yes"/>
      <point x="96" y="558"/>
      <point x="275" y="716"/>
      <point x="488" y="716" type="curve" smooth="yes"/>
      <point x="699" y="716"/>
      <point x="827" y="550"/>
      <point x="798" y="350" type="curve" smooth="yes"/>
      <point x="766" y="142"/>
      <point x="590" y="-22"/>
      <point x="372" y="-22" type="curve" smooth="yes"/>
      <point x="158" y="-22"/>
      <point x="35" y="150"/>
    </contour>
    <contour>
      <point x="332" y="835" type="line"/>
      <point x="353" y="881"/>
      <point x="399" y="930"/>
      <point x="461" y="928" type="curve" smooth="yes"/>
      <point x="515" y="927"/>
      <point x="534" y="874"/>
      <point x="584" y="876" type="curve" smooth="yes"/>
      <point x="612" y="877"/>
      <point x="636" y="902"/>
      <point x="658" y="928" type="curve"/>
      <point x="719" y="852" type="line"/>
      <point x="693" y="814"/>
      <point x="638" y="768"/>
      <point x="578" y="770" type="curve" smooth="yes"/>
      <point x="530" y="772"/>
      <point x="497" y="825"/>
      <point x="451" y="822" type="curve" smooth="yes"/>
      <point x="417" y="820"/>
      <point x="404" y="790"/>
      <point x="396" y="772" type="curve"/>
    </contour>
  </outline>
</glyph>
<glyph name="Odieresis" format="2">
  <advance width="796"/>
  <unicode hex="00D6"/>
  <outline>
    <contour>
      <point x="240" y="350" type="curve" smooth="yes"/>
      <point x="223" y="242"/>
      <point x="272" y="142"/>
      <point x="390" y="140" type="curve" smooth="yes"/>
      <point x="510" y="138"/>
      <point x="602" y="235"/>
      <point x="622" y="350" type="curve" smooth="yes"/>
      <point x="640" y="458"/>
      <point x="592" y="559"/>
      <point x="472" y="560" type="curve" smooth="yes"/>
      <point x="352" y="561"/>
      <point x="260" y="465"/>
    </contour>
    <contour>
      <point x="64" y="350" type="curve" smooth="yes"/>
      <point x="96" y="558"/>
      <point x="275" y="716"/>
      <point x="488" y="716" type="curve" smooth="yes"/>
      <point x="699" y="716"/>
      <point x="827" y="550"/>
      <point x="798" y="350" type="curve" smooth="yes"/>
      <point x="766" y="142"/>
      <point x="590" y="-22"/>
      <point x="372" y="-22" type="curve" smooth="yes"/>
      <point x="158" y="-22"/>
      <point x="35" y="150"/>
    </contour>
    <contour>
      <point x="550" y="860" type="curve" smooth="yes"/>
      <point x="556" y="905"/>
      <point x="601" y="940"/>
      <point x="647" y="940" type="curve" smooth="yes"/>
      <point x="693" y="940"/>
      <point x="729" y="903"/>
      <point x="723" y="857" type="curve" smooth="yes"/>
      <point x="717" y="812"/>
      <point x="671" y="776"/>
      <point x="625" y="776" type="curve" smooth="yes"/>
      <point x="579" y="776"/>
      <point x="544" y="814"/>
    </contour>
    <contour>
      <point x="314" y="860" type="curve" smooth="yes"/>
      <point x="320" y="905"/>
      <point x="364" y="940"/>
      <point x="410" y="940" type="curve" smooth="yes"/>
      <point x="456" y="940"/>
      <point x="492" y="903"/>
      <point x="486" y="857" type="curve" smooth="yes"/>
      <point x="480" y="812"/>
      <point x="435" y="776"/>
      <point x="389" y="776" type="curve" smooth="yes"/>
      <point x="343" y="776"/>
      <point x="308" y="814"/>
    </contour>
  </outline>
</glyph>
<glyph name="Oslash" format="2">
  <advance width="766"/>
  <unicode hex="00D8"/>
  <outline>
    <contour>
      <point x="240" y="350" type="curve" smooth="yes"/>
      <point x="222" y="240"/>
      <point x="271" y="141"/>
      <point x="390" y="140" type="curve" smooth="yes"/>
      <point x="510" y="138"/>
      <point x="602" y="233"/>
      <point x="622" y="350" type="curve" smooth="yes"/>
      <point x="640" y="460"/>
      <point x="591" y="559"/>
      <point x="472" y="560" type="curve" smooth="yes"/>
      <point x="352" y="562"/>
      <point x="260" y="467"/>
    </contour>
    <contour>
      <point x="64" y="350" type="curve" smooth="yes"/>
      <point x="96" y="558"/>
      <point x="273" y="716"/>
      <point x="488" y="716" type="curve" smooth="yes"/>
      <point x="698" y="716"/>
      <point x="827" y="550"/>
      <point x="798" y="350" type="curve" smooth="yes"/>
      <point x="766" y="142"/>
      <point x="588" y="-22"/>
      <point x="372" y="-22" type="curve" smooth="yes"/>
      <point x="160" y="-22"/>
      <point x="35" y="150"/>
    </contour>
    <contour>
      <point x="774" y="756" type="line"/>
      <point x="840" y="700" type="line"/>
      <point x="82" y="-56" type="line"/>
      <point x="19" y="-4" type="line"/>
    </contour>
  </outline>
</glyph>
<glyph name="Ucircumflex" format="2">
  <advance width="680"/>
  <unicode hex="00DB"/>
  <outline>
    <contour>
      <point x="158" y="700" type="line"/>
      <point x="325" y="700" type="line"/>
      <point x="245" y="242" type="line" smooth="yes"/>
      <point x="237" y="180"/>
      <point x="258" y="126"/>
      <point x="330" y="124" type="curve" smooth="yes"/>
      <point x="403" y="122"/>
      <point x="450" y="176"/>
      <point x="462" y="242" type="curve"/>
      <point x="541" y="700" type="line"/>
      <point x="708" y="700" type="line"/>
      <point x="628" y="230" type="line" smooth="yes"/>
      <point x="601" y="68"/>
      <point x="473" y="-28"/>
      <point x="313" y="-28" type="curve" smooth="yes"/>
      <point x="157" y="-28"/>
      <point x="57" y="70"/>
      <point x="78" y="230" type="curve"/>
    </contour>
    <contour>
      <point x="464" y="861" type="line"/>
      <point x="360" y="776" type="line"/>
      <point x="266" y="850" type="line"/>
      <point x="478" y="988" type="line"/>
      <point x="650" y="845" type="line"/>
      <point x="538" y="776" type="line"/>
    </contour>
  </outline>
</glyph>
<glyph name="Udieresis" format="2">
  <advance width="680"/>
  <unicode hex="00DC"/>
  <outline>
    <contour>
      <point x="158" y="700" type="line"/>
      <point x="325" y="700" type="line"/>
      <point x="245" y="242" type="line" smooth="yes"/>
      <point x="237" y="180"/>
      <point x="258" y="126"/>
      <point x="330" y="124" type="curve" smooth="yes"/>
      <point x="403" y="122"/>
      <point x="450" y="176"/>
      <point x="462" y="242" type="curve"/>
      <point x="541" y="700" type="line"/>
      <point x="708" y="700" type="line"/>
      <point x="628" y="230" type="line" smooth="yes"/>
      <point x="601" y="68"/>
      <point x="473" y="-28"/>
      <point x="313" y="-28" type="curve" smooth="yes"/>
      <point x="157" y="-28"/>
      <point x="57" y="70"/>
      <point x="78" y="230" type="curve"/>
    </contour>
    <contour>
      <point x="510" y="860" type="curve" smooth="yes"/>
      <point x="516" y="905"/>
      <point x="561" y="940"/>
      <point x="607" y="940" type="curve" smooth="yes"/>
      <point x="653" y="940"/>
      <point x="688" y="903"/>
      <point x="682" y="857" type="curve" smooth="yes"/>
      <point x="676" y="812"/>
      <point x="631" y="776"/>
      <point x="585" y="776" type="curve" smooth="yes"/>
      <point x="539" y="776"/>
      <point x="504" y="814"/>
    </contour>
    <contour>
      <point x="236" y="860" type="curve" smooth="yes"/>
      <point x="242" y="905"/>
      <point x="288" y="940"/>
      <point x="334" y="940" type="curve" smooth="yes"/>
      <point x="380" y="940"/>
      <point x="416" y="903"/>
      <point x="410" y="857" type="curve" smooth="yes"/>
      <point x="404" y="812"/>
      <point x="358" y="776"/>
      <point x="312" y="776" type="curve" smooth="yes"/>
      <point x="266" y="776"/>
      <point x="230" y="814"/>
    </contour>
  </outline>
</glyph>
<glyph name="Yacute" format="2">
  <advance width="640"/>
  <unicode hex="00DD"/>
  <outline>
    <contour>
      <point x="608" y="923" type="line"/>
      <point x="412" y="776" type="line"/>
      <point x="330" y="822" type="line"/>
      <point x="501" y="978" type="line"/>
    </contour>
    <contour>
      <point x="542" y="700" type="line"/>
      <point x="738" y="700" type="line"/>
      <point x="426" y="281" type="line"/>
      <point x="378" y="0" type="line"/>
      <point x="208" y="0" type="line"/>
      <point x="259" y="288" type="line"/>
      <point x="92" y="700" type="line"/>
      <point x="280" y="700" type="line"/>
      <point x="366" y="440" type="line"/>
    </contour>
  </outline>
</glyph>
<glyph name="Thorn" format="2">
  <advance width="593"/>
  <unicode hex="00DE"/>
  <outline>
    <contour>
      <point x="168" y="700" type="line"/>
      <point x="315" y="700" type="line"/>
      <point x="195" y="0" type="line"/>
      <point x="50" y="0" type="line"/>
    </contour>
    <contour>
      <point x="216" y="446" type="line"/>
      <point x="240" y="579" type="line"/>
      <point x="368" y="579" type="line"/>
      <point x="525" y="577"/>
      <point x="622" y="494"/>
      <point x="600" y="352" type="curve" smooth="yes"/>
      <point x="578" y="208"/>
      <point x="463" y="130"/>
      <point x="301" y="128" type="curve"/>
      <point x="162" y="128" type="line"/>
      <point x="185" y="261" type="line"/>
      <point x="314" y="261" type="line"/>
      <point x="384" y="263"/>
      <point x="440" y="288"/>
      <point x="452" y="354" type="curve" smooth="yes"/>
      <point x="464" y="418"/>
      <point x="420" y="444"/>
      <point x="354" y="446" type="curve"/>
    </contour>
  </outline>
</glyph>
<glyph name="germandbls" format="2">
  <advance width="603"/>
  <unicode hex="00DF"/>
  <outline>
    <contour>
      <point x="386" y="-12" type="curve" smooth="yes"/>
      <point x="333" y="-12"/>
      <point x="263" y="5"/>
      <point x="229" y="28" type="curve"/>
      <point x="260" y="144" type="line"/>
      <point x="288" y="124"/>
      <point x="325" y="110"/>
      <point x="357" y="110" type="curve" smooth="yes"/>
      <point x="408" y="110"/>
      <point x="443" y="145"/>
      <point x="443" y="192" type="curve" smooth="yes"/>
      <point x="443" y="289"/>
      <point x="314" y="295"/>
      <point x="314" y="383" type="curve" smooth="yes"/>
      <point x="314" y="469"/>
      <point x="450" y="495"/>
      <point x="450" y="592" type="curve" smooth="yes"/>
      <point x="450" y="640"/>
      <point x="421" y="662"/>
      <point x="377" y="662" type="curve" smooth="yes"/>
      <point x="315" y="662"/>
      <point x="278" y="623"/>
      <point x="266" y="550" type="curve" smooth="yes"/>
      <point x="174" y="-2" type="line"/>
      <point x="21" y="-2" type="line"/>
      <point x="114" y="552" type="line" smooth="yes"/>
      <point x="138" y="700"/>
      <point x="218" y="797"/>
      <point x="394" y="797" type="curve" smooth="yes"/>
      <point x="515" y="797"/>
      <point x="608" y="727"/>
      <point x="608" y="621" type="curve" smooth="yes"/>
      <point x="608" y="490"/>
      <point x="474" y="453"/>
      <point x="474" y="394" type="curve" smooth="yes"/>
      <point x="474" y="330"/>
      <point x="600" y="336"/>
      <point x="600" y="193" type="curve" smooth="yes"/>
      <point x="600" y="79"/>
      <point x="504" y="-12"/>
    </contour>
  </outline>
</glyph>
<glyph name="atilde" format="2">
  <advance width="597"/>
  <unicode hex="00E3"/>
  <outline>
    <contour>
      <point x="447" y="460" type="line"/>
      <point x="596" y="460" type="line"/>
      <point x="516" y="0" type="line"/>
      <point x="368" y="0" type="line"/>
    </contour>
    <contour>
      <point x="42" y="230" type="curve" smooth="yes"/>
      <point x="60" y="367"/>
      <point x="169" y="470"/>
      <point x="291" y="470" type="curve" smooth="yes"/>
      <point x="415" y="470"/>
      <point x="465" y="355"/>
      <point x="449" y="230" type="curve" smooth="yes"/>
      <point x="431" y="98"/>
      <point x="341" y="-10"/>
      <point x="219" y="-10" type="curve" smooth="yes"/>
      <point x="97" y="-10"/>
      <point x="25" y="98"/>
    </contour>
    <contour>
      <point x="198" y="230" type="curve" smooth="yes"/>
      <point x="189" y="170"/>
      <point x="218" y="113"/>
      <point x="280" y="112" type="curve" smooth="yes"/>
      <point x="338" y="111"/>
      <point x="396" y="165"/>
      <point x="406" y="230" type="curve" smooth="yes"/>
      <point x="414" y="291"/>
      <point x="384" y="346"/>
      <point x="328" y="348" type="curve" smooth="yes"/>
      <point x="266" y="350"/>
      <point x="208" y="294"/>
    </contour>
    <contour>
      <point x="194" y="598" type="line"/>
      <point x="214" y="646"/>
      <point x="261" y="690"/>
      <point x="323" y="690" type="curve" smooth="yes"/>
      <point x="377" y="690"/>
      <point x="396" y="638"/>
      <point x="446" y="640" type="curve" smooth="yes"/>
      <point x="474" y="641"/>
      <point x="498" y="666"/>
      <point x="520" y="692" type="curve"/>
      <point x="581" y="616" type="line"/>
      <point x="555" y="578"/>
      <point x="500" y="530"/>
      <point x="440" y="532" type="curve" smooth="yes"/>
      <point x="392" y="534"/>
      <point x="360" y="587"/>
      <point x="314" y="584" type="curve" smooth="yes"/>
      <point x="280" y="582"/>
      <point x="266" y="552"/>
      <point x="258" y="534" type="curve"/>
    </contour>
  </outline>
</glyph>
<glyph name="adieresis" format="2">
  <advance width="597"/>
  <unicode hex="00E4"/>
  <outline>
    <contour>
      <point x="447" y="460" type="line"/>
      <point x="596" y="460" type="line"/>
      <point x="516" y="0" type="line"/>
      <point x="368" y="0" type="line"/>
    </contour>
    <contour>
      <point x="42" y="230" type="curve" smooth="yes"/>
      <point x="60" y="367"/>
      <point x="169" y="470"/>
      <point x="291" y="470" type="curve" smooth="yes"/>
      <point x="415" y="470"/>
      <point x="465" y="355"/>
      <point x="449" y="230" type="curve" smooth="yes"/>
      <point x="431" y="98"/>
      <point x="341" y="-10"/>
      <point x="219" y="-10" type="curve" smooth="yes"/>
      <point x="97" y="-10"/>
      <point x="25" y="98"/>
    </contour>
    <contour>
      <point x="198" y="230" type="curve" smooth="yes"/>
      <point x="189" y="170"/>
      <point x="218" y="113"/>
      <point x="280" y="112" type="curve" smooth="yes"/>
      <point x="338" y="111"/>
      <point x="396" y="165"/>
      <point x="406" y="230" type="curve" smooth="yes"/>
      <point x="414" y="291"/>
      <point x="384" y="346"/>
      <point x="328" y="348" type="curve" smooth="yes"/>
      <point x="266" y="350"/>
      <point x="208" y="294"/>
    </contour>
    <contour>
      <point x="408" y="614" type="curve" smooth="yes"/>
      <point x="414" y="659"/>
      <point x="460" y="694"/>
      <point x="506" y="694" type="curve" smooth="yes"/>
      <point x="552" y="694"/>
      <point x="587" y="657"/>
      <point x="581" y="611" type="curve" smooth="yes"/>
      <point x="575" y="566"/>
      <point x="530" y="532"/>
      <point x="484" y="532" type="curve" smooth="yes"/>
      <point x="438" y="532"/>
      <point x="402" y="568"/>
    </contour>
    <contour>
      <point x="172" y="614" type="curve" smooth="yes"/>
      <point x="178" y="659"/>
      <point x="223" y="694"/>
      <point x="269" y="694" type="curve" smooth="yes"/>
      <point x="315" y="694"/>
      <point x="350" y="657"/>
      <point x="344" y="611" type="curve" smooth="yes"/>
      <point x="338" y="566"/>
      <point x="293" y="532"/>
      <point x="247" y="532" type="curve" smooth="yes"/>
      <point x="201" y="532"/>
      <point x="166" y="568"/>
    </contour>
  </outline>
</glyph>
<glyph name="aring" format="2">
  <advance width="597"/>
  <unicode hex="00E5"/>
  <outline>
    <contour>
      <point x="447" y="460" type="line"/>
      <point x="596" y="460" type="line"/>
      <point x="516" y="0" type="line"/>
      <point x="368" y="0" type="line"/>
    </contour>
    <contour>
      <point x="42" y="230" type="curve" smooth="yes"/>
      <point x="60" y="367"/>
      <point x="169" y="470"/>
      <point x="291" y="470" type="curve" smooth="yes"/>
      <point x="415" y="470"/>
      <point x="465" y="355"/>
      <point x="449" y="230" type="curve" smooth="yes"/>
      <point x="431" y="98"/>
      <point x="341" y="-10"/>
      <point x="219" y="-10" type="curve" smooth="yes"/>
      <point x="97" y="-10"/>
      <point x="25" y="98"/>
    </contour>
    <contour>
      <point x="198" y="230" type="curve" smooth="yes"/>
      <point x="189" y="170"/>
      <point x="218" y="113"/>
      <point x="280" y="112" type="curve" smooth="yes"/>
      <point x="338" y="111"/>
      <point x="396" y="165"/>
      <point x="406" y="230" type="curve" smooth="yes"/>
      <point x="414" y="291"/>
      <point x="384" y="346"/>
      <point x="328" y="348" type="curve" smooth="yes"/>
      <point x="266" y="350"/>
      <point x="208" y="294"/>
    </contour>
    <contour>
      <point x="250" y="647" type="curve" smooth="yes"/>
      <point x="259" y="713"/>
      <point x="319" y="761"/>
      <point x="387" y="761" type="curve" smooth="yes"/>
      <point x="455" y="761"/>
      <point x="503" y="711"/>
      <point x="494" y="645" type="curve" smooth="yes"/>
      <point x="485" y="579"/>
      <point x="424" y="531"/>
      <point x="356" y="531" type="curve" smooth="yes"/>
      <point x="288" y="531"/>
      <point x="241" y="581"/>
    </contour>
    <contour>
      <point x="326" y="645" type="curve" smooth="yes"/>
      <point x="324" y="621"/>
      <point x="337" y="600"/>
      <point x="360" y="600" type="curve" smooth="yes"/>
      <point x="384" y="600"/>
      <point x="413" y="622"/>
      <point x="417" y="647" type="curve" smooth="yes"/>
      <point x="419" y="671"/>
      <point x="405" y="693"/>
      <point x="382" y="693" type="curve" smooth="yes"/>
      <point x="358" y="693"/>
      <point x="330" y="670"/>
    </contour>
  </outline>
</glyph>
<glyph name="ae" format="2">
  <advance width="886"/>
  <unicode hex="00E6"/>
  <outline>
    <contour>
      <point x="188" y="-10" type="curve" smooth="yes"/>
      <point x="66" y="-10"/>
      <point x="5" y="42"/>
      <point x="15" y="126" type="curve" smooth="yes"/>
      <point x="24" y="214"/>
      <point x="112" y="279"/>
      <point x="233" y="279" type="curve" smooth="yes"/>
      <point x="291" y="279"/>
      <point x="338" y="265"/>
      <point x="420" y="224" type="curve"/>
      <point x="350" y="224" type="line"/>
      <point x="361" y="286" type="line" smooth="yes"/>
      <point x="368" y="334"/>
      <point x="343" y="358"/>
      <point x="293" y="358" type="curve" smooth="yes"/>
      <point x="249" y="358"/>
      <point x="182" y="340"/>
      <point x="142" y="318" type="curve"/>
      <point x="104" y="420" type="line"/>
      <point x="182" y="456"/>
      <point x="253" y="473"/>
      <point x="320" y="473" type="curve" smooth="yes"/>
      <point x="418" y="473"/>
      <point x="468" y="436"/>
      <point x="464" y="360" type="curve"/>
      <point x="448" y="354" type="line"/>
      <point x="498" y="426"/>
      <point x="578" y="470"/>
      <point x="678" y="470" type="curve" smooth="yes"/>
      <point x="812" y="470"/>
      <point x="883" y="390"/>
      <point x="867" y="250" type="curve" smooth="yes"/>
      <point x="865" y="228"/>
      <point x="860" y="208"/>
      <point x="856" y="198" type="curve"/>
      <point x="489" y="198" type="line"/>
      <point x="511" y="216" type="line"/>
      <point x="503" y="144"/>
      <point x="528" y="99"/>
      <point x="594" y="99" type="curve" smooth="yes"/>
      <point x="644" y="99"/>
      <point x="691" y="121"/>
      <point x="715" y="159" type="curve"/>
      <point x="848" y="126" type="line"/>
      <point x="786" y="35"/>
      <point x="697" y="-10"/>
      <point x="585" y="-10" type="curve" smooth="yes"/>
      <point x="480" y="-10"/>
      <point x="419" y="26"/>
      <point x="396" y="103" type="curve"/>
      <point x="410" y="102" type="line"/>
      <point x="376" y="30"/>
      <point x="298" y="-10"/>
    </contour>
    <contour>
      <point x="230" y="89" type="curve" smooth="yes"/>
      <point x="292" y="89"/>
      <point x="335" y="122"/>
      <point x="350" y="186" type="curve"/>
      <point x="344" y="134" type="line"/>
      <point x="344" y="195" type="line"/>
      <point x="364" y="168" type="line"/>
      <point x="334" y="187"/>
      <point x="296" y="197"/>
      <point x="258" y="197" type="curve" smooth="yes"/>
      <point x="206" y="197"/>
      <point x="172" y="176"/>
      <point x="169" y="136" type="curve" smooth="yes"/>
      <point x="167" y="103"/>
      <point x="185" y="89"/>
    </contour>
    <contour>
      <point x="512" y="236" type="curve"/>
      <point x="499" y="282" type="line"/>
      <point x="733" y="282" type="line"/>
      <point x="706" y="250" type="line"/>
      <point x="709" y="258"/>
      <point x="710" y="259"/>
      <point x="710" y="266" type="curve" smooth="yes"/>
      <point x="716" y="332"/>
      <point x="695" y="369"/>
      <point x="637" y="369" type="curve" smooth="yes"/>
      <point x="571" y="369"/>
      <point x="530" y="322"/>
    </contour>
  </outline>
</glyph>
<glyph name="ccedilla" format="2">
  <advance width="478"/>
  <unicode hex="00E7"/>
  <outline>
    <contour>
      <point x="193" y="230" type="curve" smooth="yes"/>
      <point x="183" y="164"/>
      <point x="221" y="114"/>
      <point x="288" y="112" type="curve" smooth="yes"/>
      <point x="344" y="110"/>
      <point x="397" y="140"/>
      <point x="433" y="178" type="curve"/>
      <point x="412" y="32" type="line"/>
      <point x="373" y="6"/>
      <point x="325" y="-10"/>
      <point x="264" y="-10" type="curve" smooth="yes"/>
      <point x="119" y="-10"/>
      <point x="20" y="92"/>
      <point x="40" y="230" type="curve" smooth="yes"/>
      <point x="61" y="372"/>
      <point x="187" y="470"/>
      <point x="336" y="470" type="curve" smooth="yes"/>
      <point x="396" y="470"/>
      <point x="440" y="454"/>
      <point x="476" y="430" type="curve"/>
      <point x="454" y="282" type="line"/>
      <point x="430" y="325"/>
      <point x="386" y="349"/>
      <point x="337" y="349" type="curve" smooth="yes"/>
      <point x="269" y="349"/>
      <point x="205" y="296"/>
    </contour>
    <contour>
      <point x="210" y="60" type="line"/>
      <point x="322" y="56" type="line"/>
      <point x="214" y="-66" type="line"/>
      <point x="224" y="-64"/>
      <point x="236" y="-62"/>
      <point x="248" y="-62" type="curve" smooth="yes"/>
      <point x="294" y="-64"/>
      <point x="331" y="-103"/>
      <point x="324" y="-160" type="curve" smooth="yes"/>
      <point x="315" y="-228"/>
      <point x="245" y="-267"/>
      <point x="182" y="-268" type="curve" smooth="yes"/>
      <point x="129" y="-269"/>
      <point x="88" y="-255"/>
      <point x="44" y="-227" type="curve"/>
      <point x="97" y="-161" type="line"/>
      <point x="119" y="-176"/>
      <point x="147" y="-186"/>
      <point x="169" y="-186" type="curve" smooth="yes"/>
      <point x="195" y="-186"/>
      <point x="229" y="-172"/>
      <point x="231" y="-148" type="curve" smooth="yes"/>
      <point x="233" y="-124"/>
      <point x="203" y="-118"/>
      <point x="181" y="-118" type="curve" smooth="yes"/>
      <point x="161" y="-117"/>
      <point x="128" y="-122"/>
      <point x="96" y="-132" type="curve"/>
    </contour>
  </outline>
</glyph>
<glyph name="edieresis" format="2">
  <advance width="556"/>
  <unicode hex="00EB"/>
  <outline>
    <contour>
      <point x="121" y="198" type="line"/>
      <point x="134" y="282" type="line"/>
      <point x="386" y="282" type="line"/>
      <point x="386" y="330"/>
      <point x="370" y="366"/>
      <point x="318" y="368" type="curve" smooth="yes"/>
      <point x="254" y="370"/>
      <point x="211" y="317"/>
      <point x="198" y="254" type="curve"/>
      <point x="192" y="230" type="line"/>
      <point x="182" y="158"/>
      <point x="204" y="103"/>
      <point x="268" y="100" type="curve" smooth="yes"/>
      <point x="319" y="98"/>
      <point x="361" y="124"/>
      <point x="389" y="158" type="curve"/>
      <point x="520" y="124" type="line"/>
      <point x="462" y="44"/>
      <point x="381" y="-10"/>
      <point x="261" y="-10" type="curve" smooth="yes"/>
      <point x="107" y="-10"/>
      <point x="22" y="94"/>
      <point x="42" y="230" type="curve" smooth="yes"/>
      <point x="44" y="247"/>
      <point x="49" y="263"/>
      <point x="54" y="279" type="curve" smooth="yes"/>
      <point x="90" y="393"/>
      <point x="192" y="470"/>
      <point x="330" y="470" type="curve" smooth="yes"/>
      <point x="480" y="470"/>
      <point x="556" y="375"/>
      <point x="538" y="237" type="curve" smooth="yes"/>
      <point x="536" y="227"/>
      <point x="535" y="212"/>
      <point x="532" y="198" type="curve"/>
    </contour>
    <contour>
      <point x="392" y="614" type="curve" smooth="yes"/>
      <point x="398" y="659"/>
      <point x="443" y="694"/>
      <point x="489" y="694" type="curve" smooth="yes"/>
      <point x="535" y="694"/>
      <point x="570" y="657"/>
      <point x="564" y="611" type="curve" smooth="yes"/>
      <point x="558" y="566"/>
      <point x="514" y="532"/>
      <point x="468" y="532" type="curve" smooth="yes"/>
      <point x="422" y="532"/>
      <point x="386" y="568"/>
    </contour>
    <contour>
      <point x="155" y="614" type="curve" smooth="yes"/>
      <point x="161" y="659"/>
      <point x="206" y="694"/>
      <point x="252" y="694" type="curve" smooth="yes"/>
      <point x="298" y="694"/>
      <point x="334" y="657"/>
      <point x="328" y="611" type="curve" smooth="yes"/>
      <point x="322" y="566"/>
      <point x="276" y="532"/>
      <point x="230" y="532" type="curve" smooth="yes"/>
      <point x="184" y="532"/>
      <point x="149" y="568"/>
    </contour>
  </outline>
</glyph>
<glyph name="igrave" format="2">
  <advance width="267"/>
  <unicode hex="00EC"/>
  <outline>
    <contour>
      <point x="112" y="460" type="line"/>
      <point x="258" y="460" type="line"/>
      <point x="178" y="0" type="line"/>
      <point x="34" y="0" type="line"/>
    </contour>
    <contour>
      <point x="50" y="690" type="line"/>
      <point x="168" y="741" type="line"/>
      <point x="288" y="578" type="line"/>
      <point x="202" y="538" type="line"/>
    </contour>
  </outline>
</glyph>
<glyph name="icircumflex" format="2">
  <advance width="267"/>
  <unicode hex="00EE"/>
  <outline>
    <contour>
      <point x="112" y="460" type="line"/>
      <point x="258" y="460" type="line"/>
      <point x="178" y="0" type="line"/>
      <point x="34" y="0" type="line"/>
    </contour>
    <contour>
      <point x="216" y="619" type="line"/>
      <point x="112" y="534" type="line"/>
      <point x="18" y="608" type="line"/>
      <point x="230" y="746" type="line"/>
      <point x="402" y="603" type="line"/>
      <point x="290" y="534" type="line"/>
    </contour>
  </outline>
</glyph>
<glyph name="idieresis" format="2">
  <advance width="267"/>
  <unicode hex="00EF"/>
  <outline>
    <contour>
      <point x="112" y="460" type="line"/>
      <point x="258" y="460" type="line"/>
      <point x="178" y="0" type="line"/>
      <point x="34" y="0" type="line"/>
    </contour>
    <contour>
      <point x="245" y="625" type="curve" smooth="yes"/>
      <point x="251" y="670"/>
      <point x="296" y="706"/>
      <point x="342" y="706" type="curve" smooth="yes"/>
      <point x="388" y="706"/>
      <point x="424" y="668"/>
      <point x="418" y="622" type="curve" smooth="yes"/>
      <point x="412" y="577"/>
      <point x="367" y="542"/>
      <point x="321" y="542" type="curve" smooth="yes"/>
      <point x="275" y="542"/>
      <point x="239" y="579"/>
    </contour>
    <contour>
      <point x="8" y="625" type="curve" smooth="yes"/>
      <point x="14" y="670"/>
      <point x="60" y="706"/>
      <point x="106" y="706" type="curve" smooth="yes"/>
      <point x="152" y="706"/>
      <point x="188" y="668"/>
      <point x="182" y="622" type="curve" smooth="yes"/>
      <point x="176" y="577"/>
      <point x="130" y="542"/>
      <point x="84" y="542" type="curve" smooth="yes"/>
      <point x="38" y="542"/>
      <point x="2" y="579"/>
    </contour>
  </outline>
</glyph>
<glyph name="eth" format="2">
  <advance width="626"/>
  <unicode hex="00F0"/>
  <outline>
    <contour>
      <point x="294" y="-16" type="curve" smooth="yes"/>
      <point x="155" y="-16"/>
      <point x="53" y="74"/>
      <point x="53" y="214" type="curve" smooth="yes"/>
      <point x="53" y="361"/>
      <point x="166" y="473"/>
      <point x="301" y="473" type="curve" smooth="yes"/>
      <point x="383" y="473"/>
      <point x="446" y="430"/>
      <point x="506" y="344" type="curve"/>
      <point x="466" y="345" type="line"/>
      <point x="414" y="491"/>
      <point x="334" y="586"/>
      <point x="198" y="685" type="curve"/>
      <point x="310" y="761" type="line"/>
      <point x="519" y="577"/>
      <point x="599" y="437"/>
      <point x="599" y="278" type="curve" smooth="yes"/>
      <point x="599" y="119"/>
      <point x="472" y="-16"/>
    </contour>
    <contour>
      <point x="306" y="119" type="curve" smooth="yes"/>
      <point x="381" y="119"/>
      <point x="434" y="183"/>
      <point x="434" y="249" type="curve" smooth="yes"/>
      <point x="434" y="308"/>
      <point x="397" y="349"/>
      <point x="341" y="349" type="curve" smooth="yes"/>
      <point x="273" y="349"/>
      <point x="212" y="288"/>
      <point x="212" y="218" type="curve" smooth="yes"/>
      <point x="212" y="162"/>
      <point x="248" y="119"/>
    </contour>
    <contour>
      <point x="215" y="507" type="line"/>
      <point x="198" y="562" type="line"/>
      <point x="547" y="674" type="line"/>
      <point x="564" y="619" type="line"/>
    </contour>
  </outline>
</glyph>
<glyph name="ntilde" format="2">
  <advance width="557"/>
  <unicode hex="00F1"/>
  <outline>
    <contour>
      <point x="258" y="460" type="line"/>
      <point x="178" y="0" type="line"/>
      <point x="28" y="0" type="line"/>
      <point x="108" y="460" type="line"/>
    </contour>
    <contour>
      <point x="368" y="280" type="line"/>
      <point x="372" y="323"/>
      <point x="368" y="361"/>
      <point x="321" y="364" type="curve" smooth="yes"/>
      <point x="273" y="367"/>
      <point x="237" y="324"/>
      <point x="226" y="280" type="curve"/>
      <point x="196" y="275" type="line"/>
      <point x="214" y="377"/>
      <point x="276" y="470"/>
      <point x="390" y="470" type="curve" smooth="yes"/>
      <point x="500" y="470"/>
      <point x="536" y="398"/>
      <point x="524" y="296" type="curve"/>
      <point x="474" y="0" type="line"/>
      <point x="319" y="0" type="line"/>
    </contour>
    <contour>
      <point x="163" y="598" type="line"/>
      <point x="184" y="644"/>
      <point x="229" y="692"/>
      <point x="291" y="690" type="curve" smooth="yes"/>
      <point x="345" y="689"/>
      <point x="364" y="638"/>
      <point x="414" y="640" type="curve" smooth="yes"/>
      <point x="442" y="641"/>
      <point x="466" y="666"/>
      <point x="488" y="692" type="curve"/>
      <point x="549" y="616" type="line"/>
      <point x="523" y="578"/>
      <point x="468" y="530"/>
      <point x="408" y="532" type="curve" smooth="yes"/>
      <point x="360" y="534"/>
      <point x="328" y="587"/>
      <point x="282" y="584" type="curve" smooth="yes"/>
      <point x="248" y="582"/>
      <point x="234" y="552"/>
      <point x="226" y="534" type="curve"/>
    </contour>
  </outline>
</glyph>
<glyph name="oacute" format="2">
  <advance width="571"/>
  <unicode hex="00F3"/>
  <outline>
    <contour>
      <point x="42" y="230" type="curve" smooth="yes"/>
      <point x="62" y="370"/>
      <point x="187" y="470"/>
      <point x="334" y="470" type="curve" smooth="yes"/>
      <point x="478" y="470"/>
      <point x="575" y="368"/>
      <point x="555" y="230" type="curve" smooth="yes"/>
      <point x="535" y="90"/>
      <point x="408" y="-10"/>
      <point x="262" y="-10" type="curve" smooth="yes"/>
      <point x="118" y="-10"/>
      <point x="22" y="92"/>
    </contour>
    <contour>
      <point x="195" y="230" type="curve" smooth="yes"/>
      <point x="186" y="170"/>
      <point x="215" y="117"/>
      <point x="275" y="116" type="curve" smooth="yes"/>
      <point x="337" y="115"/>
      <point x="392" y="166"/>
      <point x="402" y="230" type="curve" smooth="yes"/>
      <point x="411" y="290"/>
      <point x="382" y="345"/>
      <point x="322" y="346" type="curve" smooth="yes"/>
      <point x="260" y="347"/>
      <point x="205" y="294"/>
    </contour>
    <contour>
      <point x="532" y="685" type="line"/>
      <point x="336" y="539" type="line"/>
      <point x="254" y="584" type="line"/>
      <point x="424" y="740" type="line"/>
    </contour>
  </outline>
</glyph>
<glyph name="ocircumflex" format="2">
  <advance width="571"/>
  <unicode hex="00F4"/>
  <outline>
    <contour>
      <point x="42" y="230" type="curve" smooth="yes"/>
      <point x="62" y="370"/>
      <point x="187" y="470"/>
      <point x="334" y="470" type="curve" smooth="yes"/>
      <point x="478" y="470"/>
      <point x="575" y="368"/>
      <point x="555" y="230" type="curve" smooth="yes"/>
      <point x="535" y="90"/>
      <point x="408" y="-10"/>
      <point x="262" y="-10" type="curve" smooth="yes"/>
      <point x="118" y="-10"/>
      <point x="22" y="92"/>
    </contour>
    <contour>
      <point x="195" y="230" type="curve" smooth="yes"/>
      <point x="186" y="170"/>
      <point x="215" y="117"/>
      <point x="275" y="116" type="curve" smooth="yes"/>
      <point x="337" y="115"/>
      <point x="392" y="166"/>
      <point x="402" y="230" type="curve" smooth="yes"/>
      <point x="411" y="290"/>
      <point x="382" y="345"/>
      <point x="322" y="346" type="curve" smooth="yes"/>
      <point x="260" y="347"/>
      <point x="205" y="294"/>
    </contour>
    <contour>
      <point x="369" y="623" type="line"/>
      <point x="266" y="538" type="line"/>
      <point x="171" y="612" type="line"/>
      <point x="383" y="749" type="line"/>
      <point x="554" y="606" type="line"/>
      <point x="443" y="538" type="line"/>
    </contour>
  </outline>
</glyph>
<glyph name="odieresis" format="2">
  <advance width="571"/>
  <unicode hex="00F6"/>
  <outline>
    <contour>
      <point x="42" y="230" type="curve" smooth="yes"/>
      <point x="62" y="370"/>
      <point x="187" y="470"/>
      <point x="334" y="470" type="curve" smooth="yes"/>
      <point x="478" y="470"/>
      <point x="575" y="368"/>
      <point x="555" y="230" type="curve" smooth="yes"/>
      <point x="535" y="90"/>
      <point x="408" y="-10"/>
      <point x="262" y="-10" type="curve" smooth="yes"/>
      <point x="118" y="-10"/>
      <point x="22" y="92"/>
    </contour>
    <contour>
      <point x="195" y="230" type="curve" smooth="yes"/>
      <point x="186" y="170"/>
      <point x="215" y="117"/>
      <point x="275" y="116" type="curve" smooth="yes"/>
      <point x="337" y="115"/>
      <point x="392" y="166"/>
      <point x="402" y="230" type="curve" smooth="yes"/>
      <point x="411" y="290"/>
      <point x="382" y="345"/>
      <point x="322" y="346" type="curve" smooth="yes"/>
      <point x="260" y="347"/>
      <point x="205" y="294"/>
    </contour>
    <contour>
      <point x="398" y="625" type="curve" smooth="yes"/>
      <point x="404" y="670"/>
      <point x="448" y="706"/>
      <point x="494" y="706" type="curve" smooth="yes"/>
      <point x="540" y="706"/>
      <point x="576" y="668"/>
      <point x="570" y="622" type="curve" smooth="yes"/>
      <point x="564" y="577"/>
      <point x="519" y="542"/>
      <point x="473" y="542" type="curve" smooth="yes"/>
      <point x="427" y="542"/>
      <point x="392" y="579"/>
    </contour>
    <contour>
      <point x="161" y="625" type="curve" smooth="yes"/>
      <point x="167" y="670"/>
      <point x="212" y="706"/>
      <point x="258" y="706" type="curve" smooth="yes"/>
      <point x="304" y="706"/>
      <point x="340" y="668"/>
      <point x="334" y="622" type="curve" smooth="yes"/>
      <point x="328" y="577"/>
      <point x="282" y="542"/>
      <point x="236" y="542" type="curve" smooth="yes"/>
      <point x="190" y="542"/>
      <point x="155" y="579"/>
    </contour>
  </outline>
</glyph>
<glyph name="divide" format="2">
  <advance width="620"/>
  <unicode hex="00F7"/>
  <outline>
    <contour>
      <point x="284" y="554" type="curve" smooth="yes"/>
      <point x="290" y="602"/>
      <point x="338" y="646"/>
      <point x="390" y="646" type="curve" smooth="yes"/>
      <point x="442" y="646"/>
      <point x="476" y="601"/>
      <point x="470" y="552" type="curve" smooth="yes"/>
      <point x="464" y="504"/>
      <point x="417" y="462"/>
      <point x="365" y="462" type="curve" smooth="yes"/>
      <point x="313" y="462"/>
      <point x="278" y="505"/>
    </contour>
    <contour>
      <point x="207" y="99" type="curve" smooth="yes"/>
      <point x="213" y="147"/>
      <point x="260" y="190"/>
      <point x="312" y="190" type="curve" smooth="yes"/>
      <point x="364" y="190"/>
      <point x="398" y="146"/>
      <point x="392" y="97" type="curve" smooth="yes"/>
      <point x="386" y="49"/>
      <point x="339" y="6"/>
      <point x="287" y="6" type="curve" smooth="yes"/>
      <point x="235" y="6"/>
      <point x="201" y="50"/>
    </contour>
    <contour>
      <point x="41" y="260" type="line"/>
      <point x="65" y="396" type="line"/>
      <point x="638" y="396" type="line"/>
      <point x="614" y="259" type="line"/>
    </contour>
  </outline>
</glyph>
<glyph name="oslash" format="2">
  <advance width="529"/>
  <unicode hex="00F8"/>
  <outline>
    <contour>
      <point x="42" y="230" type="curve" smooth="yes"/>
      <point x="63" y="374"/>
      <point x="188" y="470"/>
      <point x="334" y="470" type="curve" smooth="yes"/>
      <point x="476" y="470"/>
      <point x="575" y="372"/>
      <point x="555" y="230" type="curve" smooth="yes"/>
      <point x="534" y="86"/>
      <point x="408" y="-10"/>
      <point x="262" y="-10" type="curve" smooth="yes"/>
      <point x="120" y="-10"/>
      <point x="22" y="88"/>
    </contour>
    <contour>
      <point x="182" y="230" type="curve" smooth="yes"/>
      <point x="172" y="164"/>
      <point x="208" y="111"/>
      <point x="274" y="110" type="curve" smooth="yes"/>
      <point x="341" y="109"/>
      <point x="403" y="160"/>
      <point x="414" y="230" type="curve" smooth="yes"/>
      <point x="424" y="292"/>
      <point x="388" y="349"/>
      <point x="323" y="350" type="curve" smooth="yes"/>
      <point x="257" y="351"/>
      <point x="194" y="296"/>
    </contour>
    <contour>
      <point x="498" y="506" type="line"/>
      <point x="552" y="470" type="line"/>
      <point x="87" y="-50" type="line"/>
      <point x="33" y="-16" type="line"/>
    </contour>
  </outline>
</glyph>
<glyph name="uacute" format="2">
  <advance width="557"/>
  <unicode hex="00FA"/>
  <outline>
    <contour>
      <point x="324" y="0" type="line"/>
      <point x="404" y="460" type="line"/>
      <point x="554" y="460" type="line"/>
      <point x="474" y="0" type="line"/>
    </contour>
    <contour>
      <point x="214" y="180" type="line"/>
      <point x="210" y="137"/>
      <point x="214" y="99"/>
      <point x="261" y="96" type="curve" smooth="yes"/>
      <point x="309" y="93"/>
      <point x="345" y="136"/>
      <point x="356" y="180" type="curve"/>
      <point x="387" y="185" type="line"/>
      <point x="369" y="83"/>
      <point x="306" y="-10"/>
      <point x="192" y="-10" type="curve" smooth="yes"/>
      <point x="82" y="-10"/>
      <point x="46" y="62"/>
      <point x="58" y="164" type="curve"/>
      <point x="108" y="460" type="line"/>
      <point x="264" y="460" type="line"/>
    </contour>
    <contour>
      <point x="510" y="685" type="line"/>
      <point x="314" y="538" type="line"/>
      <point x="232" y="584" type="line"/>
      <point x="403" y="740" type="line"/>
    </contour>
  </outline>
</glyph>
<glyph name="ucircumflex" format="2">
  <advance width="557"/>
  <unicode hex="00FB"/>
  <outline>
    <contour>
      <point x="324" y="0" type="line"/>
      <point x="404" y="460" type="line"/>
      <point x="554" y="460" type="line"/>
      <point x="474" y="0" type="line"/>
    </contour>
    <contour>
      <point x="214" y="180" type="line"/>
      <point x="210" y="137"/>
      <point x="214" y="99"/>
      <point x="261" y="96" type="curve" smooth="yes"/>
      <point x="309" y="93"/>
      <point x="345" y="136"/>
      <point x="356" y="180" type="curve"/>
      <point x="387" y="185" type="line"/>
      <point x="369" y="83"/>
      <point x="306" y="-10"/>
      <point x="192" y="-10" type="curve" smooth="yes"/>
      <point x="82" y="-10"/>
      <point x="46" y="62"/>
      <point x="58" y="164" type="curve"/>
      <point x="108" y="460" type="line"/>
      <point x="264" y="460" type="line"/>
    </contour>
    <contour>
      <point x="362" y="623" type="line"/>
      <point x="258" y="538" type="line"/>
      <point x="164" y="612" type="line"/>
      <point x="376" y="749" type="line"/>
      <point x="547" y="606" type="line"/>
      <point x="435" y="538" type="line"/>
    </contour>
  </outline>
</glyph>
<glyph name="udieresis" format="2">
  <advance width="557"/>
  <unicode hex="00FC"/>
  <outline>
    <contour>
      <point x="324" y="0" type="line"/>
      <point x="404" y="460" type="line"/>
      <point x="554" y="460" type="line"/>
      <point x="474" y="0" type="line"/>
    </contour>
    <contour>
      <point x="214" y="180" type="line"/>
      <point x="210" y="137"/>
      <point x="214" y="99"/>
      <point x="261" y="96" type="curve" smooth="yes"/>
      <point x="309" y="93"/>
      <point x="345" y="136"/>
      <point x="356" y="180" type="curve"/>
      <point x="387" y="185" type="line"/>
      <point x="369" y="83"/>
      <point x="306" y="-10"/>
      <point x="192" y="-10" type="curve" smooth="yes"/>
      <point x="82" y="-10"/>
      <point x="46" y="62"/>
      <point x="58" y="164" type="curve"/>
      <point x="108" y="460" type="line"/>
      <point x="264" y="460" type="line"/>
    </contour>
    <contour>
      <point x="390" y="622" type="curve" smooth="yes"/>
      <point x="396" y="667"/>
      <point x="441" y="702"/>
      <point x="487" y="702" type="curve" smooth="yes"/>
      <point x="533" y="702"/>
      <point x="569" y="664"/>
      <point x="563" y="618" type="curve" smooth="yes"/>
      <point x="557" y="573"/>
      <point x="512" y="538"/>
      <point x="466" y="538" type="curve" smooth="yes"/>
      <point x="419" y="538"/>
      <point x="384" y="576"/>
    </contour>
    <contour>
      <point x="154" y="622" type="curve" smooth="yes"/>
      <point x="160" y="667"/>
      <point x="204" y="702"/>
      <point x="250" y="702" type="curve" smooth="yes"/>
      <point x="296" y="702"/>
      <point x="332" y="664"/>
      <point x="326" y="618" type="curve" smooth="yes"/>
      <point x="320" y="573"/>
      <point x="275" y="538"/>
      <point x="229" y="538" type="curve" smooth="yes"/>
      <point x="182" y="538"/>
      <point x="148" y="576"/>
    </contour>
  </outline>
</glyph>
<glyph name="yacute" format="2">
  <advance width="505"/>
  <unicode hex="00FD"/>
  <outline>
    <contour>
      <point x="570" y="460" type="line"/>
      <point x="162" y="-220" type="line"/>
      <point x="8" y="-220" type="line"/>
      <point x="164" y="42" type="line"/>
      <point x="44" y="460" type="line"/>
      <point x="204" y="460" type="line"/>
      <point x="284" y="91" type="line"/>
      <point x="207" y="92" type="line"/>
      <point x="413" y="460" type="line"/>
    </contour>
    <contour>
      <point x="500" y="685" type="line"/>
      <point x="303" y="539" type="line"/>
      <point x="222" y="584" type="line"/>
      <point x="392" y="740" type="line"/>
    </contour>
  </outline>
</glyph>
<glyph name="thorn" format="2">
  <advance width="597"/>
  <unicode hex="00FE"/>
  <outline>
    <contour>
      <point x="140" y="-220" type="line"/>
      <point x="-10" y="-220" type="line"/>
      <point x="161" y="780" type="line"/>
      <point x="310" y="780" type="line"/>
    </contour>
    <contour>
      <point x="581" y="230" type="curve" smooth="yes"/>
      <point x="563" y="93"/>
      <point x="454" y="-10"/>
      <point x="332" y="-10" type="curve" smooth="yes"/>
      <point x="208" y="-10"/>
      <point x="157" y="105"/>
      <point x="173" y="230" type="curve" smooth="yes"/>
      <point x="191" y="362"/>
      <point x="282" y="470"/>
      <point x="404" y="470" type="curve" smooth="yes"/>
      <point x="526" y="470"/>
      <point x="598" y="362"/>
    </contour>
    <contour>
      <point x="426" y="230" type="curve" smooth="yes"/>
      <point x="435" y="290"/>
      <point x="404" y="347"/>
      <point x="342" y="348" type="curve" smooth="yes"/>
      <point x="284" y="349"/>
      <point x="226" y="295"/>
      <point x="216" y="230" type="curve" smooth="yes"/>
      <point x="208" y="169"/>
      <point x="239" y="114"/>
      <point x="295" y="112" type="curve" smooth="yes"/>
      <point x="357" y="110"/>
      <point x="416" y="166"/>
    </contour>
  </outline>
</glyph>
<glyph name="ydieresis" format="2">
  <advance width="505"/>
  <unicode hex="00FF"/>
  <outline>
    <contour>
      <point x="570" y="460" type="line"/>
      <point x="162" y="-220" type="line"/>
      <point x="8" y="-220" type="line"/>
      <point x="164" y="42" type="line"/>
      <point x="44" y="460" type="line"/>
      <point x="204" y="460" type="line"/>
      <point x="284" y="91" type="line"/>
      <point x="207" y="92" type="line"/>
      <point x="413" y="460" type="line"/>
    </contour>
    <contour>
      <point x="362" y="614" type="curve" smooth="yes"/>
      <point x="368" y="659"/>
      <point x="414" y="694"/>
      <point x="460" y="694" type="curve" smooth="yes"/>
      <point x="506" y="694"/>
      <point x="542" y="657"/>
      <point x="536" y="611" type="curve" smooth="yes"/>
      <point x="530" y="566"/>
      <point x="484" y="532"/>
      <point x="438" y="532" type="curve" smooth="yes"/>
      <point x="392" y="532"/>
      <point x="356" y="568"/>
    </contour>
    <contour>
      <point x="126" y="614" type="curve" smooth="yes"/>
      <point x="132" y="659"/>
      <point x="177" y="694"/>
      <point x="223" y="694" type="curve" smooth="yes"/>
      <point x="269" y="694"/>
      <point x="304" y="657"/>
      <point x="298" y="611" type="curve" smooth="yes"/>
      <point x="292" y="566"/>
      <point x="248" y="532"/>
      <point x="202" y="532" type="curve" smooth="yes"/>
      <point x="156" y="532"/>
      <point x="120" y="568"/>
    </contour>
  </outline>
</glyph>
<glyph name="Amacron" format="2">
  <advance width="712"/>
  <unicode hex="0100"/>
  <outline>
    <contour>
      <point x="174" y="136" type="line"/>
      <point x="207" y="264" type="line"/>
      <point x="546" y="264" type="line"/>
      <point x="535" y="135" type="line"/>
    </contour>
    <contour>
      <point x="408" y="442" type="line"/>
      <point x="274" y="216" type="line"/>
      <point x="275" y="178" type="line"/>
      <point x="161" y="0" type="line"/>
      <point x="-32" y="0" type="line"/>
      <point x="456" y="746" type="line"/>
      <point x="686" y="0" type="line"/>
      <point x="502" y="0" type="line"/>
      <point x="448" y="172" type="line"/>
      <point x="462" y="216" type="line"/>
    </contour>
    <contour>
      <point x="286" y="804" type="line"/>
      <point x="308" y="936" type="line"/>
      <point x="671" y="936" type="line"/>
      <point x="648" y="804" type="line"/>
    </contour>
  </outline>
</glyph>
<glyph name="Abreve" format="2">
  <advance width="712"/>
  <unicode hex="0102"/>
  <outline>
    <contour>
      <point x="174" y="136" type="line"/>
      <point x="207" y="264" type="line"/>
      <point x="546" y="264" type="line"/>
      <point x="535" y="135" type="line"/>
    </contour>
    <contour>
      <point x="408" y="442" type="line"/>
      <point x="274" y="216" type="line"/>
      <point x="275" y="178" type="line"/>
      <point x="161" y="0" type="line"/>
      <point x="-32" y="0" type="line"/>
      <point x="456" y="746" type="line"/>
      <point x="686" y="0" type="line"/>
      <point x="502" y="0" type="line"/>
      <point x="448" y="172" type="line"/>
      <point x="462" y="216" type="line"/>
    </contour>
    <contour>
      <point x="330" y="951" type="curve"/>
      <point x="426" y="950" type="line"/>
      <point x="426" y="918"/>
      <point x="441" y="894"/>
      <point x="477" y="892" type="curve" smooth="yes"/>
      <point x="515" y="890"/>
      <point x="542" y="920"/>
      <point x="552" y="950" type="curve"/>
      <point x="652" y="950" type="line"/>
      <point x="634" y="868"/>
      <point x="571" y="804"/>
      <point x="472" y="804" type="curve" smooth="yes"/>
      <point x="374" y="804"/>
      <point x="324" y="868"/>
    </contour>
  </outline>
</glyph>
<glyph name="Aogonek" format="2">
  <advance width="712"/>
  <unicode hex="0104"/>
  <outline>
    <contour>
      <point x="174" y="136" type="line"/>
      <point x="207" y="264" type="line"/>
      <point x="546" y="264" type="line"/>
      <point x="535" y="135" type="line"/>
    </contour>
    <contour>
      <point x="408" y="442" type="line"/>
      <point x="274" y="216" type="line"/>
      <point x="275" y="178" type="line"/>
      <point x="161" y="0" type="line"/>
      <point x="-32" y="0" type="line"/>
      <point x="456" y="746" type="line"/>
      <point x="686" y="0" type="line"/>
      <point x="502" y="0" type="line"/>
      <point x="448" y="172" type="line"/>
      <point x="462" y="216" type="line"/>
    </contour>
    <contour>
      <point x="624" y="-111" type="curve"/>
      <point x="646" y="-182" type="line"/>
      <point x="622" y="-202"/>
      <point x="591" y="-220"/>
      <point x="544" y="-220" type="curve" smooth="yes"/>
      <point x="482" y="-220"/>
      <point x="436" y="-181"/>
      <point x="444" y="-119" type="curve" smooth="yes"/>
      <point x="454" y="-49"/>
      <point x="533" y="-8"/>
      <point x="600" y="25" type="curve"/>
      <point x="640" y="0" type="line"/>
      <point x="596" y="-26"/>
      <point x="552" y="-56"/>
      <point x="545" y="-94" type="curve" smooth="yes"/>
      <point x="543" y="-114"/>
      <point x="549" y="-128"/>
      <point x="570" y="-130" type="curve" smooth="yes"/>
      <point x="588" y="-132"/>
      <point x="610" y="-121"/>
    </contour>
  </outline>
</glyph>
<glyph name="aogonek" format="2">
  <advance width="597"/>
  <unicode hex="0105"/>
  <outline>
    <contour>
      <point x="447" y="460" type="line"/>
      <point x="596" y="460" type="line"/>
      <point x="516" y="0" type="line"/>
      <point x="368" y="0" type="line"/>
    </contour>
    <contour>
      <point x="42" y="230" type="curve" smooth="yes"/>
      <point x="60" y="367"/>
      <point x="169" y="470"/>
      <point x="291" y="470" type="curve" smooth="yes"/>
      <point x="415" y="470"/>
      <point x="465" y="355"/>
      <point x="449" y="230" type="curve" smooth="yes"/>
      <point x="431" y="98"/>
      <point x="341" y="-10"/>
      <point x="219" y="-10" type="curve" smooth="yes"/>
      <point x="97" y="-10"/>
      <point x="25" y="98"/>
    </contour>
    <contour>
      <point x="198" y="230" type="curve" smooth="yes"/>
      <point x="189" y="170"/>
      <point x="218" y="113"/>
      <point x="280" y="112" type="curve" smooth="yes"/>
      <point x="338" y="111"/>
      <point x="396" y="165"/>
      <point x="406" y="230" type="curve" smooth="yes"/>
      <point x="414" y="291"/>
      <point x="384" y="346"/>
      <point x="328" y="348" type="curve" smooth="yes"/>
      <point x="266" y="350"/>
      <point x="208" y="294"/>
    </contour>
    <contour>
      <point x="470" y="-111" type="curve"/>
      <point x="492" y="-182" type="line"/>
      <point x="468" y="-202"/>
      <point x="438" y="-220"/>
      <point x="391" y="-220" type="curve" smooth="yes"/>
      <point x="329" y="-220"/>
      <point x="282" y="-181"/>
      <point x="290" y="-119" type="curve" smooth="yes"/>
      <point x="300" y="-49"/>
      <point x="379" y="-8"/>
      <point x="446" y="25" type="curve"/>
      <point x="486" y="0" type="line"/>
      <point x="442" y="-26"/>
      <point x="399" y="-56"/>
      <point x="392" y="-94" type="curve" smooth="yes"/>
      <point x="390" y="-114"/>
      <point x="396" y="-128"/>
      <point x="417" y="-130" type="curve" smooth="yes"/>
      <point x="435" y="-132"/>
      <point x="456" y="-121"/>
    </contour>
  </outline>
</glyph>
<glyph name="Cacute" format="2">
  <advance width="679"/>
  <unicode hex="0106"/>
  <outline>
    <contour>
      <point x="246" y="350" type="curve" smooth="yes"/>
      <point x="228" y="236"/>
      <point x="294" y="148"/>
      <point x="408" y="146" type="curve" smooth="yes"/>
      <point x="500" y="145"/>
      <point x="572" y="189"/>
      <point x="630" y="237" type="curve"/>
      <point x="603" y="54" type="line"/>
      <point x="541" y="12"/>
      <point x="473" y="-16"/>
      <point x="381" y="-16" type="curve" smooth="yes"/>
      <point x="165" y="-16"/>
      <point x="34" y="146"/>
      <point x="64" y="350" type="curve" smooth="yes"/>
      <point x="96" y="560"/>
      <point x="276" y="716"/>
      <point x="496" y="716" type="curve" smooth="yes"/>
      <point x="584" y="716"/>
      <point x="645" y="690"/>
      <point x="701" y="645" type="curve"/>
      <point x="673" y="462" type="line"/>
      <point x="631" y="516"/>
      <point x="574" y="554"/>
      <point x="488" y="554" type="curve" smooth="yes"/>
      <point x="372" y="554"/>
      <point x="266" y="470"/>
    </contour>
    <contour>
      <point x="664" y="923" type="line"/>
      <point x="466" y="777" type="line"/>
      <point x="386" y="822" type="line"/>
      <point x="556" y="978" type="line"/>
    </contour>
  </outline>
</glyph>
<glyph name="cacute" format="2">
  <advance width="478"/>
  <unicode hex="0107"/>
  <outline>
    <contour>
      <point x="193" y="230" type="curve" smooth="yes"/>
      <point x="183" y="164"/>
      <point x="221" y="114"/>
      <point x="288" y="112" type="curve" smooth="yes"/>
      <point x="344" y="110"/>
      <point x="397" y="140"/>
      <point x="433" y="178" type="curve"/>
      <point x="412" y="32" type="line"/>
      <point x="373" y="6"/>
      <point x="325" y="-10"/>
      <point x="264" y="-10" type="curve" smooth="yes"/>
      <point x="119" y="-10"/>
      <point x="20" y="92"/>
      <point x="40" y="230" type="curve" smooth="yes"/>
      <point x="61" y="372"/>
      <point x="187" y="470"/>
      <point x="336" y="470" type="curve" smooth="yes"/>
      <point x="396" y="470"/>
      <point x="440" y="454"/>
      <point x="476" y="430" type="curve"/>
      <point x="454" y="282" type="line"/>
      <point x="430" y="325"/>
      <point x="386" y="349"/>
      <point x="337" y="349" type="curve" smooth="yes"/>
      <point x="269" y="349"/>
      <point x="205" y="296"/>
    </contour>
    <contour>
      <point x="504" y="678" type="line"/>
      <point x="306" y="532" type="line"/>
      <point x="225" y="576" type="line"/>
      <point x="395" y="732" type="line"/>
    </contour>
  </outline>
</glyph>
